MontaguSlab-ThinText.ufo
<glyph name="exclam" format="2">
  <advance width="370"/>
  <unicode hex="0021"/>
  <outline>
    <contour>
      <point x="207" y="400" type="line"/>
      <point x="211" y="1309"/>
      <point x="211" y="1395"/>
      <point x="211" y="1481" type="curve" smooth="yes"/>
      <point x="211" y="1503"/>
      <point x="202" y="1516"/>
      <point x="185" y="1516" type="curve" smooth="yes"/>
      <point x="168" y="1516"/>
      <point x="159" y="1503"/>
      <point x="159" y="1481" type="curve" smooth="yes"/>
      <point x="159" y="1395"/>
      <point x="159" y="1309"/>
      <point x="163" y="400" type="curve"/>
    </contour>
    <contour>
      <point x="185" y="-16" type="curve" smooth="yes"/>
      <point x="221" y="-16"/>
      <point x="244" y="10"/>
      <point x="244" y="46" type="curve" smooth="yes"/>
      <point x="244" y="82"/>
      <point x="221" y="108"/>
      <point x="185" y="108" type="curve" smooth="yes"/>
      <point x="149" y="108"/>
      <point x="126" y="82"/>
      <point x="126" y="46" type="curve" smooth="yes"/>
      <point x="126" y="10"/>
      <point x="149" y="-16"/>
    </contour>
  </outline>
</glyph>
<glyph name="numbersign" format="2">
  <advance width="1364"/>
  <unicode hex="0023"/>
  <outline>
    <contour>
      <point x="493" y="1500" type="line"/>
      <point x="321" y="0" type="line"/>
      <point x="365" y="0" type="line"/>
      <point x="537" y="1500" type="line"/>
    </contour>
    <contour>
      <point x="999" y="1500" type="line"/>
      <point x="827" y="0" type="line"/>
      <point x="871" y="0" type="line"/>
      <point x="1043" y="1500" type="line"/>
    </contour>
    <contour>
      <point x="82" y="1100" type="line"/>
      <point x="82" y="1060" type="line"/>
      <point x="1282" y="1060" type="line"/>
      <point x="1282" y="1100" type="line"/>
    </contour>
    <contour>
      <point x="82" y="440" type="line"/>
      <point x="82" y="400" type="line"/>
      <point x="1282" y="400" type="line"/>
      <point x="1282" y="440" type="line"/>
    </contour>
  </outline>
</glyph>
<glyph name="percent" format="2">
  <advance width="1769"/>
  <unicode hex="0025"/>
  <outline>
    <contour>
      <point x="1401" y="1500" type="line"/>
      <point x="304" y="0" type="line"/>
      <point x="358" y="0" type="line"/>
      <point x="1455" y="1500" type="line"/>
    </contour>
    <contour>
      <point x="444" y="866" type="curve" smooth="yes"/>
      <point x="642" y="866"/>
      <point x="780" y="990"/>
      <point x="780" y="1192" type="curve" smooth="yes"/>
      <point x="780" y="1394"/>
      <point x="642" y="1518"/>
      <point x="444" y="1518" type="curve" smooth="yes"/>
      <point x="251" y="1518"/>
      <point x="118" y="1394"/>
      <point x="118" y="1192" type="curve" smooth="yes"/>
      <point x="118" y="990"/>
      <point x="251" y="866"/>
    </contour>
    <contour>
      <point x="444" y="904" type="curve" smooth="yes"/>
      <point x="277" y="904"/>
      <point x="164" y="1017"/>
      <point x="164" y="1192" type="curve" smooth="yes"/>
      <point x="164" y="1367"/>
      <point x="277" y="1480"/>
      <point x="444" y="1480" type="curve" smooth="yes"/>
      <point x="616" y="1480"/>
      <point x="734" y="1367"/>
      <point x="734" y="1192" type="curve" smooth="yes"/>
      <point x="734" y="1017"/>
      <point x="616" y="904"/>
    </contour>
    <contour>
      <point x="1315" y="-18" type="curve" smooth="yes"/>
      <point x="1513" y="-18"/>
      <point x="1651" y="106"/>
      <point x="1651" y="308" type="curve" smooth="yes"/>
      <point x="1651" y="510"/>
      <point x="1513" y="634"/>
      <point x="1315" y="634" type="curve" smooth="yes"/>
      <point x="1122" y="634"/>
      <point x="989" y="510"/>
      <point x="989" y="308" type="curve" smooth="yes"/>
      <point x="989" y="106"/>
      <point x="1122" y="-18"/>
    </contour>
    <contour>
      <point x="1315" y="20" type="curve" smooth="yes"/>
      <point x="1148" y="20"/>
      <point x="1035" y="133"/>
      <point x="1035" y="308" type="curve" smooth="yes"/>
      <point x="1035" y="483"/>
      <point x="1148" y="596"/>
      <point x="1315" y="596" type="curve" smooth="yes"/>
      <point x="1487" y="596"/>
      <point x="1605" y="483"/>
      <point x="1605" y="308" type="curve" smooth="yes"/>
      <point x="1605" y="133"/>
      <point x="1487" y="20"/>
    </contour>
  </outline>
</glyph>
<glyph name="parenleft" format="2">
  <advance width="652"/>
  <unicode hex="0028"/>
  <outline>
    <contour>
      <point x="542" y="1600" type="line"/>
      <point x="370" y="1373"/>
      <point x="190" y="1056"/>
      <point x="188" y="590" type="curve"/>
      <point x="236" y="590" type="line"/>
      <point x="236" y="1042"/>
      <point x="409" y="1352"/>
      <point x="594" y="1600" type="curve"/>
    </contour>
    <contour>
      <point x="542" y="-420" type="curve"/>
      <point x="594" y="-420" type="line"/>
      <point x="409" y="-177"/>
      <point x="236" y="138"/>
      <point x="236" y="590" type="curve"/>
      <point x="188" y="590" type="line"/>
      <point x="190" y="124"/>
      <point x="370" y="-197"/>
    </contour>
  </outline>
</glyph>
<glyph name="asterisk" format="2">
  <advance width="1064"/>
  <unicode hex="002A"/>
  <outline>
    <contour>
      <point x="532" y="1524" type="curve" smooth="yes"/>
      <point x="516" y="1524"/>
      <point x="507" y="1512"/>
      <point x="507" y="1489" type="curve" smooth="yes"/>
      <point x="507" y="1447"/>
      <point x="513" y="1275"/>
      <point x="519" y="1100" type="curve"/>
      <point x="545" y="1100" type="line"/>
      <point x="551" y="1275"/>
      <point x="557" y="1447"/>
      <point x="557" y="1489" type="curve" smooth="yes"/>
      <point x="557" y="1512"/>
      <point x="548" y="1524"/>
    </contour>
    <contour>
      <point x="532" y="676" type="curve" smooth="yes"/>
      <point x="548" y="676"/>
      <point x="557" y="688"/>
      <point x="557" y="711" type="curve" smooth="yes"/>
      <point x="557" y="753"/>
      <point x="551" y="925"/>
      <point x="545" y="1100" type="curve"/>
      <point x="519" y="1100" type="line"/>
      <point x="513" y="925"/>
      <point x="507" y="753"/>
      <point x="507" y="711" type="curve" smooth="yes"/>
      <point x="507" y="688"/>
      <point x="516" y="676"/>
    </contour>
    <contour>
      <point x="956" y="1100" type="curve" smooth="yes"/>
      <point x="956" y="1116"/>
      <point x="944" y="1125"/>
      <point x="921" y="1125" type="curve" smooth="yes"/>
      <point x="879" y="1125"/>
      <point x="707" y="1119"/>
      <point x="532" y="1113" type="curve"/>
      <point x="532" y="1087" type="line"/>
      <point x="707" y="1081"/>
      <point x="879" y="1075"/>
      <point x="921" y="1075" type="curve" smooth="yes"/>
      <point x="944" y="1075"/>
      <point x="956" y="1084"/>
    </contour>
    <contour>
      <point x="108" y="1100" type="curve" smooth="yes"/>
      <point x="108" y="1084"/>
      <point x="120" y="1075"/>
      <point x="143" y="1075" type="curve" smooth="yes"/>
      <point x="185" y="1075"/>
      <point x="357" y="1081"/>
      <point x="532" y="1087" type="curve"/>
      <point x="532" y="1113" type="line"/>
      <point x="357" y="1119"/>
      <point x="185" y="1125"/>
      <point x="143" y="1125" type="curve" smooth="yes"/>
      <point x="120" y="1125"/>
      <point x="108" y="1116"/>
    </contour>
    <contour>
      <point x="832" y="1400" type="curve" smooth="yes"/>
      <point x="820" y="1411"/>
      <point x="806" y="1409"/>
      <point x="789" y="1393" type="curve" smooth="yes"/>
      <point x="760" y="1363"/>
      <point x="642" y="1237"/>
      <point x="523" y="1109" type="curve"/>
      <point x="541" y="1091" type="line"/>
      <point x="669" y="1210"/>
      <point x="795" y="1328"/>
      <point x="825" y="1357" type="curve" smooth="yes"/>
      <point x="841" y="1374"/>
      <point x="843" y="1388"/>
    </contour>
    <contour>
      <point x="232" y="800" type="curve" smooth="yes"/>
      <point x="244" y="789"/>
      <point x="258" y="791"/>
      <point x="275" y="807" type="curve" smooth="yes"/>
      <point x="304" y="837"/>
      <point x="422" y="963"/>
      <point x="541" y="1091" type="curve"/>
      <point x="523" y="1109" type="line"/>
      <point x="395" y="990"/>
      <point x="269" y="872"/>
      <point x="239" y="843" type="curve" smooth="yes"/>
      <point x="223" y="826"/>
      <point x="221" y="812"/>
    </contour>
    <contour>
      <point x="832" y="800" type="curve" smooth="yes"/>
      <point x="843" y="812"/>
      <point x="841" y="826"/>
      <point x="825" y="843" type="curve" smooth="yes"/>
      <point x="795" y="872"/>
      <point x="669" y="990"/>
      <point x="541" y="1109" type="curve"/>
      <point x="523" y="1091" type="line"/>
      <point x="642" y="963"/>
      <point x="760" y="837"/>
      <point x="789" y="807" type="curve" smooth="yes"/>
      <point x="806" y="791"/>
      <point x="820" y="789"/>
    </contour>
    <contour>
      <point x="232" y="1400" type="curve" smooth="yes"/>
      <point x="221" y="1388"/>
      <point x="223" y="1374"/>
      <point x="239" y="1357" type="curve" smooth="yes"/>
      <point x="269" y="1328"/>
      <point x="395" y="1210"/>
      <point x="523" y="1091" type="curve"/>
      <point x="541" y="1109" type="line"/>
      <point x="422" y="1237"/>
      <point x="304" y="1363"/>
      <point x="275" y="1393" type="curve" smooth="yes"/>
      <point x="258" y="1409"/>
      <point x="244" y="1411"/>
    </contour>
  </outline>
</glyph>
<glyph name="comma" format="2">
  <advance width="379"/>
  <unicode hex="002C"/>
  <outline>
    <contour>
      <point x="132" y="-200" type="curve"/>
      <point x="175" y="-200" type="line"/>
      <point x="232" y="-119"/>
      <point x="253" y="-44"/>
      <point x="253" y="27" type="curve" smooth="yes"/>
      <point x="253" y="84"/>
      <point x="221" y="108"/>
      <point x="185" y="108" type="curve" smooth="yes"/>
      <point x="153" y="108"/>
      <point x="126" y="89"/>
      <point x="126" y="51" type="curve" smooth="yes"/>
      <point x="126" y="13"/>
      <point x="154" y="-12"/>
      <point x="208" y="-12" type="curve"/>
      <point x="202" y="-80"/>
      <point x="181" y="-126"/>
    </contour>
  </outline>
</glyph>
<glyph name="hyphen" format="2">
  <advance width="956"/>
  <unicode hex="002D"/>
  <outline>
    <contour>
      <point x="160" y="602" type="line"/>
      <point x="160" y="560" type="line"/>
      <point x="796" y="560" type="line"/>
      <point x="796" y="602" type="line"/>
    </contour>
  </outline>
</glyph>
<glyph name="period" format="2">
  <advance width="370"/>
  <unicode hex="002E"/>
  <outline>
    <contour>
      <point x="185" y="-16" type="curve" smooth="yes"/>
      <point x="221" y="-16"/>
      <point x="244" y="10"/>
      <point x="244" y="46" type="curve" smooth="yes"/>
      <point x="244" y="82"/>
      <point x="221" y="108"/>
      <point x="185" y="108" type="curve" smooth="yes"/>
      <point x="149" y="108"/>
      <point x="126" y="82"/>
      <point x="126" y="46" type="curve" smooth="yes"/>
      <point x="126" y="10"/>
      <point x="149" y="-16"/>
    </contour>
  </outline>
</glyph>
<glyph name="slash" format="2">
  <advance width="585"/>
  <unicode hex="002F"/>
  <outline>
    <contour>
      <point x="492" y="1560" type="line"/>
      <point x="52" y="-440" type="line"/>
      <point x="97" y="-440" type="line"/>
      <point x="537" y="1560" type="line"/>
    </contour>
  </outline>
</glyph>
<glyph name="zero" format="2">
  <advance width="1420"/>
  <unicode hex="0030"/>
  <anchor x="710" y="750" name="center"/>
  <outline>
    <contour>
      <point x="710" y="-24" type="curve" smooth="yes"/>
      <point x="1050" y="-24"/>
      <point x="1278" y="260"/>
      <point x="1278" y="750" type="curve" smooth="yes"/>
      <point x="1278" y="1240"/>
      <point x="1050" y="1524"/>
      <point x="710" y="1524" type="curve" smooth="yes"/>
      <point x="370" y="1524"/>
      <point x="142" y="1240"/>
      <point x="142" y="750" type="curve" smooth="yes"/>
      <point x="142" y="260"/>
      <point x="370" y="-24"/>
    </contour>
    <contour>
      <point x="710" y="20" type="curve" smooth="yes"/>
      <point x="386" y="20"/>
      <point x="190" y="308"/>
      <point x="190" y="750" type="curve" smooth="yes"/>
      <point x="190" y="1192"/>
      <point x="386" y="1480"/>
      <point x="710" y="1480" type="curve" smooth="yes"/>
      <point x="1034" y="1480"/>
      <point x="1230" y="1192"/>
      <point x="1230" y="750" type="curve" smooth="yes"/>
      <point x="1230" y="308"/>
      <point x="1034" y="20"/>
    </contour>
  </outline>
</glyph>
<glyph name="one" format="2">
  <advance width="856"/>
  <unicode hex="0031"/>
  <outline>
    <contour>
      <point x="494" y="1500" type="line"/>
      <point x="494" y="1430" type="line" smooth="yes"/>
      <point x="494" y="1241"/>
      <point x="462" y="1200"/>
      <point x="286" y="1200" type="curve" smooth="yes"/>
      <point x="96" y="1200" type="line"/>
      <point x="96" y="1162" type="line"/>
      <point x="490" y="1162" type="line"/>
      <point x="490" y="0" type="line"/>
      <point x="538" y="0" type="line"/>
      <point x="538" y="1500" type="line"/>
    </contour>
  </outline>
</glyph>
<glyph name="two" format="2">
  <advance width="1354"/>
  <unicode hex="0032"/>
  <outline>
    <contour>
      <point x="207" y="1158" type="curve" smooth="yes"/>
      <point x="207" y="1093"/>
      <point x="240" y="1056"/>
      <point x="284" y="1056" type="curve" smooth="yes"/>
      <point x="318" y="1056"/>
      <point x="338" y="1077"/>
      <point x="338" y="1111" type="curve" smooth="yes"/>
      <point x="338" y="1155"/>
      <point x="286" y="1180"/>
      <point x="235" y="1173" type="curve"/>
      <point x="252" y="1157" type="line"/>
      <point x="248" y="1386"/>
      <point x="474" y="1472"/>
      <point x="703" y="1472" type="curve" smooth="yes"/>
      <point x="933" y="1472"/>
      <point x="1141" y="1370"/>
      <point x="1139" y="1119" type="curve"/>
      <point x="1187" y="1119" type="line"/>
      <point x="1189" y="1393"/>
      <point x="976" y="1516"/>
      <point x="705" y="1516" type="curve" smooth="yes"/>
      <point x="432" y="1516"/>
      <point x="207" y="1407"/>
    </contour>
    <contour>
      <point x="1187" y="1119" type="curve"/>
      <point x="1139" y="1119" type="line"/>
      <point x="1141" y="866"/>
      <point x="902" y="732"/>
      <point x="748" y="651" type="curve" smooth="yes"/>
      <point x="570" y="557" type="line" smooth="yes"/>
      <point x="328" y="429"/>
      <point x="166" y="315"/>
      <point x="166" y="10" type="curve" smooth="yes"/>
      <point x="166" y="0" type="line"/>
      <point x="213" y="44" type="line"/>
      <point x="217" y="293"/>
      <point x="360" y="394"/>
      <point x="595" y="518" type="curve" smooth="yes"/>
      <point x="773" y="612" type="line" smooth="yes"/>
      <point x="938" y="699"/>
      <point x="1189" y="845"/>
    </contour>
    <contour>
      <point x="1194" y="0" type="line"/>
      <point x="1194" y="44" type="line"/>
      <point x="213" y="44" type="line"/>
      <point x="166" y="10" type="line"/>
      <point x="166" y="0" type="line"/>
    </contour>
    <contour>
      <point x="1018" y="44" type="curve"/>
      <point x="1194" y="44" type="line"/>
      <point x="1194" y="320" type="line"/>
      <point x="1150" y="320" type="line"/>
      <point x="1150" y="184" type="line" smooth="yes"/>
      <point x="1150" y="72"/>
      <point x="1130" y="44"/>
    </contour>
  </outline>
</glyph>
<glyph name="three" format="2">
  <advance width="1318"/>
  <unicode hex="0033"/>
  <outline>
    <contour>
      <point x="134" y="448" type="line"/>
      <point x="142" y="146"/>
      <point x="378" y="-16"/>
      <point x="680" y="-16" type="curve" smooth="yes"/>
      <point x="986" y="-16"/>
      <point x="1182" y="158"/>
      <point x="1182" y="416" type="curve" smooth="yes"/>
      <point x="1182" y="668"/>
      <point x="1005" y="860"/>
      <point x="548" y="824" type="curve"/>
      <point x="548" y="798" type="line"/>
      <point x="960" y="812"/>
      <point x="1134" y="654"/>
      <point x="1134" y="416" type="curve" smooth="yes"/>
      <point x="1134" y="190"/>
      <point x="967" y="22"/>
      <point x="680" y="22" type="curve" smooth="yes"/>
      <point x="399" y="22"/>
      <point x="185" y="179"/>
      <point x="174" y="448" type="curve"/>
    </contour>
    <contour>
      <point x="200" y="1182" type="curve" smooth="yes"/>
      <point x="200" y="1117"/>
      <point x="233" y="1080"/>
      <point x="277" y="1080" type="curve" smooth="yes"/>
      <point x="311" y="1080"/>
      <point x="331" y="1101"/>
      <point x="331" y="1135" type="curve" smooth="yes"/>
      <point x="331" y="1179"/>
      <point x="276" y="1204"/>
      <point x="227" y="1197" type="curve"/>
      <point x="242" y="1184" type="line"/>
      <point x="250" y="1386"/>
      <point x="440" y="1478"/>
      <point x="676" y="1478" type="curve" smooth="yes"/>
      <point x="917" y="1478"/>
      <point x="1092" y="1351"/>
      <point x="1092" y="1164" type="curve" smooth="yes"/>
      <point x="1092" y="951"/>
      <point x="914" y="838"/>
      <point x="548" y="838" type="curve"/>
      <point x="548" y="809" type="line"/>
      <point x="915" y="799"/>
      <point x="1140" y="906"/>
      <point x="1140" y="1164" type="curve" smooth="yes"/>
      <point x="1140" y="1376"/>
      <point x="945" y="1516"/>
      <point x="676" y="1516" type="curve" smooth="yes"/>
      <point x="412" y="1516"/>
      <point x="200" y="1403"/>
    </contour>
  </outline>
</glyph>
<glyph name="four" format="2">
  <advance width="1408"/>
  <unicode hex="0034"/>
  <outline>
    <contour>
      <point x="1292" y="460" type="line"/>
      <point x="1292" y="498" type="line"/>
      <point x="106" y="498" type="line"/>
      <point x="56" y="494" type="line"/>
      <point x="56" y="460" type="line"/>
    </contour>
    <contour>
      <point x="876" y="1500" type="line"/>
      <point x="874" y="1458" type="line"/>
      <point x="874" y="0" type="line"/>
      <point x="922" y="0" type="line"/>
      <point x="922" y="1500" type="line"/>
    </contour>
    <contour>
      <point x="877" y="1438" type="line"/>
      <point x="876" y="1500" type="line"/>
      <point x="56" y="494" type="line"/>
      <point x="108" y="494" type="line"/>
    </contour>
  </outline>
</glyph>
<glyph name="five" format="2">
  <advance width="1406"/>
  <unicode hex="0035"/>
  <outline>
    <contour>
      <point x="196" y="478" type="line"/>
      <point x="201" y="190"/>
      <point x="397" y="-16"/>
      <point x="716" y="-16" type="curve" smooth="yes"/>
      <point x="1041" y="-16"/>
      <point x="1238" y="190"/>
      <point x="1238" y="488" type="curve" smooth="yes"/>
      <point x="1238" y="786"/>
      <point x="1017" y="979"/>
      <point x="737" y="979" type="curve" smooth="yes"/>
      <point x="494" y="979"/>
      <point x="358" y="865"/>
      <point x="270" y="742" type="curve"/>
      <point x="285" y="702" type="line"/>
      <point x="372" y="829"/>
      <point x="519" y="941"/>
      <point x="733" y="941" type="curve" smooth="yes"/>
      <point x="993" y="941"/>
      <point x="1190" y="752"/>
      <point x="1190" y="488" type="curve" smooth="yes"/>
      <point x="1190" y="224"/>
      <point x="1025" y="22"/>
      <point x="716" y="22" type="curve" smooth="yes"/>
      <point x="423" y="22"/>
      <point x="247" y="224"/>
      <point x="236" y="478" type="curve"/>
    </contour>
    <contour>
      <point x="317" y="1500" type="line"/>
      <point x="249" y="702" type="line"/>
      <point x="285" y="702" type="line"/>
      <point x="298" y="736" type="line"/>
      <point x="363" y="1500" type="line"/>
    </contour>
    <contour>
      <point x="1169" y="1500" type="line"/>
      <point x="317" y="1500" type="line"/>
      <point x="343" y="1462" type="line"/>
      <point x="1169" y="1462" type="line"/>
    </contour>
    <contour>
      <point x="993" y="1462" type="line"/>
      <point x="1105" y="1462"/>
      <point x="1125" y="1434"/>
      <point x="1125" y="1322" type="curve" smooth="yes"/>
      <point x="1125" y="1190" type="line"/>
      <point x="1169" y="1190" type="line"/>
      <point x="1169" y="1462" type="line"/>
    </contour>
  </outline>
</glyph>
<glyph name="six" format="2">
  <advance width="1346"/>
  <unicode hex="0036"/>
  <outline>
    <contour>
      <point x="700" y="-16" type="curve" smooth="yes"/>
      <point x="997" y="-16"/>
      <point x="1212" y="164"/>
      <point x="1212" y="460" type="curve" smooth="yes"/>
      <point x="1212" y="756"/>
      <point x="997" y="936"/>
      <point x="700" y="936" type="curve" smooth="yes"/>
      <point x="389" y="936"/>
      <point x="210" y="753"/>
      <point x="195" y="477" type="curve"/>
      <point x="142" y="671" type="line"/>
      <point x="142" y="225"/>
      <point x="338" y="-16"/>
    </contour>
    <contour>
      <point x="700" y="22" type="curve" smooth="yes"/>
      <point x="429" y="22"/>
      <point x="236" y="185"/>
      <point x="236" y="460" type="curve" smooth="yes"/>
      <point x="236" y="735"/>
      <point x="429" y="898"/>
      <point x="700" y="898" type="curve" smooth="yes"/>
      <point x="971" y="898"/>
      <point x="1164" y="735"/>
      <point x="1164" y="460" type="curve" smooth="yes"/>
      <point x="1164" y="185"/>
      <point x="971" y="22"/>
    </contour>
    <contour>
      <point x="1161" y="1202" type="curve" smooth="yes"/>
      <point x="1161" y="1413"/>
      <point x="985" y="1516"/>
      <point x="751" y="1516" type="curve" smooth="yes"/>
      <point x="395" y="1516"/>
      <point x="142" y="1253"/>
      <point x="142" y="671" type="curve"/>
      <point x="195" y="477" type="line"/>
      <point x="139" y="1215"/>
      <point x="427" y="1478"/>
      <point x="753" y="1478" type="curve" smooth="yes"/>
      <point x="940" y="1478"/>
      <point x="1119" y="1400"/>
      <point x="1116" y="1201" type="curve"/>
      <point x="1133" y="1217" type="line"/>
      <point x="1082" y="1224"/>
      <point x="1030" y="1199"/>
      <point x="1030" y="1155" type="curve" smooth="yes"/>
      <point x="1030" y="1121"/>
      <point x="1050" y="1100"/>
      <point x="1084" y="1100" type="curve" smooth="yes"/>
      <point x="1128" y="1100"/>
      <point x="1161" y="1137"/>
    </contour>
  </outline>
</glyph>
<glyph name="seven" format="2">
  <advance width="1284"/>
  <unicode hex="0037"/>
  <outline>
    <contour>
      <point x="116" y="1500" type="line"/>
      <point x="116" y="1462" type="line"/>
      <point x="1120" y="1462" type="line"/>
      <point x="1176" y="1466" type="line"/>
      <point x="1176" y="1500" type="line"/>
    </contour>
    <contour>
      <point x="498" y="0" type="curve"/>
      <point x="546" y="0" type="line"/>
      <point x="579" y="681"/>
      <point x="870" y="1080"/>
      <point x="1176" y="1466" type="curve"/>
      <point x="1120" y="1462" type="line"/>
      <point x="854" y="1127"/>
      <point x="528" y="704"/>
    </contour>
    <contour>
      <point x="292" y="1462" type="curve"/>
      <point x="116" y="1462" type="line"/>
      <point x="116" y="1190" type="line"/>
      <point x="160" y="1190" type="line"/>
      <point x="160" y="1322" type="line" smooth="yes"/>
      <point x="160" y="1434"/>
      <point x="180" y="1462"/>
    </contour>
  </outline>
</glyph>
<glyph name="eight" format="2">
  <advance width="1352"/>
  <unicode hex="0038"/>
  <outline>
    <contour>
      <point x="190" y="1149" type="curve" smooth="yes"/>
      <point x="190" y="909"/>
      <point x="409" y="795"/>
      <point x="625" y="769" type="curve" smooth="yes"/>
      <point x="718" y="758" type="line" smooth="yes"/>
      <point x="947" y="731"/>
      <point x="1172" y="621"/>
      <point x="1172" y="391" type="curve" smooth="yes"/>
      <point x="1172" y="161"/>
      <point x="972" y="24"/>
      <point x="676" y="24" type="curve" smooth="yes"/>
      <point x="380" y="24"/>
      <point x="180" y="161"/>
      <point x="180" y="391" type="curve" smooth="yes"/>
      <point x="180" y="627"/>
      <point x="413" y="753"/>
      <point x="648" y="774" type="curve"/>
      <point x="631" y="808" type="line"/>
      <point x="379" y="787"/>
      <point x="132" y="662"/>
      <point x="132" y="391" type="curve" smooth="yes"/>
      <point x="132" y="125"/>
      <point x="350" y="-16"/>
      <point x="676" y="-16" type="curve" smooth="yes"/>
      <point x="1002" y="-16"/>
      <point x="1220" y="125"/>
      <point x="1220" y="391" type="curve" smooth="yes"/>
      <point x="1220" y="657"/>
      <point x="973" y="770"/>
      <point x="727" y="799" type="curve" smooth="yes"/>
      <point x="634" y="810" type="line" smooth="yes"/>
      <point x="426" y="835"/>
      <point x="238" y="941"/>
      <point x="238" y="1149" type="curve" smooth="yes"/>
      <point x="238" y="1357"/>
      <point x="434" y="1476"/>
      <point x="676" y="1476" type="curve" smooth="yes"/>
      <point x="918" y="1476"/>
      <point x="1114" y="1357"/>
      <point x="1114" y="1149" type="curve" smooth="yes"/>
      <point x="1114" y="944"/>
      <point x="947" y="831"/>
      <point x="709" y="792" type="curve"/>
      <point x="724" y="761" type="line"/>
      <point x="963" y="794"/>
      <point x="1162" y="911"/>
      <point x="1162" y="1149" type="curve" smooth="yes"/>
      <point x="1162" y="1389"/>
      <point x="940" y="1516"/>
      <point x="676" y="1516" type="curve" smooth="yes"/>
      <point x="412" y="1516"/>
      <point x="190" y="1389"/>
    </contour>
  </outline>
</glyph>
<glyph name="question" format="2">
  <advance width="1158"/>
  <unicode hex="003F"/>
  <outline>
    <contour>
      <point x="584" y="-16" type="curve" smooth="yes"/>
      <point x="620" y="-16"/>
      <point x="643" y="10"/>
      <point x="643" y="46" type="curve" smooth="yes"/>
      <point x="643" y="82"/>
      <point x="620" y="108"/>
      <point x="584" y="108" type="curve" smooth="yes"/>
      <point x="548" y="108"/>
      <point x="525" y="82"/>
      <point x="525" y="46" type="curve" smooth="yes"/>
      <point x="525" y="10"/>
      <point x="548" y="-16"/>
    </contour>
    <contour>
      <point x="106" y="1172" type="curve" smooth="yes"/>
      <point x="106" y="1107"/>
      <point x="139" y="1070"/>
      <point x="183" y="1070" type="curve" smooth="yes"/>
      <point x="217" y="1070"/>
      <point x="237" y="1091"/>
      <point x="237" y="1125" type="curve" smooth="yes"/>
      <point x="237" y="1169"/>
      <point x="185" y="1194"/>
      <point x="134" y="1187" type="curve"/>
      <point x="151" y="1171" type="line"/>
      <point x="149" y="1391"/>
      <point x="365" y="1478"/>
      <point x="584" y="1478" type="curve" smooth="yes"/>
      <point x="815" y="1478"/>
      <point x="1018" y="1377"/>
      <point x="1016" y="1153" type="curve"/>
      <point x="1064" y="1153" type="line"/>
      <point x="1066" y="1396"/>
      <point x="858" y="1516"/>
      <point x="586" y="1516" type="curve" smooth="yes"/>
      <point x="324" y="1516"/>
      <point x="106" y="1407"/>
    </contour>
    <contour>
      <point x="1064" y="1153" type="curve"/>
      <point x="1016" y="1153" type="line"/>
      <point x="1018" y="944"/>
      <point x="835" y="838"/>
      <point x="697" y="752" type="curve" smooth="yes"/>
      <point x="564" y="669"/>
      <point x="544" y="564"/>
      <point x="558" y="400" type="curve"/>
      <point x="602" y="400" type="line"/>
      <point x="595" y="563"/>
      <point x="599" y="638"/>
      <point x="722" y="716" type="curve" smooth="yes"/>
      <point x="865" y="807"/>
      <point x="1064" y="919"/>
    </contour>
  </outline>
</glyph>
<glyph name="A" format="2">
  <advance width="1690"/>
  <unicode hex="0041"/>
  <anchor x="845" y="0" name="bottom"/>
  <anchor x="1590" y="0" name="ogonek"/>
  <anchor x="845" y="1500" name="top"/>
  <outline>
    <contour>
      <point x="184" y="0" type="line"/>
      <point x="232" y="0" type="line"/>
      <point x="851" y="1453" type="line"/>
      <point x="834" y="1453" type="line"/>
      <point x="1454" y="0" type="line"/>
      <point x="1506" y="0" type="line"/>
      <point x="864" y="1500" type="line"/>
      <point x="826" y="1500" type="line"/>
    </contour>
    <contour>
      <point x="1252" y="516" type="line"/>
      <point x="1252" y="560" type="line"/>
      <point x="436" y="560" type="line"/>
      <point x="436" y="516" type="line"/>
    </contour>
  </outline>
</glyph>
<glyph name="B" format="2">
  <advance width="1538"/>
  <unicode hex="0042"/>
  <anchor x="769" y="0" name="bottom"/>
  <anchor x="769" y="1500" name="top"/>
  <outline>
    <contour>
      <point x="358" y="1500" type="line"/>
      <point x="358" y="1456" type="line"/>
      <point x="904" y="1456" type="line" smooth="yes"/>
      <point x="1152" y="1456"/>
      <point x="1308" y="1343"/>
      <point x="1308" y="1121" type="curve" smooth="yes"/>
      <point x="1308" y="899"/>
      <point x="1152" y="785"/>
      <point x="904" y="785" type="curve" smooth="yes"/>
      <point x="358" y="785" type="line"/>
      <point x="358" y="756" type="line"/>
      <point x="916" y="755" type="line" smooth="yes"/>
      <point x="1190" y="754"/>
      <point x="1356" y="880"/>
      <point x="1356" y="1121" type="curve" smooth="yes"/>
      <point x="1356" y="1371"/>
      <point x="1180" y="1500"/>
      <point x="916" y="1500" type="curve" smooth="yes"/>
    </contour>
    <contour>
      <point x="358" y="773" type="line"/>
      <point x="358" y="741" type="line"/>
      <point x="948" y="741" type="line" smooth="yes"/>
      <point x="1204" y="741"/>
      <point x="1364" y="622"/>
      <point x="1364" y="392" type="curve" smooth="yes"/>
      <point x="1364" y="162"/>
      <point x="1204" y="44"/>
      <point x="948" y="44" type="curve" smooth="yes"/>
      <point x="358" y="44" type="line"/>
      <point x="358" y="0" type="line"/>
      <point x="960" y="0" type="line" smooth="yes"/>
      <point x="1232" y="0"/>
      <point x="1412" y="133"/>
      <point x="1412" y="391" type="curve" smooth="yes"/>
      <point x="1412" y="646"/>
      <point x="1241" y="773"/>
      <point x="960" y="773" type="curve" smooth="yes"/>
    </contour>
    <contour>
      <point x="358" y="0" type="line"/>
      <point x="358" y="1500" type="line"/>
      <point x="310" y="1500" type="line"/>
      <point x="310" y="0" type="line"/>
    </contour>
  </outline>
</glyph>
<glyph name="C" format="2">
  <advance width="1724"/>
  <unicode hex="0043"/>
  <anchor x="862" y="0" name="bottom"/>
  <anchor x="900" y="1500" name="top"/>
  <outline>
    <contour>
      <point x="1512" y="980" type="curve"/>
      <point x="1543" y="980" type="line"/>
      <point x="1533" y="1303"/>
      <point x="1290" y="1524"/>
      <point x="880" y="1524" type="curve" smooth="yes"/>
      <point x="463" y="1524"/>
      <point x="138" y="1239"/>
      <point x="138" y="750" type="curve" smooth="yes"/>
      <point x="138" y="261"/>
      <point x="467" y="-24"/>
      <point x="890" y="-24" type="curve" smooth="yes"/>
      <point x="1325" y="-24"/>
      <point x="1558" y="243"/>
      <point x="1566" y="548" type="curve"/>
      <point x="1522" y="548" type="line"/>
      <point x="1509" y="264"/>
      <point x="1296" y="20"/>
      <point x="890" y="20" type="curve" smooth="yes"/>
      <point x="493" y="20"/>
      <point x="186" y="306"/>
      <point x="186" y="750" type="curve" smooth="yes"/>
      <point x="186" y="1194"/>
      <point x="489" y="1480"/>
      <point x="880" y="1480" type="curve" smooth="yes"/>
      <point x="1299" y="1480"/>
      <point x="1489" y="1239"/>
    </contour>
    <contour>
      <point x="1556" y="1500" type="line"/>
      <point x="1512" y="1500" type="line"/>
      <point x="1512" y="1054" type="line"/>
      <point x="1543" y="980" type="line"/>
      <point x="1556" y="980" type="line"/>
    </contour>
  </outline>
</glyph>
<glyph name="D" format="2">
  <advance width="1680"/>
  <unicode hex="0044"/>
  <anchor x="790" y="0" name="bottom"/>
  <anchor x="310" y="750" name="stroke"/>
  <anchor x="790" y="1500" name="top"/>
  <outline>
    <contour>
      <point x="358" y="1500" type="line"/>
      <point x="358" y="1456" type="line"/>
      <point x="756" y="1456" type="line" smooth="yes"/>
      <point x="1202" y="1456"/>
      <point x="1494" y="1181"/>
      <point x="1494" y="750" type="curve" smooth="yes"/>
      <point x="1494" y="319"/>
      <point x="1202" y="44"/>
      <point x="756" y="44" type="curve" smooth="yes"/>
      <point x="358" y="44" type="line"/>
      <point x="358" y="0" type="line"/>
      <point x="756" y="0" type="line" smooth="yes"/>
      <point x="1230" y="0"/>
      <point x="1542" y="275"/>
      <point x="1542" y="750" type="curve" smooth="yes"/>
      <point x="1542" y="1225"/>
      <point x="1230" y="1500"/>
      <point x="756" y="1500" type="curve" smooth="yes"/>
    </contour>
    <contour>
      <point x="358" y="0" type="line"/>
      <point x="358" y="1500" type="line"/>
      <point x="310" y="1500" type="line"/>
      <point x="310" y="0" type="line"/>
    </contour>
  </outline>
</glyph>
<glyph name="E" format="2">
  <advance width="1540"/>
  <unicode hex="0045"/>
  <anchor x="770" y="0" name="bottom"/>
  <anchor x="1402" y="0" name="ogonek"/>
  <anchor x="806" y="1500" name="top"/>
  <outline>
    <contour>
      <point x="1402" y="0" type="line"/>
      <point x="1402" y="44" type="line"/>
      <point x="358" y="44" type="line"/>
      <point x="358" y="0" type="line"/>
    </contour>
    <contour>
      <point x="1384" y="1456" type="line"/>
      <point x="1384" y="1500" type="line"/>
      <point x="358" y="1500" type="line"/>
      <point x="358" y="1456" type="line"/>
    </contour>
    <contour>
      <point x="358" y="0" type="line"/>
      <point x="358" y="1500" type="line"/>
      <point x="310" y="1500" type="line"/>
      <point x="310" y="0" type="line"/>
    </contour>
    <contour>
      <point x="928" y="770" type="line"/>
      <point x="928" y="814" type="line"/>
      <point x="358" y="814" type="line"/>
      <point x="358" y="770" type="line"/>
    </contour>
    <contour>
      <point x="1214" y="1456" type="line"/>
      <point x="1314" y="1456"/>
      <point x="1340" y="1430"/>
      <point x="1340" y="1326" type="curve" smooth="yes"/>
      <point x="1340" y="1000" type="line"/>
      <point x="1384" y="1000" type="line"/>
      <point x="1384" y="1456" type="line"/>
    </contour>
    <contour>
      <point x="1232" y="44" type="curve"/>
      <point x="1402" y="44" type="line"/>
      <point x="1402" y="520" type="line"/>
      <point x="1358" y="520" type="line"/>
      <point x="1358" y="174" type="line" smooth="yes"/>
      <point x="1358" y="70"/>
      <point x="1332" y="44"/>
    </contour>
    <contour>
      <point x="768" y="814" type="curve"/>
      <point x="928" y="814" type="line"/>
      <point x="928" y="1146" type="line"/>
      <point x="886" y="1146" type="line"/>
      <point x="886" y="936" type="line" smooth="yes"/>
      <point x="886" y="838"/>
      <point x="862" y="814"/>
    </contour>
    <contour>
      <point x="768" y="770" type="line"/>
      <point x="862" y="770"/>
      <point x="886" y="746"/>
      <point x="886" y="648" type="curve" smooth="yes"/>
      <point x="886" y="364" type="line"/>
      <point x="928" y="364" type="line"/>
      <point x="928" y="770" type="line"/>
    </contour>
  </outline>
</glyph>
<glyph name="F" format="2">
  <advance width="1450"/>
  <unicode hex="0046"/>
  <outline>
    <contour>
      <point x="1338" y="1456" type="line"/>
      <point x="1338" y="1500" type="line"/>
      <point x="358" y="1500" type="line"/>
      <point x="358" y="1456" type="line"/>
    </contour>
    <contour>
      <point x="918" y="750" type="line"/>
      <point x="918" y="794" type="line"/>
      <point x="358" y="794" type="line"/>
      <point x="358" y="750" type="line"/>
    </contour>
    <contour>
      <point x="1168" y="1456" type="line"/>
      <point x="1268" y="1456"/>
      <point x="1294" y="1430"/>
      <point x="1294" y="1326" type="curve" smooth="yes"/>
      <point x="1294" y="1000" type="line"/>
      <point x="1338" y="1000" type="line"/>
      <point x="1338" y="1456" type="line"/>
    </contour>
    <contour>
      <point x="758" y="794" type="curve"/>
      <point x="918" y="794" type="line"/>
      <point x="918" y="1146" type="line"/>
      <point x="876" y="1146" type="line"/>
      <point x="876" y="916" type="line" smooth="yes"/>
      <point x="876" y="818"/>
      <point x="852" y="794"/>
    </contour>
    <contour>
      <point x="758" y="750" type="line"/>
      <point x="852" y="750"/>
      <point x="876" y="726"/>
      <point x="876" y="628" type="curve" smooth="yes"/>
      <point x="876" y="386" type="line"/>
      <point x="918" y="386" type="line"/>
      <point x="918" y="750" type="line"/>
    </contour>
    <contour>
      <point x="310" y="1500" type="line"/>
      <point x="310" y="0" type="line"/>
      <point x="358" y="0" type="line"/>
      <point x="358" y="1500" type="line"/>
    </contour>
  </outline>
</glyph>
<glyph name="J" format="2">
  <advance width="1267"/>
  <unicode hex="004A"/>
  <anchor x="634" y="0" name="bottom"/>
  <anchor x="892" y="1500" name="top"/>
  <outline>
    <contour>
      <point x="978" y="1500" type="line"/>
      <point x="930" y="1500" type="line"/>
      <point x="930" y="456" type="line" smooth="yes"/>
      <point x="930" y="173"/>
      <point x="781" y="28"/>
      <point x="540" y="28" type="curve" smooth="yes"/>
      <point x="299" y="28"/>
      <point x="150" y="173"/>
      <point x="150" y="456" type="curve" smooth="yes"/>
      <point x="150" y="530" type="line"/>
      <point x="106" y="530" type="line"/>
      <point x="106" y="452" type="line" smooth="yes"/>
      <point x="106" y="133"/>
      <point x="278" y="-16"/>
      <point x="542" y="-16" type="curve" smooth="yes"/>
      <point x="806" y="-16"/>
      <point x="978" y="132"/>
      <point x="978" y="460" type="curve" smooth="yes"/>
    </contour>
  </outline>
</glyph>
<glyph name="K" format="2">
  <advance width="1639"/>
  <unicode hex="004B"/>
  <anchor x="820" y="0" name="bottom"/>
  <anchor x="820" y="1500" name="top"/>
  <outline>
    <contour>
      <point x="358" y="1500" type="line"/>
      <point x="310" y="1500" type="line"/>
      <point x="310" y="0" type="line"/>
      <point x="358" y="0" type="line"/>
    </contour>
    <contour>
      <point x="1406" y="1500" type="line"/>
      <point x="1340" y="1500" type="line"/>
      <point x="324" y="585" type="line"/>
      <point x="349" y="551" type="line"/>
    </contour>
    <contour>
      <point x="1466" y="0" type="line"/>
      <point x="637" y="835" type="line"/>
      <point x="604" y="806" type="line"/>
      <point x="1401" y="0" type="line"/>
    </contour>
  </outline>
</glyph>
<glyph name="L" format="2">
  <advance width="1460"/>
  <unicode hex="004C"/>
  <anchor x="730" y="0" name="bottom"/>
  <anchor x="334" y="1220" name="center"/>
  <anchor x="335" y="1500" name="top"/>
  <anchor x="578" y="1500" name="topright"/>
  <outline>
    <contour>
      <point x="1352" y="0" type="line"/>
      <point x="1352" y="44" type="line"/>
      <point x="358" y="44" type="line"/>
      <point x="358" y="0" type="line"/>
    </contour>
    <contour>
      <point x="1182" y="44" type="curve"/>
      <point x="1352" y="44" type="line"/>
      <point x="1352" y="520" type="line"/>
      <point x="1308" y="520" type="line"/>
      <point x="1308" y="174" type="line" smooth="yes"/>
      <point x="1308" y="70"/>
      <point x="1282" y="44"/>
    </contour>
    <contour>
      <point x="358" y="0" type="line"/>
      <point x="358" y="1500" type="line"/>
      <point x="310" y="1500" type="line"/>
      <point x="310" y="0" type="line"/>
    </contour>
  </outline>
</glyph>
<glyph name="M" format="2">
  <advance width="2170"/>
  <unicode hex="004D"/>
  <anchor x="1083" y="0" name="bottom"/>
  <anchor x="1085" y="1500" name="top"/>
  <outline>
    <contour>
      <point x="354" y="0" type="line"/>
      <point x="354" y="1437" type="line"/>
      <point x="354" y="1500" type="line"/>
      <point x="310" y="1500" type="line"/>
      <point x="310" y="0" type="line"/>
    </contour>
    <contour>
      <point x="1860" y="0" type="line"/>
      <point x="1860" y="1500" type="line"/>
      <point x="1812" y="1500" type="line"/>
      <point x="1812" y="0" type="line"/>
    </contour>
    <contour>
      <point x="354" y="1437" type="line"/>
      <point x="1065" y="0" type="line"/>
      <point x="1101" y="0" type="line"/>
      <point x="1812" y="1430" type="line"/>
      <point x="1812" y="1500" type="line"/>
      <point x="1798" y="1500" type="line"/>
      <point x="1078" y="52" type="line"/>
      <point x="1093" y="52" type="line"/>
      <point x="376" y="1500" type="line"/>
      <point x="354" y="1500" type="line"/>
    </contour>
  </outline>
</glyph>
<glyph name="O" format="2">
  <advance width="1812"/>
  <unicode hex="004F"/>
  <anchor x="906" y="0" name="bottom"/>
  <anchor x="1227" y="0" name="ogonek"/>
  <anchor x="906" y="1500" name="top"/>
  <anchor x="20" y="1500" name="topleft"/>
  <anchor x="1520" y="1260" name="topright"/>
  <outline>
    <contour>
      <point x="906" y="-24" type="curve" smooth="yes"/>
      <point x="1350" y="-24"/>
      <point x="1674" y="260"/>
      <point x="1674" y="750" type="curve" smooth="yes"/>
      <point x="1674" y="1240"/>
      <point x="1350" y="1524"/>
      <point x="906" y="1524" type="curve" smooth="yes"/>
      <point x="462" y="1524"/>
      <point x="138" y="1240"/>
      <point x="138" y="750" type="curve" smooth="yes"/>
      <point x="138" y="260"/>
      <point x="462" y="-24"/>
    </contour>
    <contour>
      <point x="906" y="20" type="curve" smooth="yes"/>
      <point x="474" y="20"/>
      <point x="186" y="308"/>
      <point x="186" y="750" type="curve" smooth="yes"/>
      <point x="186" y="1192"/>
      <point x="474" y="1480"/>
      <point x="906" y="1480" type="curve" smooth="yes"/>
      <point x="1338" y="1480"/>
      <point x="1626" y="1192"/>
      <point x="1626" y="750" type="curve" smooth="yes"/>
      <point x="1626" y="308"/>
      <point x="1338" y="20"/>
    </contour>
  </outline>
</glyph>
<glyph name="P" format="2">
  <advance width="1490"/>
  <unicode hex="0050"/>
  <anchor x="745" y="0" name="bottom"/>
  <anchor x="745" y="1500" name="top"/>
  <outline>
    <contour>
      <point x="358" y="1500" type="line"/>
      <point x="358" y="1456" type="line"/>
      <point x="898" y="1456" type="line" smooth="yes"/>
      <point x="1176" y="1456"/>
      <point x="1352" y="1330"/>
      <point x="1352" y="1081" type="curve" smooth="yes"/>
      <point x="1352" y="832"/>
      <point x="1176" y="706"/>
      <point x="898" y="706" type="curve" smooth="yes"/>
      <point x="358" y="706" type="line"/>
      <point x="358" y="662" type="line"/>
      <point x="910" y="662" type="line" smooth="yes"/>
      <point x="1204" y="662"/>
      <point x="1400" y="803"/>
      <point x="1400" y="1081" type="curve" smooth="yes"/>
      <point x="1400" y="1359"/>
      <point x="1204" y="1500"/>
      <point x="910" y="1500" type="curve" smooth="yes"/>
    </contour>
    <contour>
      <point x="310" y="1500" type="line"/>
      <point x="310" y="0" type="line"/>
      <point x="358" y="0" type="line"/>
      <point x="358" y="1500" type="line"/>
    </contour>
  </outline>
</glyph>
<glyph name="Q" format="2">
  <advance width="1772"/>
  <unicode hex="0051"/>
  <anchor x="886" y="0" name="bottom"/>
  <anchor x="886" y="1500" name="top"/>
  <outline>
    <contour>
      <point x="942" y="420" type="curve" smooth="yes"/>
      <point x="829" y="420"/>
      <point x="748" y="345"/>
      <point x="748" y="196" type="curve" smooth="yes"/>
      <point x="748" y="0" type="line"/>
      <point x="792" y="0" type="line"/>
      <point x="792" y="196" type="line" smooth="yes"/>
      <point x="792" y="317"/>
      <point x="845" y="378"/>
      <point x="940" y="378" type="curve" smooth="yes"/>
      <point x="1034" y="378"/>
      <point x="1086" y="317"/>
      <point x="1086" y="196" type="curve" smooth="yes"/>
      <point x="1086" y="0" type="line"/>
      <point x="1130" y="0" type="line"/>
      <point x="1130" y="196" type="line" smooth="yes"/>
      <point x="1130" y="345"/>
      <point x="1054" y="420"/>
    </contour>
    <contour>
      <point x="1282" y="-340" type="curve" smooth="yes"/>
      <point x="1395" y="-340"/>
      <point x="1472" y="-265"/>
      <point x="1472" y="-116" type="curve" smooth="yes"/>
      <point x="1472" y="0" type="line"/>
      <point x="1428" y="0" type="line"/>
      <point x="1428" y="-116" type="line" smooth="yes"/>
      <point x="1428" y="-237"/>
      <point x="1374" y="-298"/>
      <point x="1278" y="-298" type="curve" smooth="yes"/>
      <point x="1183" y="-298"/>
      <point x="1130" y="-237"/>
      <point x="1130" y="-116" type="curve" smooth="yes"/>
      <point x="1130" y="0" type="line"/>
      <point x="1086" y="0" type="line"/>
      <point x="1086" y="-116" type="line" smooth="yes"/>
      <point x="1086" y="-265"/>
      <point x="1168" y="-340"/>
    </contour>
    <contour>
      <point x="886" y="-24" type="curve" smooth="yes"/>
      <point x="1318" y="-24"/>
      <point x="1634" y="260"/>
      <point x="1634" y="750" type="curve" smooth="yes"/>
      <point x="1634" y="1240"/>
      <point x="1318" y="1524"/>
      <point x="886" y="1524" type="curve" smooth="yes"/>
      <point x="454" y="1524"/>
      <point x="138" y="1240"/>
      <point x="138" y="750" type="curve" smooth="yes"/>
      <point x="138" y="260"/>
      <point x="454" y="-24"/>
    </contour>
    <contour>
      <point x="886" y="20" type="curve" smooth="yes"/>
      <point x="466" y="20"/>
      <point x="186" y="308"/>
      <point x="186" y="750" type="curve" smooth="yes"/>
      <point x="186" y="1192"/>
      <point x="466" y="1480"/>
      <point x="886" y="1480" type="curve" smooth="yes"/>
      <point x="1306" y="1480"/>
      <point x="1586" y="1192"/>
      <point x="1586" y="750" type="curve" smooth="yes"/>
      <point x="1586" y="308"/>
      <point x="1306" y="20"/>
    </contour>
  </outline>
</glyph>
<glyph name="R" format="2">
  <advance width="1604"/>
  <unicode hex="0052"/>
  <anchor x="802" y="0" name="bottom"/>
  <anchor x="800" y="1500" name="top"/>
  <outline>
    <contour>
      <point x="1450" y="1099" type="curve" smooth="yes"/>
      <point x="1450" y="1365"/>
      <point x="1254" y="1500"/>
      <point x="970" y="1500" type="curve" smooth="yes"/>
      <point x="358" y="1500" type="line"/>
      <point x="358" y="1456" type="line"/>
      <point x="958" y="1456" type="line" smooth="yes"/>
      <point x="1230" y="1456"/>
      <point x="1402" y="1336"/>
      <point x="1402" y="1099" type="curve" smooth="yes"/>
      <point x="1402" y="862"/>
      <point x="1230" y="742"/>
      <point x="958" y="742" type="curve" smooth="yes"/>
      <point x="358" y="742" type="line"/>
      <point x="358" y="698" type="line"/>
      <point x="834" y="698" type="line"/>
      <point x="840" y="702" type="line"/>
      <point x="966" y="702" type="line" smooth="yes"/>
      <point x="1252" y="702"/>
      <point x="1450" y="833"/>
    </contour>
    <contour>
      <point x="338" y="720" type="line"/>
      <point x="338" y="698" type="line"/>
      <point x="704" y="698" type="line" smooth="yes"/>
      <point x="908" y="698"/>
      <point x="1046" y="571"/>
      <point x="1046" y="346" type="curve" smooth="yes"/>
      <point x="1046" y="220" type="line" smooth="yes"/>
      <point x="1046" y="74"/>
      <point x="1114" y="-20"/>
      <point x="1262" y="-20" type="curve" smooth="yes"/>
      <point x="1410" y="-20"/>
      <point x="1478" y="74"/>
      <point x="1478" y="220" type="curve" smooth="yes"/>
      <point x="1478" y="540" type="line"/>
      <point x="1434" y="540" type="line"/>
      <point x="1434" y="220" type="line" smooth="yes"/>
      <point x="1434" y="109"/>
      <point x="1384" y="22"/>
      <point x="1264" y="22" type="curve" smooth="yes"/>
      <point x="1142" y="22"/>
      <point x="1094" y="109"/>
      <point x="1094" y="220" type="curve" smooth="yes"/>
      <point x="1094" y="338" type="line" smooth="yes"/>
      <point x="1094" y="592"/>
      <point x="982" y="720"/>
      <point x="722" y="720" type="curve" smooth="yes"/>
    </contour>
    <contour>
      <point x="310" y="1500" type="line"/>
      <point x="310" y="0" type="line"/>
      <point x="358" y="0" type="line"/>
      <point x="358" y="1500" type="line"/>
    </contour>
  </outline>
</glyph>
<glyph name="S" format="2">
  <advance width="1516"/>
  <unicode hex="0053"/>
  <anchor x="809" y="0" name="bottom"/>
  <anchor x="736" y="1500" name="top"/>
  <outline>
    <contour>
      <point x="176" y="1149" type="curve" smooth="yes"/>
      <point x="176" y="890"/>
      <point x="381" y="795"/>
      <point x="650" y="760" type="curve" smooth="yes"/>
      <point x="866" y="732" type="line" smooth="yes"/>
      <point x="1118" y="699"/>
      <point x="1320" y="614"/>
      <point x="1320" y="371" type="curve" smooth="yes"/>
      <point x="1320" y="145"/>
      <point x="1161" y="20"/>
      <point x="870" y="20" type="curve" smooth="yes"/>
      <point x="580" y="20"/>
      <point x="323" y="162"/>
      <point x="210" y="470" type="curve"/>
      <point x="172" y="470" type="line"/>
      <point x="271" y="124"/>
      <point x="560" y="-24"/>
      <point x="870" y="-24" type="curve" smooth="yes"/>
      <point x="1179" y="-24"/>
      <point x="1368" y="106"/>
      <point x="1368" y="371" type="curve" smooth="yes"/>
      <point x="1368" y="638"/>
      <point x="1160" y="742"/>
      <point x="874" y="779" type="curve" smooth="yes"/>
      <point x="658" y="807" type="line" smooth="yes"/>
      <point x="407" y="840"/>
      <point x="224" y="922"/>
      <point x="224" y="1149" type="curve" smooth="yes"/>
      <point x="224" y="1367"/>
      <point x="380" y="1480"/>
      <point x="668" y="1480" type="curve" smooth="yes"/>
      <point x="943" y="1480"/>
      <point x="1179" y="1351"/>
      <point x="1280" y="1050" type="curve"/>
      <point x="1315" y="1050" type="line"/>
      <point x="1237" y="1391"/>
      <point x="959" y="1524"/>
      <point x="668" y="1524" type="curve" smooth="yes"/>
      <point x="366" y="1524"/>
      <point x="176" y="1406"/>
    </contour>
    <contour>
      <point x="1326" y="1500" type="line"/>
      <point x="1282" y="1500" type="line"/>
      <point x="1282" y="1124" type="line"/>
      <point x="1315" y="1050" type="line"/>
      <point x="1326" y="1050" type="line"/>
    </contour>
    <contour>
      <point x="164" y="0" type="line"/>
      <point x="208" y="0" type="line"/>
      <point x="208" y="392" type="line"/>
      <point x="172" y="470" type="line"/>
      <point x="164" y="470" type="line"/>
    </contour>
  </outline>
</glyph>
<glyph name="T" format="2">
  <advance width="1652"/>
  <unicode hex="0054"/>
  <anchor x="826" y="0" name="bottom"/>
  <anchor x="826" y="730" name="center"/>
  <anchor x="826" y="1500" name="top"/>
  <outline>
    <contour>
      <point x="850" y="0" type="line"/>
      <point x="850" y="1500" type="line"/>
      <point x="802" y="1500" type="line"/>
      <point x="802" y="0" type="line"/>
    </contour>
    <contour>
      <point x="1540" y="1456" type="line"/>
      <point x="1540" y="1500" type="line"/>
      <point x="112" y="1500" type="line"/>
      <point x="112" y="1456" type="line"/>
    </contour>
    <contour>
      <point x="1370" y="1456" type="line"/>
      <point x="1470" y="1456"/>
      <point x="1496" y="1430"/>
      <point x="1496" y="1326" type="curve" smooth="yes"/>
      <point x="1496" y="1040" type="line"/>
      <point x="1540" y="1040" type="line"/>
      <point x="1540" y="1456" type="line"/>
    </contour>
    <contour>
      <point x="282" y="1456" type="curve"/>
      <point x="112" y="1456" type="line"/>
      <point x="112" y="1040" type="line"/>
      <point x="156" y="1040" type="line"/>
      <point x="156" y="1326" type="line" smooth="yes"/>
      <point x="156" y="1430"/>
      <point x="182" y="1456"/>
    </contour>
  </outline>
</glyph>
<glyph name="W" format="2">
  <advance width="2210"/>
  <unicode hex="0057"/>
  <anchor x="1103" y="0" name="bottom"/>
  <anchor x="1103" y="1500" name="top"/>
  <outline>
    <contour>
      <point x="2028" y="1500" type="line"/>
      <point x="1982" y="1500" type="line"/>
      <point x="1500" y="47" type="line"/>
      <point x="1519" y="47" type="line"/>
      <point x="1037" y="1500" type="line"/>
      <point x="986" y="1500" type="line"/>
      <point x="1486" y="0" type="line"/>
      <point x="1528" y="0" type="line"/>
    </contour>
    <contour>
      <point x="1120" y="1187" type="line"/>
      <point x="1096" y="1252" type="line"/>
      <point x="696" y="47" type="line"/>
      <point x="715" y="47" type="line"/>
      <point x="233" y="1500" type="line"/>
      <point x="182" y="1500" type="line"/>
      <point x="682" y="0" type="line"/>
      <point x="724" y="0" type="line"/>
    </contour>
  </outline>
</glyph>
<glyph name="X" format="2">
  <advance width="1677"/>
  <unicode hex="0058"/>
  <anchor x="839" y="0" name="bottom"/>
  <anchor x="839" y="1500" name="top"/>
  <outline>
    <contour>
      <point x="203" y="1500" type="line"/>
      <point x="829" y="738" type="line"/>
      <point x="850" y="738" type="line"/>
      <point x="1476" y="1500" type="line"/>
      <point x="1419" y="1500" type="line"/>
      <point x="825" y="777" type="line"/>
      <point x="859" y="777" type="line"/>
      <point x="265" y="1500" type="line"/>
    </contour>
    <contour>
      <point x="1501" y="0" type="line"/>
      <point x="849" y="794" type="line"/>
      <point x="828" y="794" type="line"/>
      <point x="176" y="0" type="line"/>
      <point x="233" y="0" type="line"/>
      <point x="853" y="755" type="line"/>
      <point x="819" y="755" type="line"/>
      <point x="1439" y="0" type="line"/>
    </contour>
  </outline>
</glyph>
<glyph name="Y" format="2">
  <advance width="1612"/>
  <unicode hex="0059"/>
  <anchor x="806" y="0" name="bottom"/>
  <anchor x="806" y="1500" name="top"/>
  <anchor x="20" y="1500" name="topleft"/>
  <outline>
    <contour>
      <point x="830" y="0" type="line"/>
      <point x="830" y="630" type="line"/>
      <point x="782" y="630" type="line"/>
      <point x="782" y="0" type="line"/>
    </contour>
    <contour>
      <point x="1483" y="1500" type="line"/>
      <point x="1429" y="1500" type="line"/>
      <point x="802" y="633" type="line"/>
      <point x="818" y="633" type="line"/>
      <point x="188" y="1500" type="line"/>
      <point x="129" y="1500" type="line"/>
      <point x="785" y="597" type="line"/>
      <point x="827" y="597" type="line"/>
    </contour>
  </outline>
</glyph>
<glyph name="Z" format="2">
  <advance width="1502"/>
  <unicode hex="005A"/>
  <anchor x="751" y="0" name="bottom"/>
  <anchor x="751" y="750" name="center"/>
  <anchor x="751" y="1500" name="top"/>
  <outline>
    <contour>
      <point x="176" y="1500" type="line"/>
      <point x="176" y="1456" type="line"/>
      <point x="1295" y="1456" type="line"/>
      <point x="1360" y="1460" type="line"/>
      <point x="1360" y="1500" type="line"/>
    </contour>
    <contour>
      <point x="132" y="40" type="line"/>
      <point x="132" y="0" type="line"/>
      <point x="1352" y="0" type="line"/>
      <point x="1352" y="44" type="line"/>
      <point x="197" y="44" type="line"/>
    </contour>
    <contour>
      <point x="132" y="40" type="line"/>
      <point x="197" y="44" type="line"/>
      <point x="1360" y="1460" type="line"/>
      <point x="1295" y="1456" type="line"/>
    </contour>
    <contour>
      <point x="346" y="1456" type="curve"/>
      <point x="176" y="1456" type="line"/>
      <point x="176" y="1020" type="line"/>
      <point x="220" y="1020" type="line"/>
      <point x="220" y="1326" type="line" smooth="yes"/>
      <point x="220" y="1430"/>
      <point x="246" y="1456"/>
    </contour>
    <contour>
      <point x="1182" y="44" type="curve"/>
      <point x="1352" y="44" type="line"/>
      <point x="1352" y="500" type="line"/>
      <point x="1308" y="500" type="line"/>
      <point x="1308" y="174" type="line" smooth="yes"/>
      <point x="1308" y="70"/>
      <point x="1282" y="44"/>
    </contour>
  </outline>
</glyph>
<glyph name="bracketleft" format="2">
  <advance width="754"/>
  <unicode hex="005B"/>
  <outline>
    <contour>
      <point x="304" y="-420" type="line"/>
      <point x="304" y="1560" type="line"/>
      <point x="256" y="1560" type="line"/>
      <point x="256" y="-420" type="line"/>
    </contour>
    <contour>
      <point x="674" y="1560" type="line"/>
      <point x="256" y="1560" type="line"/>
      <point x="256" y="1516" type="line"/>
      <point x="674" y="1516" type="line"/>
    </contour>
    <contour>
      <point x="674" y="-376" type="line"/>
      <point x="256" y="-376" type="line"/>
      <point x="256" y="-420" type="line"/>
      <point x="674" y="-420" type="line"/>
    </contour>
  </outline>
</glyph>
<glyph name="underscore" format="2">
  <advance width="1450"/>
  <unicode hex="005F"/>
  <outline>
    <contour>
      <point x="160" y="-120" type="line"/>
      <point x="160" y="-162" type="line"/>
      <point x="1290" y="-162" type="line"/>
      <point x="1290" y="-120" type="line"/>
    </contour>
  </outline>
</glyph>
<glyph name="a" format="2">
  <advance width="1402"/>
  <unicode hex="0061"/>
  <anchor x="694" y="0" name="bottom"/>
  <anchor x="1293" y="0" name="ogonek"/>
  <anchor x="618" y="1100" name="top"/>
  <outline>
    <contour>
      <point x="501" y="529" type="curve" smooth="yes"/>
      <point x="677" y="565" type="line" smooth="yes"/>
      <point x="823" y="595"/>
      <point x="907" y="627"/>
      <point x="946" y="706" type="curve"/>
      <point x="956" y="706" type="line"/>
      <point x="946" y="840" type="line"/>
      <point x="946" y="684"/>
      <point x="832" y="642"/>
      <point x="668" y="608" type="curve" smooth="yes"/>
      <point x="484" y="570" type="line" smooth="yes"/>
      <point x="286" y="529"/>
      <point x="140" y="451"/>
      <point x="140" y="257" type="curve" smooth="yes"/>
      <point x="140" y="85"/>
      <point x="287" y="-16"/>
      <point x="499" y="-16" type="curve" smooth="yes"/>
      <point x="776" y="-16"/>
      <point x="987" y="143"/>
      <point x="985" y="546" type="curve"/>
      <point x="946" y="546" type="line"/>
      <point x="946" y="169"/>
      <point x="745" y="28"/>
      <point x="505" y="28" type="curve" smooth="yes"/>
      <point x="322" y="28"/>
      <point x="188" y="110"/>
      <point x="188" y="257" type="curve" smooth="yes"/>
      <point x="188" y="436"/>
      <point x="328" y="494"/>
    </contour>
    <contour>
      <point x="946" y="848" type="line"/>
      <point x="946" y="779" type="line"/>
      <point x="936" y="706" type="line"/>
      <point x="946" y="706" type="line"/>
      <point x="946" y="330" type="line"/>
      <point x="950" y="330" type="line"/>
      <point x="950" y="198" type="line" smooth="yes"/>
      <point x="950" y="62"/>
      <point x="1023" y="-16"/>
      <point x="1141" y="-16" type="curve" smooth="yes"/>
      <point x="1259" y="-16"/>
      <point x="1330" y="62"/>
      <point x="1330" y="198" type="curve" smooth="yes"/>
      <point x="1330" y="580" type="line"/>
      <point x="1286" y="580" type="line"/>
      <point x="1286" y="198" type="line" smooth="yes"/>
      <point x="1286" y="95"/>
      <point x="1238" y="24"/>
      <point x="1141" y="24" type="curve" smooth="yes"/>
      <point x="1043" y="24"/>
      <point x="994" y="95"/>
      <point x="994" y="198" type="curve" smooth="yes"/>
      <point x="994" y="830" type="line"/>
    </contour>
    <contour>
      <point x="205" y="852" type="curve" smooth="yes"/>
      <point x="205" y="787"/>
      <point x="240" y="750"/>
      <point x="284" y="750" type="curve" smooth="yes"/>
      <point x="319" y="750"/>
      <point x="340" y="771"/>
      <point x="340" y="805" type="curve" smooth="yes"/>
      <point x="340" y="849"/>
      <point x="288" y="874"/>
      <point x="237" y="867" type="curve"/>
      <point x="254" y="854" type="line"/>
      <point x="247" y="1006"/>
      <point x="429" y="1072"/>
      <point x="623" y="1072" type="curve" smooth="yes"/>
      <point x="846" y="1072"/>
      <point x="946" y="984"/>
      <point x="946" y="848" type="curve"/>
      <point x="994" y="830" type="line"/>
      <point x="994" y="1024"/>
      <point x="859" y="1116"/>
      <point x="625" y="1116" type="curve" smooth="yes"/>
      <point x="406" y="1116"/>
      <point x="205" y="1030"/>
    </contour>
  </outline>
</glyph>
<glyph name="b" format="2">
  <advance width="1428"/>
  <unicode hex="0062"/>
  <anchor x="713" y="0" name="bottom"/>
  <anchor x="713" y="1560" name="top"/>
  <outline>
    <contour>
      <point x="270" y="0" type="line"/>
      <point x="314" y="0" type="line"/>
      <point x="314" y="334" type="line"/>
      <point x="288" y="550" type="line"/>
      <point x="318" y="746" type="line"/>
      <point x="318" y="1560" type="line"/>
      <point x="270" y="1560" type="line"/>
    </contour>
    <contour>
      <point x="784" y="1116" type="curve" smooth="yes"/>
      <point x="467" y="1116"/>
      <point x="274" y="902"/>
      <point x="274" y="551" type="curve"/>
      <point x="274" y="549" type="line"/>
      <point x="274" y="198"/>
      <point x="467" y="-16"/>
      <point x="784" y="-16" type="curve" smooth="yes"/>
      <point x="1081" y="-16"/>
      <point x="1294" y="198"/>
      <point x="1294" y="550" type="curve" smooth="yes"/>
      <point x="1294" y="902"/>
      <point x="1081" y="1116"/>
    </contour>
    <contour>
      <point x="784" y="1072" type="curve" smooth="yes"/>
      <point x="1055" y="1072"/>
      <point x="1246" y="877"/>
      <point x="1246" y="550" type="curve" smooth="yes"/>
      <point x="1246" y="223"/>
      <point x="1055" y="28"/>
      <point x="784" y="28" type="curve" smooth="yes"/>
      <point x="509" y="28"/>
      <point x="314" y="223"/>
      <point x="314" y="550" type="curve" smooth="yes"/>
      <point x="314" y="877"/>
      <point x="509" y="1072"/>
    </contour>
  </outline>
</glyph>
<glyph name="c" format="2">
  <advance width="1250"/>
  <unicode hex="0063"/>
  <anchor x="621" y="0" name="bottom"/>
  <anchor x="677" y="1100" name="top"/>
  <outline>
    <contour>
      <point x="1124" y="361" type="curve"/>
      <point x="1080" y="361" type="line"/>
      <point x="1069" y="236"/>
      <point x="945" y="28"/>
      <point x="666" y="28" type="curve" smooth="yes"/>
      <point x="379" y="28"/>
      <point x="184" y="224"/>
      <point x="184" y="550" type="curve" smooth="yes"/>
      <point x="184" y="876"/>
      <point x="385" y="1072"/>
      <point x="678" y="1072" type="curve"/>
      <point x="678" y="1116" type="line"/>
      <point x="359" y="1116"/>
      <point x="134" y="910"/>
      <point x="134" y="550" type="curve" smooth="yes"/>
      <point x="134" y="190"/>
      <point x="354" y="-16"/>
      <point x="666" y="-16" type="curve" smooth="yes"/>
      <point x="977" y="-16"/>
      <point x="1112" y="212"/>
    </contour>
    <contour>
      <point x="678" y="1116" type="curve"/>
      <point x="678" y="1072" type="line"/>
      <point x="948" y="1072"/>
      <point x="1062" y="918"/>
      <point x="1058" y="792" type="curve"/>
      <point x="1075" y="803" type="line"/>
      <point x="1029" y="809"/>
      <point x="982" y="790"/>
      <point x="982" y="743" type="curve" smooth="yes"/>
      <point x="982" y="711"/>
      <point x="1003" y="691"/>
      <point x="1036" y="691" type="curve" smooth="yes"/>
      <point x="1080" y="691"/>
      <point x="1106" y="730"/>
      <point x="1106" y="795" type="curve" smooth="yes"/>
      <point x="1106" y="943"/>
      <point x="968" y="1116"/>
    </contour>
  </outline>
</glyph>
<glyph name="d" format="2">
  <advance width="1432"/>
  <unicode hex="0064"/>
  <anchor x="720" y="0" name="bottom"/>
  <anchor x="720" y="550" name="center"/>
  <anchor x="720" y="1560" name="top"/>
  <anchor x="1158" y="1560" name="topright"/>
  <outline>
    <contour>
      <point x="1158" y="0" type="line"/>
      <point x="1158" y="1560" type="line"/>
      <point x="1110" y="1560" type="line"/>
      <point x="1110" y="746" type="line"/>
      <point x="1140" y="550" type="line"/>
      <point x="1114" y="334" type="line"/>
      <point x="1114" y="0" type="line"/>
    </contour>
    <contour>
      <point x="644" y="1116" type="curve" smooth="yes"/>
      <point x="347" y="1116"/>
      <point x="134" y="902"/>
      <point x="134" y="550" type="curve" smooth="yes"/>
      <point x="134" y="198"/>
      <point x="347" y="-16"/>
      <point x="644" y="-16" type="curve" smooth="yes"/>
      <point x="961" y="-16"/>
      <point x="1154" y="198"/>
      <point x="1154" y="549" type="curve"/>
      <point x="1154" y="551" type="line"/>
      <point x="1154" y="902"/>
      <point x="961" y="1116"/>
    </contour>
    <contour>
      <point x="644" y="1072" type="curve" smooth="yes"/>
      <point x="919" y="1072"/>
      <point x="1114" y="877"/>
      <point x="1114" y="550" type="curve" smooth="yes"/>
      <point x="1114" y="223"/>
      <point x="919" y="28"/>
      <point x="644" y="28" type="curve" smooth="yes"/>
      <point x="373" y="28"/>
      <point x="182" y="223"/>
      <point x="182" y="550" type="curve" smooth="yes"/>
      <point x="182" y="877"/>
      <point x="373" y="1072"/>
    </contour>
  </outline>
</glyph>
<glyph name="e" format="2">
  <advance width="1262"/>
  <unicode hex="0065"/>
  <anchor x="631" y="0" name="bottom"/>
  <anchor x="896" y="0" name="ogonek"/>
  <anchor x="631" y="1100" name="top"/>
  <outline>
    <contour>
      <point x="1110" y="324" type="curve"/>
      <point x="1065" y="324" type="line"/>
      <point x="1037" y="208"/>
      <point x="929" y="28"/>
      <point x="638" y="28" type="curve" smooth="yes"/>
      <point x="359" y="28"/>
      <point x="184" y="223"/>
      <point x="184" y="550" type="curve" smooth="yes"/>
      <point x="184" y="876"/>
      <point x="364" y="1072"/>
      <point x="648" y="1072" type="curve"/>
      <point x="648" y="1116" type="line"/>
      <point x="340" y="1116"/>
      <point x="134" y="910"/>
      <point x="134" y="550" type="curve" smooth="yes"/>
      <point x="134" y="190"/>
      <point x="335" y="-16"/>
      <point x="638" y="-16" type="curve" smooth="yes"/>
      <point x="956" y="-16"/>
      <point x="1083" y="185"/>
    </contour>
    <contour>
      <point x="1084" y="636" type="curve"/>
      <point x="1128" y="612" type="line"/>
      <point x="1128" y="908"/>
      <point x="958" y="1116"/>
      <point x="648" y="1116" type="curve"/>
      <point x="648" y="1072" type="line"/>
      <point x="936" y="1072"/>
      <point x="1072" y="878"/>
    </contour>
    <contour>
      <point x="168" y="636" type="line"/>
      <point x="168" y="592" type="line"/>
      <point x="1128" y="592" type="line"/>
      <point x="1128" y="612" type="line"/>
      <point x="1084" y="636" type="line"/>
    </contour>
  </outline>
</glyph>
<glyph name="f" format="2">
  <advance width="942"/>
  <unicode hex="0066"/>
  <anchor x="471" y="0" name="bottom"/>
  <anchor x="471" y="1560" name="top"/>
  <outline>
    <contour>
      <point x="92" y="1100" type="line"/>
      <point x="92" y="1056" type="line"/>
      <point x="820" y="1056" type="line"/>
      <point x="820" y="1100" type="line"/>
    </contour>
    <contour>
      <point x="392" y="1162" type="line"/>
      <point x="392" y="0" type="line"/>
      <point x="440" y="0" type="line"/>
      <point x="440" y="1166" type="line"/>
    </contour>
    <contour>
      <point x="742" y="1576" type="line"/>
      <point x="517" y="1576"/>
      <point x="392" y="1435"/>
      <point x="392" y="1162" type="curve"/>
      <point x="440" y="1166" type="line"/>
      <point x="440" y="1412"/>
      <point x="547" y="1532"/>
      <point x="742" y="1532" type="curve"/>
    </contour>
    <contour>
      <point x="742" y="1576" type="curve"/>
      <point x="742" y="1532" type="line"/>
      <point x="866" y="1532"/>
      <point x="949" y="1476"/>
      <point x="944" y="1374" type="curve"/>
      <point x="963" y="1389" type="line"/>
      <point x="906" y="1395"/>
      <point x="864" y="1374"/>
      <point x="864" y="1328" type="curve" smooth="yes"/>
      <point x="864" y="1296"/>
      <point x="888" y="1275"/>
      <point x="920" y="1275" type="curve" smooth="yes"/>
      <point x="964" y="1275"/>
      <point x="994" y="1312"/>
      <point x="994" y="1369" type="curve" smooth="yes"/>
      <point x="994" y="1505"/>
      <point x="884" y="1576"/>
    </contour>
  </outline>
</glyph>
<glyph name="g" format="2">
  <advance width="1304"/>
  <unicode hex="0067"/>
  <anchor x="652" y="-440" name="bottom"/>
  <anchor x="652" y="1100" name="top"/>
  <outline>
    <contour>
      <point x="646" y="368" type="curve" smooth="yes"/>
      <point x="884" y="368"/>
      <point x="1052" y="514"/>
      <point x="1052" y="738" type="curve" smooth="yes"/>
      <point x="1052" y="916"/>
      <point x="942" y="1022"/>
      <point x="836" y="1066" type="curve"/>
      <point x="658" y="1108" type="line"/>
      <point x="408" y="1108"/>
      <point x="240" y="962"/>
      <point x="240" y="738" type="curve" smooth="yes"/>
      <point x="240" y="514"/>
      <point x="408" y="368"/>
    </contour>
    <contour>
      <point x="646" y="412" type="curve" smooth="yes"/>
      <point x="438" y="412"/>
      <point x="288" y="540"/>
      <point x="288" y="738" type="curve" smooth="yes"/>
      <point x="288" y="936"/>
      <point x="438" y="1064"/>
      <point x="646" y="1064" type="curve" smooth="yes"/>
      <point x="854" y="1064"/>
      <point x="1004" y="936"/>
      <point x="1004" y="738" type="curve" smooth="yes"/>
      <point x="1004" y="540"/>
      <point x="854" y="412"/>
    </contour>
    <contour>
      <point x="658" y="1108" type="line"/>
      <point x="836" y="1066" type="line"/>
      <point x="1206" y="1066" type="line"/>
      <point x="1206" y="1108" type="line"/>
    </contour>
    <contour>
      <point x="358" y="516" type="line"/>
      <point x="245" y="512"/>
      <point x="130" y="438"/>
      <point x="130" y="296" type="curve" smooth="yes"/>
      <point x="130" y="165"/>
      <point x="232" y="76"/>
      <point x="386" y="76" type="curve" smooth="yes"/>
      <point x="940" y="76" type="line" smooth="yes"/>
      <point x="1082" y="76"/>
      <point x="1142" y="11"/>
      <point x="1142" y="-110" type="curve" smooth="yes"/>
      <point x="1142" y="-232"/>
      <point x="1059" y="-356"/>
      <point x="826" y="-356" type="curve" smooth="yes"/>
      <point x="538" y="-356" type="line" smooth="yes"/>
      <point x="333" y="-356"/>
      <point x="244" y="-271"/>
      <point x="244" y="-134" type="curve" smooth="yes"/>
      <point x="244" y="-13"/>
      <point x="351" y="55"/>
      <point x="412" y="80" type="curve"/>
      <point x="396" y="112" type="line"/>
      <point x="305" y="78"/>
      <point x="196" y="-2"/>
      <point x="196" y="-134" type="curve" smooth="yes"/>
      <point x="196" y="-300"/>
      <point x="306" y="-400"/>
      <point x="538" y="-400" type="curve" smooth="yes"/>
      <point x="826" y="-400" type="line" smooth="yes"/>
      <point x="1089" y="-400"/>
      <point x="1190" y="-252"/>
      <point x="1190" y="-108" type="curve" smooth="yes"/>
      <point x="1190" y="35"/>
      <point x="1110" y="120"/>
      <point x="942" y="120" type="curve" smooth="yes"/>
      <point x="390" y="120" type="line" smooth="yes"/>
      <point x="262" y="120"/>
      <point x="178" y="194"/>
      <point x="178" y="296" type="curve" smooth="yes"/>
      <point x="178" y="410"/>
      <point x="256" y="467"/>
      <point x="362" y="478" type="curve"/>
    </contour>
  </outline>
</glyph>
<glyph name="h" format="2">
  <advance width="1386"/>
  <unicode hex="0068"/>
  <anchor x="691" y="0" name="bottom"/>
  <anchor x="691" y="780" name="center"/>
  <anchor x="296" y="1560" name="top"/>
  <outline>
    <contour>
      <point x="292" y="1560" type="line"/>
      <point x="292" y="0" type="line"/>
      <point x="340" y="0" type="line"/>
      <point x="340" y="1560" type="line"/>
    </contour>
    <contour>
      <point x="304" y="552" type="curve"/>
      <point x="340" y="552" type="line"/>
      <point x="340" y="911"/>
      <point x="546" y="1072"/>
      <point x="766" y="1072" type="curve" smooth="yes"/>
      <point x="958" y="1072"/>
      <point x="1078" y="981"/>
      <point x="1078" y="764" type="curve" smooth="yes"/>
      <point x="1078" y="0" type="line"/>
      <point x="1126" y="0" type="line"/>
      <point x="1126" y="764" type="line" smooth="yes"/>
      <point x="1126" y="1018"/>
      <point x="978" y="1116"/>
      <point x="768" y="1116" type="curve" smooth="yes"/>
      <point x="528" y="1116"/>
      <point x="304" y="954"/>
    </contour>
  </outline>
</glyph>
<glyph name="l" format="2">
  <advance width="614"/>
  <unicode hex="006C"/>
  <anchor x="307" y="0" name="bottom"/>
  <anchor x="316" y="1100" name="center"/>
  <anchor x="296" y="1560" name="top"/>
  <anchor x="340" y="1560" name="topright"/>
  <outline>
    <contour>
      <point x="292" y="1560" type="line"/>
      <point x="292" y="0" type="line"/>
      <point x="340" y="0" type="line"/>
      <point x="340" y="1560" type="line"/>
    </contour>
  </outline>
</glyph>
<glyph name="m" format="2">
  <advance width="1876"/>
  <unicode hex="006D"/>
  <anchor x="936" y="0" name="bottom"/>
  <anchor x="936" y="1100" name="top"/>
  <outline>
    <contour>
      <point x="316" y="1100" type="line"/>
      <point x="316" y="0" type="line"/>
      <point x="364" y="0" type="line"/>
      <point x="364" y="734" type="line"/>
      <point x="360" y="734" type="line"/>
      <point x="360" y="1100" type="line"/>
    </contour>
    <contour>
      <point x="328" y="674" type="curve"/>
      <point x="364" y="674" type="line"/>
      <point x="364" y="949"/>
      <point x="523" y="1072"/>
      <point x="690" y="1072" type="curve" smooth="yes"/>
      <point x="849" y="1072"/>
      <point x="942" y="995"/>
      <point x="942" y="812" type="curve" smooth="yes"/>
      <point x="942" y="0" type="line"/>
      <point x="990" y="0" type="line"/>
      <point x="990" y="812" type="line" smooth="yes"/>
      <point x="990" y="1031"/>
      <point x="870" y="1116"/>
      <point x="692" y="1116" type="curve" smooth="yes"/>
      <point x="499" y="1116"/>
      <point x="328" y="982"/>
    </contour>
    <contour>
      <point x="954" y="674" type="curve"/>
      <point x="990" y="674" type="line"/>
      <point x="990" y="949"/>
      <point x="1149" y="1072"/>
      <point x="1316" y="1072" type="curve" smooth="yes"/>
      <point x="1475" y="1072"/>
      <point x="1568" y="995"/>
      <point x="1568" y="812" type="curve" smooth="yes"/>
      <point x="1568" y="0" type="line"/>
      <point x="1616" y="0" type="line"/>
      <point x="1616" y="812" type="line" smooth="yes"/>
      <point x="1616" y="1031"/>
      <point x="1498" y="1116"/>
      <point x="1318" y="1116" type="curve" smooth="yes"/>
      <point x="1125" y="1116"/>
      <point x="954" y="982"/>
    </contour>
  </outline>
</glyph>
<glyph name="n" format="2">
  <advance width="1410"/>
  <unicode hex="006E"/>
  <anchor x="703" y="0" name="bottom"/>
  <anchor x="705" y="1100" name="top"/>
  <outline>
    <contour>
      <point x="316" y="1100" type="line"/>
      <point x="316" y="0" type="line"/>
      <point x="364" y="0" type="line"/>
      <point x="364" y="710" type="line"/>
      <point x="360" y="710" type="line"/>
      <point x="360" y="1100" type="line"/>
    </contour>
    <contour>
      <point x="328" y="552" type="curve"/>
      <point x="364" y="552" type="line"/>
      <point x="364" y="911"/>
      <point x="570" y="1072"/>
      <point x="790" y="1072" type="curve" smooth="yes"/>
      <point x="982" y="1072"/>
      <point x="1102" y="981"/>
      <point x="1102" y="764" type="curve" smooth="yes"/>
      <point x="1102" y="0" type="line"/>
      <point x="1150" y="0" type="line"/>
      <point x="1150" y="764" type="line" smooth="yes"/>
      <point x="1150" y="1018"/>
      <point x="1002" y="1116"/>
      <point x="792" y="1116" type="curve" smooth="yes"/>
      <point x="550" y="1116"/>
      <point x="328" y="954"/>
    </contour>
  </outline>
</glyph>
<glyph name="o" format="2">
  <advance width="1336"/>
  <unicode hex="006F"/>
  <anchor x="668" y="0" name="bottom"/>
  <anchor x="921" y="0" name="ogonek"/>
  <anchor x="668" y="1100" name="top"/>
  <anchor x="1086" y="940" name="topright"/>
  <outline>
    <contour>
      <point x="668" y="-16" type="curve" smooth="yes"/>
      <point x="982" y="-16"/>
      <point x="1202" y="190"/>
      <point x="1202" y="550" type="curve" smooth="yes"/>
      <point x="1202" y="910"/>
      <point x="982" y="1116"/>
      <point x="668" y="1116" type="curve" smooth="yes"/>
      <point x="354" y="1116"/>
      <point x="134" y="910"/>
      <point x="134" y="550" type="curve" smooth="yes"/>
      <point x="134" y="190"/>
      <point x="354" y="-16"/>
    </contour>
    <contour>
      <point x="668" y="28" type="curve" smooth="yes"/>
      <point x="380" y="28"/>
      <point x="182" y="224"/>
      <point x="182" y="550" type="curve" smooth="yes"/>
      <point x="182" y="876"/>
      <point x="380" y="1072"/>
      <point x="668" y="1072" type="curve" smooth="yes"/>
      <point x="956" y="1072"/>
      <point x="1154" y="876"/>
      <point x="1154" y="550" type="curve" smooth="yes"/>
      <point x="1154" y="224"/>
      <point x="956" y="28"/>
    </contour>
  </outline>
</glyph>
<glyph name="q" format="2">
  <advance width="1397"/>
  <unicode hex="0071"/>
  <anchor x="700" y="0" name="bottom"/>
  <anchor x="700" y="1100" name="top"/>
  <outline>
    <contour>
      <point x="1110" y="-420" type="line"/>
      <point x="1158" y="-420" type="line"/>
      <point x="1158" y="1100" type="line"/>
      <point x="1114" y="1100" type="line"/>
      <point x="1114" y="750" type="line"/>
      <point x="1140" y="550" type="line"/>
      <point x="1110" y="334" type="line"/>
    </contour>
    <contour>
      <point x="644" y="-16" type="curve" smooth="yes"/>
      <point x="961" y="-16"/>
      <point x="1154" y="198"/>
      <point x="1154" y="549" type="curve"/>
      <point x="1154" y="551" type="line"/>
      <point x="1154" y="902"/>
      <point x="961" y="1116"/>
      <point x="644" y="1116" type="curve" smooth="yes"/>
      <point x="347" y="1116"/>
      <point x="134" y="902"/>
      <point x="134" y="550" type="curve" smooth="yes"/>
      <point x="134" y="198"/>
      <point x="347" y="-16"/>
    </contour>
    <contour>
      <point x="644" y="28" type="curve" smooth="yes"/>
      <point x="373" y="28"/>
      <point x="182" y="223"/>
      <point x="182" y="550" type="curve" smooth="yes"/>
      <point x="182" y="877"/>
      <point x="373" y="1072"/>
      <point x="644" y="1072" type="curve" smooth="yes"/>
      <point x="919" y="1072"/>
      <point x="1114" y="877"/>
      <point x="1114" y="550" type="curve" smooth="yes"/>
      <point x="1114" y="223"/>
      <point x="919" y="28"/>
    </contour>
  </outline>
</glyph>
<glyph name="r" format="2">
  <advance width="1121"/>
  <unicode hex="0072"/>
  <anchor x="386" y="0" name="bottom"/>
  <anchor x="558" y="1100" name="top"/>
  <outline>
    <contour>
      <point x="316" y="1100" type="line"/>
      <point x="316" y="0" type="line"/>
      <point x="364" y="0" type="line"/>
      <point x="364" y="740" type="line"/>
      <point x="356" y="740" type="line"/>
      <point x="356" y="1100" type="line"/>
    </contour>
    <contour>
      <point x="725" y="1122" type="curve" smooth="yes"/>
      <point x="474" y="1122"/>
      <point x="330" y="949"/>
      <point x="330" y="652" type="curve"/>
      <point x="364" y="652" type="line"/>
      <point x="364" y="925"/>
      <point x="508" y="1078"/>
      <point x="725" y="1078" type="curve" smooth="yes"/>
      <point x="882" y="1078"/>
      <point x="968" y="1008"/>
      <point x="964" y="879" type="curve"/>
      <point x="983" y="895" type="line"/>
      <point x="926" y="901"/>
      <point x="883" y="880"/>
      <point x="883" y="834" type="curve" smooth="yes"/>
      <point x="883" y="802"/>
      <point x="907" y="781"/>
      <point x="939" y="781" type="curve" smooth="yes"/>
      <point x="983" y="781"/>
      <point x="1013" y="818"/>
      <point x="1013" y="875" type="curve" smooth="yes"/>
      <point x="1013" y="1043"/>
      <point x="897" y="1122"/>
    </contour>
  </outline>
</glyph>
<glyph name="s" format="2">
  <advance width="1230"/>
  <unicode hex="0073"/>
  <anchor x="645" y="0" name="bottom"/>
  <anchor x="597" y="1100" name="top"/>
  <outline>
    <contour>
      <point x="190" y="844" type="curve" smooth="yes"/>
      <point x="190" y="658"/>
      <point x="346" y="594"/>
      <point x="531" y="556" type="curve" smooth="yes"/>
      <point x="697" y="522" type="line" smooth="yes"/>
      <point x="846" y="491"/>
      <point x="1004" y="436"/>
      <point x="1004" y="272" type="curve" smooth="yes"/>
      <point x="1004" y="119"/>
      <point x="881" y="28"/>
      <point x="678" y="28" type="curve" smooth="yes"/>
      <point x="485" y="28"/>
      <point x="308" y="115"/>
      <point x="234" y="360" type="curve"/>
      <point x="198" y="360" type="line"/>
      <point x="263" y="86"/>
      <point x="461" y="-16"/>
      <point x="682" y="-16" type="curve" smooth="yes"/>
      <point x="905" y="-16"/>
      <point x="1052" y="92"/>
      <point x="1052" y="272" type="curve" smooth="yes"/>
      <point x="1052" y="472"/>
      <point x="860" y="533"/>
      <point x="705" y="565" type="curve" smooth="yes"/>
      <point x="541" y="599" type="line" smooth="yes"/>
      <point x="372" y="634"/>
      <point x="238" y="684"/>
      <point x="238" y="844" type="curve" smooth="yes"/>
      <point x="238" y="991"/>
      <point x="360" y="1072"/>
      <point x="543" y="1072" type="curve" smooth="yes"/>
      <point x="715" y="1072"/>
      <point x="903" y="986"/>
      <point x="963" y="750" type="curve"/>
      <point x="999" y="750" type="line"/>
      <point x="946" y="1013"/>
      <point x="752" y="1116"/>
      <point x="543" y="1116" type="curve" smooth="yes"/>
      <point x="331" y="1116"/>
      <point x="190" y="1014"/>
    </contour>
    <contour>
      <point x="1007" y="1100" type="line"/>
      <point x="963" y="1100" type="line"/>
      <point x="963" y="786" type="line"/>
      <point x="999" y="750" type="line"/>
      <point x="1007" y="750" type="line"/>
    </contour>
    <contour>
      <point x="190" y="0" type="line"/>
      <point x="234" y="0" type="line"/>
      <point x="234" y="324" type="line"/>
      <point x="198" y="360" type="line"/>
      <point x="190" y="360" type="line"/>
    </contour>
  </outline>
</glyph>
<glyph name="t" format="2">
  <advance width="1092"/>
  <unicode hex="0074"/>
  <anchor x="619" y="0" name="bottom"/>
  <anchor x="547" y="550" name="center"/>
  <anchor x="547" y="1100" name="top"/>
  <anchor x="434" y="1600" name="topright"/>
  <outline>
    <contour>
      <point x="352" y="1400" type="line"/>
      <point x="352" y="1264" type="line" smooth="yes"/>
      <point x="352" y="1142"/>
      <point x="310" y="1100"/>
      <point x="192" y="1100" type="curve" smooth="yes"/>
      <point x="26" y="1100" type="line"/>
      <point x="26" y="1056" type="line"/>
      <point x="346" y="1056" type="line"/>
      <point x="346" y="342" type="line" smooth="yes"/>
      <point x="346" y="103"/>
      <point x="451" y="-20"/>
      <point x="648" y="-20" type="curve" smooth="yes"/>
      <point x="845" y="-20"/>
      <point x="950" y="106"/>
      <point x="950" y="342" type="curve" smooth="yes"/>
      <point x="950" y="600" type="line"/>
      <point x="906" y="600" type="line"/>
      <point x="906" y="342" type="line" smooth="yes"/>
      <point x="906" y="135"/>
      <point x="822" y="24"/>
      <point x="650" y="24" type="curve" smooth="yes"/>
      <point x="478" y="24"/>
      <point x="394" y="135"/>
      <point x="394" y="342" type="curve" smooth="yes"/>
      <point x="394" y="1400" type="line"/>
    </contour>
    <contour>
      <point x="394" y="1100" type="line"/>
      <point x="394" y="1056" type="line"/>
      <point x="1010" y="1056" type="line"/>
      <point x="1010" y="1100" type="line"/>
    </contour>
  </outline>
</glyph>
<glyph name="u" format="2">
  <advance width="1370"/>
  <unicode hex="0075"/>
  <anchor x="686" y="0" name="bottom"/>
  <anchor x="1194" y="0" name="ogonek"/>
  <anchor x="650" y="1100" name="top"/>
  <anchor x="1096" y="1100" name="topright"/>
  <outline>
    <contour>
      <point x="1096" y="0" type="line"/>
      <point x="1096" y="1100" type="line"/>
      <point x="1048" y="1100" type="line"/>
      <point x="1048" y="390" type="line"/>
      <point x="1056" y="390" type="line"/>
      <point x="1056" y="0" type="line"/>
    </contour>
    <contour>
      <point x="1083" y="548" type="curve"/>
      <point x="1048" y="548" type="line"/>
      <point x="1048" y="189"/>
      <point x="841" y="28"/>
      <point x="620" y="28" type="curve" smooth="yes"/>
      <point x="427" y="28"/>
      <point x="306" y="119"/>
      <point x="306" y="336" type="curve" smooth="yes"/>
      <point x="306" y="1102" type="line"/>
      <point x="258" y="1102" type="line"/>
      <point x="258" y="336" type="line" smooth="yes"/>
      <point x="258" y="82"/>
      <point x="407" y="-16"/>
      <point x="618" y="-16" type="curve" smooth="yes"/>
      <point x="861" y="-16"/>
      <point x="1083" y="146"/>
    </contour>
  </outline>
</glyph>
<glyph name="v" format="2">
  <advance width="1238"/>
  <unicode hex="0076"/>
  <anchor x="619" y="0" name="bottom"/>
  <anchor x="619" y="1100" name="top"/>
  <outline>
    <contour>
      <point x="152" y="1100" type="line"/>
      <point x="598" y="0" type="line"/>
      <point x="640" y="0" type="line"/>
      <point x="1086" y="1100" type="line"/>
      <point x="1039" y="1100" type="line"/>
      <point x="613" y="45" type="line"/>
      <point x="629" y="45" type="line"/>
      <point x="204" y="1100" type="line"/>
    </contour>
  </outline>
</glyph>
<glyph name="w" format="2">
  <advance width="1712"/>
  <unicode hex="0077"/>
  <anchor x="856" y="0" name="bottom"/>
  <anchor x="856" y="1100" name="top"/>
  <outline>
    <contour>
      <point x="770" y="1100" type="line"/>
      <point x="1142" y="0" type="line"/>
      <point x="1186" y="0" type="line"/>
      <point x="1558" y="1100" type="line"/>
      <point x="1511" y="1100" type="line"/>
      <point x="1158" y="49" type="line"/>
      <point x="1174" y="49" type="line"/>
      <point x="821" y="1100" type="line"/>
    </contour>
    <contour>
      <point x="154" y="1100" type="line"/>
      <point x="526" y="0" type="line"/>
      <point x="570" y="0" type="line"/>
      <point x="872" y="894" type="line"/>
      <point x="850" y="965" type="line"/>
      <point x="542" y="49" type="line"/>
      <point x="558" y="49" type="line"/>
      <point x="205" y="1100" type="line"/>
    </contour>
  </outline>
</glyph>
<glyph name="x" format="2">
  <advance width="1334"/>
  <unicode hex="0078"/>
  <anchor x="667" y="0" name="bottom"/>
  <anchor x="667" y="1100" name="top"/>
  <outline>
    <contour>
      <point x="203" y="1100" type="line"/>
      <point x="647" y="542" type="line"/>
      <point x="680" y="542" type="line"/>
      <point x="1125" y="1100" type="line"/>
      <point x="1069" y="1100" type="line"/>
      <point x="647" y="567" type="line"/>
      <point x="686" y="567" type="line"/>
      <point x="264" y="1100" type="line"/>
    </contour>
    <contour>
      <point x="1145" y="0" type="line"/>
      <point x="686" y="578" type="line"/>
      <point x="649" y="578" type="line"/>
      <point x="189" y="0" type="line"/>
      <point x="245" y="0" type="line"/>
      <point x="682" y="553" type="line"/>
      <point x="647" y="553" type="line"/>
      <point x="1084" y="0" type="line"/>
    </contour>
  </outline>
</glyph>
<glyph name="y" format="2">
  <advance width="1248"/>
  <unicode hex="0079"/>
  <anchor x="829" y="0" name="bottom"/>
  <anchor x="626" y="1100" name="top"/>
  <outline>
    <contour>
      <point x="152" y="1100" type="line"/>
      <point x="614" y="-39" type="line"/>
      <point x="629" y="45" type="line"/>
      <point x="204" y="1100" type="line"/>
    </contour>
    <contour>
      <point x="1096" y="1100" type="line"/>
      <point x="1049" y="1100" type="line"/>
      <point x="623" y="45" type="line"/>
      <point x="613" y="24" type="line"/>
      <point x="546" y="-144" type="line" smooth="yes"/>
      <point x="491" y="-281"/>
      <point x="428" y="-380"/>
      <point x="292" y="-380" type="curve"/>
      <point x="292" y="-420" type="line"/>
      <point x="447" y="-420"/>
      <point x="519" y="-323"/>
      <point x="587" y="-156" type="curve" smooth="yes"/>
    </contour>
    <contour>
      <point x="292" y="-420" type="curve"/>
      <point x="292" y="-380" type="line"/>
      <point x="183" y="-380"/>
      <point x="117" y="-322"/>
      <point x="119" y="-226" type="curve"/>
      <point x="100" y="-241" type="line"/>
      <point x="155" y="-246"/>
      <point x="200" y="-228"/>
      <point x="200" y="-181" type="curve" smooth="yes"/>
      <point x="200" y="-149"/>
      <point x="178" y="-129"/>
      <point x="146" y="-129" type="curve" smooth="yes"/>
      <point x="103" y="-129"/>
      <point x="70" y="-164"/>
      <point x="70" y="-221" type="curve" smooth="yes"/>
      <point x="70" y="-354"/>
      <point x="163" y="-420"/>
    </contour>
  </outline>
</glyph>
<glyph name="z" format="2">
  <advance width="1254"/>
  <unicode hex="007A"/>
  <anchor x="621" y="0" name="bottom"/>
  <anchor x="621" y="550" name="center"/>
  <anchor x="640" y="1100" name="top"/>
  <outline>
    <contour>
      <point x="226" y="1100" type="line"/>
      <point x="226" y="1056" type="line"/>
      <point x="1000" y="1056" type="line"/>
      <point x="1066" y="1062" type="line"/>
      <point x="1066" y="1100" type="line"/>
    </contour>
    <contour>
      <point x="172" y="38" type="line"/>
      <point x="172" y="0" type="line"/>
      <point x="1064" y="0" type="line"/>
      <point x="1064" y="44" type="line"/>
      <point x="238" y="44" type="line"/>
    </contour>
    <contour>
      <point x="172" y="38" type="line"/>
      <point x="238" y="44" type="line"/>
      <point x="1066" y="1062" type="line"/>
      <point x="1000" y="1056" type="line"/>
    </contour>
    <contour>
      <point x="401" y="1056" type="curve"/>
      <point x="226" y="1056" type="line"/>
      <point x="226" y="790" type="line"/>
      <point x="269" y="790" type="line"/>
      <point x="269" y="916" type="line" smooth="yes"/>
      <point x="269" y="1028"/>
      <point x="289" y="1056"/>
    </contour>
    <contour>
      <point x="889" y="44" type="curve"/>
      <point x="1064" y="44" type="line"/>
      <point x="1064" y="320" type="line"/>
      <point x="1021" y="320" type="line"/>
      <point x="1021" y="184" type="line" smooth="yes"/>
      <point x="1021" y="72"/>
      <point x="1001" y="44"/>
    </contour>
  </outline>
</glyph>
<glyph name="braceleft" format="2">
  <advance width="923"/>
  <unicode hex="007B"/>
  <outline>
    <contour>
      <point x="843" y="1560" type="line"/>
      <point x="818" y="1560" type="line" smooth="yes"/>
      <point x="562" y="1560"/>
      <point x="411" y="1445"/>
      <point x="434" y="1117" type="curve" smooth="yes"/>
      <point x="452" y="857" type="line" smooth="yes"/>
      <point x="464" y="678"/>
      <point x="363" y="592"/>
      <point x="120" y="592" type="curve"/>
      <point x="120" y="570" type="line"/>
      <point x="240" y="570" type="line"/>
      <point x="399" y="579"/>
      <point x="512" y="663"/>
      <point x="498" y="872" type="curve" smooth="yes"/>
      <point x="482" y="1119" type="line" smooth="yes"/>
      <point x="463" y="1416"/>
      <point x="583" y="1516"/>
      <point x="843" y="1516" type="curve"/>
    </contour>
    <contour>
      <point x="843" y="-420" type="line"/>
      <point x="843" y="-376" type="line"/>
      <point x="583" y="-376"/>
      <point x="463" y="-276"/>
      <point x="482" y="21" type="curve" smooth="yes"/>
      <point x="498" y="268" type="line" smooth="yes"/>
      <point x="512" y="477"/>
      <point x="399" y="561"/>
      <point x="240" y="570" type="curve"/>
      <point x="120" y="570" type="line"/>
      <point x="120" y="548" type="line"/>
      <point x="363" y="548"/>
      <point x="464" y="462"/>
      <point x="452" y="283" type="curve" smooth="yes"/>
      <point x="434" y="23" type="line" smooth="yes"/>
      <point x="411" y="-305"/>
      <point x="562" y="-420"/>
      <point x="818" y="-420" type="curve" smooth="yes"/>
    </contour>
  </outline>
</glyph>
<glyph name="bar" format="2">
  <advance width="416"/>
  <unicode hex="007C"/>
  <outline>
    <contour>
      <point x="186" y="1560" type="line"/>
      <point x="186" y="-440" type="line"/>
      <point x="230" y="-440" type="line"/>
      <point x="230" y="1560" type="line"/>
    </contour>
  </outline>
</glyph>
<glyph name="cent" format="2">
  <advance width="1250"/>
  <unicode hex="00A2"/>
  <outline>
    <contour>
      <point x="1124" y="563" type="curve"/>
      <point x="1080" y="563" type="line"/>
      <point x="1069" y="438"/>
      <point x="945" y="230"/>
      <point x="666" y="230" type="curve" smooth="yes"/>
      <point x="379" y="230"/>
      <point x="184" y="426"/>
      <point x="184" y="752" type="curve" smooth="yes"/>
      <point x="184" y="1078"/>
      <point x="385" y="1274"/>
      <point x="678" y="1274" type="curve"/>
      <point x="678" y="1318" type="line"/>
      <point x="359" y="1318"/>
      <point x="134" y="1112"/>
      <point x="134" y="752" type="curve" smooth="yes"/>
      <point x="134" y="392"/>
      <point x="354" y="186"/>
      <point x="666" y="186" type="curve" smooth="yes"/>
      <point x="977" y="186"/>
      <point x="1112" y="414"/>
    </contour>
    <contour>
      <point x="678" y="1318" type="curve"/>
      <point x="678" y="1274" type="line"/>
      <point x="948" y="1274"/>
      <point x="1062" y="1120"/>
      <point x="1058" y="994" type="curve"/>
      <point x="1075" y="1005" type="line"/>
      <point x="1029" y="1011"/>
      <point x="982" y="992"/>
      <point x="982" y="945" type="curve" smooth="yes"/>
      <point x="982" y="913"/>
      <point x="1003" y="893"/>
      <point x="1036" y="893" type="curve" smooth="yes"/>
      <point x="1080" y="893"/>
      <point x="1106" y="932"/>
      <point x="1106" y="997" type="curve" smooth="yes"/>
      <point x="1106" y="1145"/>
      <point x="968" y="1318"/>
    </contour>
    <contour>
      <point x="634" y="1500" type="line"/>
      <point x="634" y="0" type="line"/>
      <point x="682" y="0" type="line"/>
      <point x="682" y="1500" type="line"/>
    </contour>
  </outline>
</glyph>
<glyph name="yen" format="2">
  <advance width="1612"/>
  <unicode hex="00A5"/>
  <outline>
    <contour>
      <point x="242" y="490" type="line"/>
      <point x="242" y="446" type="line"/>
      <point x="1370" y="446" type="line"/>
      <point x="1370" y="490" type="line"/>
    </contour>
    <contour>
      <point x="929" y="760" type="line"/>
      <point x="1370" y="760" type="line"/>
      <point x="1370" y="804" type="line"/>
      <point x="950" y="804" type="line"/>
    </contour>
    <contour>
      <point x="669" y="804" type="line"/>
      <point x="242" y="804" type="line"/>
      <point x="242" y="760" type="line"/>
      <point x="694" y="760" type="line"/>
    </contour>
    <component base="Y"/>
  </outline>
</glyph>
<glyph name="brokenbar" format="2">
  <advance width="416"/>
  <unicode hex="00A6"/>
  <outline>
    <contour>
      <point x="186" y="1560" type="line"/>
      <point x="186" y="780" type="line"/>
      <point x="230" y="780" type="line"/>
      <point x="230" y="1560" type="line"/>
    </contour>
    <contour>
      <point x="186" y="340" type="line"/>
      <point x="186" y="-440" type="line"/>
      <point x="230" y="-440" type="line"/>
      <point x="230" y="340" type="line"/>
    </contour>
  </outline>
</glyph>
<glyph name="degree" format="2">
  <advance width="898"/>
  <unicode hex="00B0"/>
  <outline>
    <contour>
      <point x="444" y="866" type="curve" smooth="yes"/>
      <point x="642" y="866"/>
      <point x="780" y="990"/>
      <point x="780" y="1192" type="curve" smooth="yes"/>
      <point x="780" y="1394"/>
      <point x="642" y="1518"/>
      <point x="444" y="1518" type="curve" smooth="yes"/>
      <point x="251" y="1518"/>
      <point x="118" y="1394"/>
      <point x="118" y="1192" type="curve" smooth="yes"/>
      <point x="118" y="990"/>
      <point x="251" y="866"/>
    </contour>
    <contour>
      <point x="444" y="904" type="curve" smooth="yes"/>
      <point x="277" y="904"/>
      <point x="164" y="1017"/>
      <point x="164" y="1192" type="curve" smooth="yes"/>
      <point x="164" y="1367"/>
      <point x="277" y="1480"/>
      <point x="444" y="1480" type="curve" smooth="yes"/>
      <point x="616" y="1480"/>
      <point x="734" y="1367"/>
      <point x="734" y="1192" type="curve" smooth="yes"/>
      <point x="734" y="1017"/>
      <point x="616" y="904"/>
    </contour>
  </outline>
</glyph>
<glyph name="periodcentered" format="2">
  <advance width="278"/>
  <unicode hex="00B7"/>
  <outline>
    <contour>
      <point x="139" y="529" type="curve" smooth="yes"/>
      <point x="175" y="529"/>
      <point x="198" y="555"/>
      <point x="198" y="591" type="curve" smooth="yes"/>
      <point x="198" y="627"/>
      <point x="175" y="653"/>
      <point x="139" y="653" type="curve" smooth="yes"/>
      <point x="103" y="653"/>
      <point x="80" y="627"/>
      <point x="80" y="591" type="curve" smooth="yes"/>
      <point x="80" y="555"/>
      <point x="103" y="529"/>
    </contour>
  </outline>
</glyph>
<glyph name="guillemetright" format="2">
  <advance width="988"/>
  <unicode hex="00BB"/>
  <outline>
    <contour>
      <point x="144" y="970" type="line"/>
      <point x="198" y="970" type="line"/>
      <point x="486" y="580" type="line"/>
      <point x="198" y="190" type="line"/>
      <point x="144" y="190" type="line"/>
      <point x="426" y="580" type="line"/>
    </contour>
    <contour>
      <point x="514" y="970" type="line"/>
      <point x="568" y="970" type="line"/>
      <point x="856" y="580" type="line"/>
      <point x="568" y="190" type="line"/>
      <point x="514" y="190" type="line"/>
      <point x="796" y="580" type="line"/>
    </contour>
  </outline>
</glyph>
<glyph name="AE" format="2">
  <advance width="2408"/>
  <unicode hex="00C6"/>
  <anchor x="1266" y="1500" name="top"/>
  <outline>
    <contour>
      <point x="180" y="0" type="line"/>
      <point x="233" y="0" type="line"/>
      <point x="1249" y="1500" type="line"/>
      <point x="1198" y="1500" type="line"/>
    </contour>
    <contour>
      <point x="1218" y="516" type="line"/>
      <point x="1218" y="560" type="line"/>
      <point x="571" y="560" type="line"/>
      <point x="571" y="516" type="line"/>
    </contour>
    <contour>
      <point x="2270" y="0" type="line"/>
      <point x="2270" y="44" type="line"/>
      <point x="1266" y="44" type="line"/>
      <point x="1266" y="0" type="line"/>
    </contour>
    <contour>
      <point x="2252" y="1456" type="line"/>
      <point x="2252" y="1500" type="line"/>
      <point x="1266" y="1500" type="line"/>
      <point x="1266" y="1456" type="line"/>
    </contour>
    <contour>
      <point x="1266" y="0" type="line"/>
      <point x="1266" y="1500" type="line"/>
      <point x="1218" y="1500" type="line"/>
      <point x="1218" y="0" type="line"/>
    </contour>
    <contour>
      <point x="1816" y="770" type="line"/>
      <point x="1816" y="814" type="line"/>
      <point x="1266" y="814" type="line"/>
      <point x="1266" y="770" type="line"/>
    </contour>
    <contour>
      <point x="2082" y="1456" type="line"/>
      <point x="2182" y="1456"/>
      <point x="2208" y="1430"/>
      <point x="2208" y="1326" type="curve" smooth="yes"/>
      <point x="2208" y="1000" type="line"/>
      <point x="2252" y="1000" type="line"/>
      <point x="2252" y="1456" type="line"/>
    </contour>
    <contour>
      <point x="2100" y="44" type="curve"/>
      <point x="2270" y="44" type="line"/>
      <point x="2270" y="520" type="line"/>
      <point x="2226" y="520" type="line"/>
      <point x="2226" y="174" type="line" smooth="yes"/>
      <point x="2226" y="70"/>
      <point x="2200" y="44"/>
    </contour>
    <contour>
      <point x="1656" y="814" type="curve"/>
      <point x="1816" y="814" type="line"/>
      <point x="1816" y="1146" type="line"/>
      <point x="1774" y="1146" type="line"/>
      <point x="1774" y="936" type="line" smooth="yes"/>
      <point x="1774" y="838"/>
      <point x="1750" y="814"/>
    </contour>
    <contour>
      <point x="1656" y="770" type="line"/>
      <point x="1750" y="770"/>
      <point x="1774" y="746"/>
      <point x="1774" y="648" type="curve" smooth="yes"/>
      <point x="1774" y="364" type="line"/>
      <point x="1816" y="364" type="line"/>
      <point x="1816" y="770" type="line"/>
    </contour>
  </outline>
</glyph>
<glyph name="Thorn" format="2">
  <advance width="1507"/>
  <unicode hex="00DE"/>
  <outline>
    <contour>
      <point x="375" y="1500" type="line"/>
      <point x="327" y="1500" type="line"/>
      <point x="327" y="0" type="line"/>
      <point x="375" y="0" type="line"/>
    </contour>
    <contour>
      <point x="375" y="1192" type="line"/>
      <point x="375" y="1148" type="line"/>
      <point x="915" y="1148" type="line" smooth="yes"/>
      <point x="1193" y="1148"/>
      <point x="1369" y="1022"/>
      <point x="1369" y="773" type="curve" smooth="yes"/>
      <point x="1369" y="524"/>
      <point x="1193" y="398"/>
      <point x="915" y="398" type="curve" smooth="yes"/>
      <point x="375" y="398" type="line"/>
      <point x="375" y="354" type="line"/>
      <point x="927" y="354" type="line" smooth="yes"/>
      <point x="1221" y="354"/>
      <point x="1417" y="495"/>
      <point x="1417" y="773" type="curve" smooth="yes"/>
      <point x="1417" y="1051"/>
      <point x="1221" y="1192"/>
      <point x="927" y="1192" type="curve" smooth="yes"/>
    </contour>
  </outline>
</glyph>
<glyph name="ae" format="2">
  <advance width="2024"/>
  <unicode hex="00E6"/>
  <anchor x="996" y="1100" name="top"/>
  <outline>
    <contour>
      <point x="1872" y="324" type="curve"/>
      <point x="1827" y="324" type="line"/>
      <point x="1801" y="208"/>
      <point x="1701" y="28"/>
      <point x="1432" y="28" type="curve" smooth="yes"/>
      <point x="1162" y="28"/>
      <point x="994" y="223"/>
      <point x="994" y="550" type="curve" smooth="yes"/>
      <point x="994" y="876"/>
      <point x="1164" y="1072"/>
      <point x="1434" y="1072" type="curve"/>
      <point x="1434" y="1116" type="line"/>
      <point x="1140" y="1116"/>
      <point x="950" y="910"/>
      <point x="950" y="550" type="curve" smooth="yes"/>
      <point x="950" y="190"/>
      <point x="1138" y="-16"/>
      <point x="1432" y="-16" type="curve" smooth="yes"/>
      <point x="1729" y="-16"/>
      <point x="1846" y="185"/>
    </contour>
    <contour>
      <point x="1846" y="636" type="curve"/>
      <point x="1890" y="612" type="line"/>
      <point x="1890" y="908"/>
      <point x="1728" y="1116"/>
      <point x="1434" y="1116" type="curve"/>
      <point x="1434" y="1072" type="line"/>
      <point x="1706" y="1072"/>
      <point x="1834" y="878"/>
    </contour>
    <contour>
      <point x="978" y="636" type="line"/>
      <point x="978" y="592" type="line"/>
      <point x="1890" y="592" type="line"/>
      <point x="1890" y="612" type="line"/>
      <point x="1846" y="636" type="line"/>
    </contour>
    <contour>
      <point x="501" y="529" type="curve" smooth="yes"/>
      <point x="677" y="565" type="line" smooth="yes"/>
      <point x="823" y="595"/>
      <point x="907" y="627"/>
      <point x="946" y="706" type="curve"/>
      <point x="956" y="706" type="line"/>
      <point x="946" y="840" type="line"/>
      <point x="946" y="684"/>
      <point x="832" y="642"/>
      <point x="668" y="608" type="curve" smooth="yes"/>
      <point x="484" y="570" type="line" smooth="yes"/>
      <point x="286" y="529"/>
      <point x="140" y="451"/>
      <point x="140" y="257" type="curve" smooth="yes"/>
      <point x="140" y="85"/>
      <point x="288" y="-16"/>
      <point x="501" y="-16" type="curve" smooth="yes"/>
      <point x="779" y="-16"/>
      <point x="980" y="144"/>
      <point x="983" y="516" type="curve"/>
      <point x="946" y="546" type="line"/>
      <point x="946" y="169"/>
      <point x="745" y="28"/>
      <point x="505" y="28" type="curve" smooth="yes"/>
      <point x="322" y="28"/>
      <point x="188" y="110"/>
      <point x="188" y="257" type="curve" smooth="yes"/>
      <point x="188" y="436"/>
      <point x="328" y="494"/>
    </contour>
    <contour>
      <point x="946" y="848" type="line"/>
      <point x="946" y="777" type="line"/>
      <point x="936" y="706" type="line"/>
      <point x="946" y="706" type="line"/>
      <point x="946" y="439" type="line"/>
      <point x="964" y="442" type="line"/>
      <point x="992" y="442" type="line"/>
      <point x="992" y="832" type="line"/>
    </contour>
    <contour>
      <point x="193" y="852" type="curve" smooth="yes"/>
      <point x="193" y="787"/>
      <point x="228" y="750"/>
      <point x="272" y="750" type="curve" smooth="yes"/>
      <point x="307" y="750"/>
      <point x="328" y="771"/>
      <point x="328" y="805" type="curve" smooth="yes"/>
      <point x="328" y="849"/>
      <point x="276" y="874"/>
      <point x="225" y="867" type="curve"/>
      <point x="242" y="854" type="line"/>
      <point x="239" y="1000"/>
      <point x="412" y="1074"/>
      <point x="607" y="1074" type="curve" smooth="yes"/>
      <point x="832" y="1074"/>
      <point x="946" y="984"/>
      <point x="946" y="848" type="curve"/>
      <point x="992" y="832" type="line"/>
      <point x="992" y="1031"/>
      <point x="839" y="1116"/>
      <point x="609" y="1116" type="curve" smooth="yes"/>
      <point x="393" y="1116"/>
      <point x="193" y="1030"/>
    </contour>
  </outline>
</glyph>
<glyph name="eth" format="2">
  <advance width="1300"/>
  <unicode hex="00F0"/>
  <outline>
    <contour>
      <point x="1152" y="550" type="line"/>
      <point x="1152" y="932"/>
      <point x="947" y="1116"/>
      <point x="650" y="1116" type="curve" smooth="yes"/>
      <point x="346" y="1116"/>
      <point x="134" y="910"/>
      <point x="134" y="550" type="curve" smooth="yes"/>
      <point x="134" y="190"/>
      <point x="346" y="-16"/>
      <point x="650" y="-16" type="curve" smooth="yes"/>
      <point x="954" y="-16"/>
      <point x="1166" y="190"/>
      <point x="1166" y="570" type="curve" smooth="yes"/>
      <point x="1166" y="1024"/>
      <point x="954" y="1371"/>
      <point x="540" y="1606" type="curve"/>
      <point x="516" y="1570" type="line"/>
      <point x="861" y="1375"/>
      <point x="1124" y="1065"/>
      <point x="1124" y="550" type="curve"/>
      <point x="1118" y="550" type="line"/>
      <point x="1118" y="221"/>
      <point x="928" y="22"/>
      <point x="650" y="22" type="curve" smooth="yes"/>
      <point x="372" y="22"/>
      <point x="182" y="221"/>
      <point x="182" y="550" type="curve" smooth="yes"/>
      <point x="182" y="879"/>
      <point x="372" y="1078"/>
      <point x="650" y="1078" type="curve" smooth="yes"/>
      <point x="928" y="1078"/>
      <point x="1118" y="879"/>
      <point x="1118" y="550" type="curve"/>
    </contour>
    <contour>
      <point x="1158" y="1407" type="line"/>
      <point x="1158" y="1448" type="line"/>
      <point x="460" y="1289" type="line"/>
      <point x="460" y="1248" type="line"/>
    </contour>
  </outline>
</glyph>
<glyph name="thorn" format="2">
  <advance width="1450"/>
  <unicode hex="00FE"/>
  <outline>
    <contour>
      <point x="340" y="-420" type="line"/>
      <point x="340" y="334" type="line"/>
      <point x="310" y="550" type="line"/>
      <point x="340" y="746" type="line"/>
      <point x="340" y="1560" type="line"/>
      <point x="292" y="1560" type="line"/>
      <point x="292" y="-420" type="line"/>
    </contour>
    <contour>
      <point x="806" y="-16" type="curve" smooth="yes"/>
      <point x="1103" y="-16"/>
      <point x="1316" y="198"/>
      <point x="1316" y="550" type="curve" smooth="yes"/>
      <point x="1316" y="902"/>
      <point x="1103" y="1116"/>
      <point x="806" y="1116" type="curve" smooth="yes"/>
      <point x="489" y="1116"/>
      <point x="296" y="902"/>
      <point x="296" y="551" type="curve"/>
      <point x="296" y="549" type="line"/>
      <point x="296" y="198"/>
      <point x="489" y="-16"/>
    </contour>
    <contour>
      <point x="806" y="28" type="curve" smooth="yes"/>
      <point x="531" y="28"/>
      <point x="336" y="223"/>
      <point x="336" y="550" type="curve" smooth="yes"/>
      <point x="336" y="877"/>
      <point x="531" y="1072"/>
      <point x="806" y="1072" type="curve" smooth="yes"/>
      <point x="1077" y="1072"/>
      <point x="1268" y="877"/>
      <point x="1268" y="550" type="curve" smooth="yes"/>
      <point x="1268" y="223"/>
      <point x="1077" y="28"/>
    </contour>
  </outline>
</glyph>
<glyph name="dcroat" format="2">
  <advance width="1432"/>
  <unicode hex="0111"/>
  <anchor x="734" y="0" name="bottom"/>
  <outline>
    <contour>
      <point x="1158" y="0" type="line"/>
      <point x="1158" y="1560" type="line"/>
      <point x="1110" y="1560" type="line"/>
      <point x="1110" y="746" type="line"/>
      <point x="1140" y="550" type="line"/>
      <point x="1114" y="334" type="line"/>
      <point x="1114" y="0" type="line"/>
    </contour>
    <contour>
      <point x="644" y="1116" type="curve" smooth="yes"/>
      <point x="347" y="1116"/>
      <point x="134" y="902"/>
      <point x="134" y="550" type="curve" smooth="yes"/>
      <point x="134" y="198"/>
      <point x="347" y="-16"/>
      <point x="644" y="-16" type="curve" smooth="yes"/>
      <point x="961" y="-16"/>
      <point x="1154" y="198"/>
      <point x="1154" y="549" type="curve"/>
      <point x="1154" y="551" type="line"/>
      <point x="1154" y="902"/>
      <point x="961" y="1116"/>
    </contour>
    <contour>
      <point x="644" y="1072" type="curve" smooth="yes"/>
      <point x="919" y="1072"/>
      <point x="1114" y="877"/>
      <point x="1114" y="550" type="curve" smooth="yes"/>
      <point x="1114" y="223"/>
      <point x="919" y="28"/>
      <point x="644" y="28" type="curve" smooth="yes"/>
      <point x="373" y="28"/>
      <point x="182" y="223"/>
      <point x="182" y="550" type="curve" smooth="yes"/>
      <point x="182" y="877"/>
      <point x="373" y="1072"/>
    </contour>
    <contour>
      <point x="742" y="1356" type="line"/>
      <point x="742" y="1312" type="line"/>
      <point x="1352" y="1312" type="line"/>
      <point x="1352" y="1356" type="line"/>
    </contour>
  </outline>
</glyph>
<glyph name="hbar" format="2">
  <advance width="1386"/>
  <unicode hex="0127"/>
  <outline>
    <contour>
      <point x="292" y="1560" type="line"/>
      <point x="292" y="0" type="line"/>
      <point x="340" y="0" type="line"/>
      <point x="340" y="1560" type="line"/>
    </contour>
    <contour>
      <point x="304" y="552" type="curve"/>
      <point x="340" y="552" type="line"/>
      <point x="340" y="911"/>
      <point x="546" y="1072"/>
      <point x="766" y="1072" type="curve" smooth="yes"/>
      <point x="958" y="1072"/>
      <point x="1078" y="981"/>
      <point x="1078" y="764" type="curve" smooth="yes"/>
      <point x="1078" y="0" type="line"/>
      <point x="1126" y="0" type="line"/>
      <point x="1126" y="764" type="line" smooth="yes"/>
      <point x="1126" y="1018"/>
      <point x="978" y="1116"/>
      <point x="768" y="1116" type="curve" smooth="yes"/>
      <point x="528" y="1116"/>
      <point x="304" y="954"/>
    </contour>
    <contour>
      <point x="98" y="1356" type="line"/>
      <point x="98" y="1312" type="line"/>
      <point x="708" y="1312" type="line"/>
      <point x="708" y="1356" type="line"/>
    </contour>
  </outline>
</glyph>
<glyph name="kgreenlandic" format="2">
  <advance width="1394"/>
  <unicode hex="0138"/>
  <outline>
    <contour>
      <point x="316" y="1100" type="line"/>
      <point x="316" y="0" type="line"/>
      <point x="364" y="0" type="line"/>
      <point x="364" y="1100" type="line"/>
    </contour>
    <contour>
      <point x="1188" y="1100" type="line"/>
      <point x="1120" y="1100" type="line"/>
      <point x="330" y="432" type="line"/>
      <point x="355" y="398" type="line"/>
    </contour>
    <contour>
      <point x="1229" y="0" type="line"/>
      <point x="607" y="646" type="line"/>
      <point x="574" y="614" type="line"/>
      <point x="1162" y="0" type="line"/>
    </contour>
  </outline>
</glyph>
<glyph name="Eng" format="2">
  <advance width="1775"/>
  <unicode hex="014A"/>
  <outline>
    <contour>
      <point x="354" y="0" type="line"/>
      <point x="354" y="1426" type="line"/>
      <point x="358" y="1500" type="line"/>
      <point x="310" y="1500" type="line"/>
      <point x="310" y="0" type="line"/>
    </contour>
    <contour>
      <point x="1442" y="74" type="line"/>
      <point x="358" y="1500" type="line"/>
      <point x="354" y="1426" type="line"/>
      <point x="1465" y="-35" type="line"/>
    </contour>
    <contour>
      <point x="1486" y="-140" type="line"/>
      <point x="1486" y="1500" type="line"/>
      <point x="1442" y="1500" type="line"/>
      <point x="1442" y="74" type="line"/>
      <point x="1442" y="-140" type="line"/>
    </contour>
    <contour>
      <point x="1256" y="-420" type="line"/>
      <point x="1407" y="-420"/>
      <point x="1486" y="-324"/>
      <point x="1486" y="-140" type="curve"/>
      <point x="1442" y="-140" type="line"/>
      <point x="1442" y="-298"/>
      <point x="1375" y="-376"/>
      <point x="1256" y="-376" type="curve"/>
    </contour>
    <contour>
      <point x="1256" y="-420" type="curve"/>
      <point x="1256" y="-376" type="line"/>
      <point x="1149" y="-376"/>
      <point x="1085" y="-319"/>
      <point x="1087" y="-226" type="curve"/>
      <point x="1068" y="-241" type="line"/>
      <point x="1123" y="-246"/>
      <point x="1168" y="-228"/>
      <point x="1168" y="-181" type="curve" smooth="yes"/>
      <point x="1168" y="-149"/>
      <point x="1146" y="-129"/>
      <point x="1114" y="-129" type="curve" smooth="yes"/>
      <point x="1071" y="-129"/>
      <point x="1038" y="-164"/>
      <point x="1038" y="-221" type="curve" smooth="yes"/>
      <point x="1038" y="-354"/>
      <point x="1129" y="-420"/>
    </contour>
  </outline>
</glyph>
<glyph name="eng" format="2">
  <advance width="1392"/>
  <unicode hex="014B"/>
  <outline>
    <contour>
      <point x="316" y="1100" type="line"/>
      <point x="316" y="0" type="line"/>
      <point x="364" y="0" type="line"/>
      <point x="364" y="710" type="line"/>
      <point x="360" y="710" type="line"/>
      <point x="360" y="1100" type="line"/>
    </contour>
    <contour>
      <point x="328" y="552" type="curve"/>
      <point x="364" y="552" type="line"/>
      <point x="364" y="911"/>
      <point x="570" y="1072"/>
      <point x="790" y="1072" type="curve" smooth="yes"/>
      <point x="982" y="1072"/>
      <point x="1102" y="981"/>
      <point x="1102" y="764" type="curve" smooth="yes"/>
      <point x="1102" y="-140" type="line"/>
      <point x="1150" y="-136" type="line"/>
      <point x="1150" y="764" type="line" smooth="yes"/>
      <point x="1150" y="1018"/>
      <point x="1002" y="1116"/>
      <point x="792" y="1116" type="curve" smooth="yes"/>
      <point x="550" y="1116"/>
      <point x="328" y="954"/>
    </contour>
    <contour>
      <point x="916" y="-420" type="line"/>
      <point x="1070" y="-420"/>
      <point x="1150" y="-323"/>
      <point x="1150" y="-136" type="curve"/>
      <point x="1102" y="-140" type="line"/>
      <point x="1102" y="-298"/>
      <point x="1035" y="-376"/>
      <point x="916" y="-376" type="curve"/>
    </contour>
    <contour>
      <point x="916" y="-420" type="curve"/>
      <point x="916" y="-376" type="line"/>
      <point x="809" y="-376"/>
      <point x="745" y="-319"/>
      <point x="747" y="-226" type="curve"/>
      <point x="728" y="-241" type="line"/>
      <point x="783" y="-246"/>
      <point x="828" y="-228"/>
      <point x="828" y="-181" type="curve" smooth="yes"/>
      <point x="828" y="-149"/>
      <point x="806" y="-129"/>
      <point x="774" y="-129" type="curve" smooth="yes"/>
      <point x="731" y="-129"/>
      <point x="698" y="-164"/>
      <point x="698" y="-221" type="curve" smooth="yes"/>
      <point x="698" y="-354"/>
      <point x="789" y="-420"/>
    </contour>
  </outline>
</glyph>
<glyph name="OE" format="2">
  <advance width="2422"/>
  <unicode hex="0152"/>
  <outline>
    <contour>
      <point x="2284" y="0" type="line"/>
      <point x="2284" y="44" type="line"/>
      <point x="1280" y="44" type="line"/>
      <point x="1280" y="0" type="line"/>
    </contour>
    <contour>
      <point x="2266" y="1456" type="line"/>
      <point x="2266" y="1500" type="line"/>
      <point x="1280" y="1500" type="line"/>
      <point x="1280" y="1456" type="line"/>
    </contour>
    <contour>
      <point x="1280" y="0" type="line"/>
      <point x="1280" y="1500" type="line"/>
      <point x="1232" y="1500" type="line"/>
      <point x="1232" y="0" type="line"/>
    </contour>
    <contour>
      <point x="1830" y="770" type="line"/>
      <point x="1830" y="814" type="line"/>
      <point x="1280" y="814" type="line"/>
      <point x="1280" y="770" type="line"/>
    </contour>
    <contour>
      <point x="2096" y="1456" type="line"/>
      <point x="2196" y="1456"/>
      <point x="2222" y="1430"/>
      <point x="2222" y="1326" type="curve" smooth="yes"/>
      <point x="2222" y="1000" type="line"/>
      <point x="2266" y="1000" type="line"/>
      <point x="2266" y="1456" type="line"/>
    </contour>
    <contour>
      <point x="2114" y="44" type="curve"/>
      <point x="2284" y="44" type="line"/>
      <point x="2284" y="520" type="line"/>
      <point x="2240" y="520" type="line"/>
      <point x="2240" y="174" type="line" smooth="yes"/>
      <point x="2240" y="70"/>
      <point x="2214" y="44"/>
    </contour>
    <contour>
      <point x="1670" y="814" type="curve"/>
      <point x="1830" y="814" type="line"/>
      <point x="1830" y="1146" type="line"/>
      <point x="1788" y="1146" type="line"/>
      <point x="1788" y="936" type="line" smooth="yes"/>
      <point x="1788" y="838"/>
      <point x="1764" y="814"/>
    </contour>
    <contour>
      <point x="1670" y="770" type="line"/>
      <point x="1764" y="770"/>
      <point x="1788" y="746"/>
      <point x="1788" y="648" type="curve" smooth="yes"/>
      <point x="1788" y="364" type="line"/>
      <point x="1830" y="364" type="line"/>
      <point x="1830" y="770" type="line"/>
    </contour>
    <contour>
      <point x="1232" y="0" type="line"/>
      <point x="1232" y="44" type="line"/>
      <point x="924" y="44" type="line" smooth="yes"/>
      <point x="478" y="44"/>
      <point x="186" y="319"/>
      <point x="186" y="750" type="curve" smooth="yes"/>
      <point x="186" y="1181"/>
      <point x="478" y="1456"/>
      <point x="924" y="1456" type="curve" smooth="yes"/>
      <point x="1232" y="1456" type="line"/>
      <point x="1232" y="1500" type="line"/>
      <point x="924" y="1500" type="line" smooth="yes"/>
      <point x="450" y="1500"/>
      <point x="138" y="1225"/>
      <point x="138" y="750" type="curve" smooth="yes"/>
      <point x="138" y="275"/>
      <point x="450" y="0"/>
      <point x="924" y="0" type="curve" smooth="yes"/>
    </contour>
  </outline>
</glyph>
<glyph name="oe" format="2">
  <advance width="2160"/>
  <unicode hex="0153"/>
  <outline>
    <contour>
      <point x="2008" y="324" type="curve"/>
      <point x="1963" y="324" type="line"/>
      <point x="1937" y="208"/>
      <point x="1837" y="28"/>
      <point x="1568" y="28" type="curve" smooth="yes"/>
      <point x="1298" y="28"/>
      <point x="1130" y="223"/>
      <point x="1130" y="550" type="curve" smooth="yes"/>
      <point x="1130" y="876"/>
      <point x="1300" y="1072"/>
      <point x="1570" y="1072" type="curve"/>
      <point x="1570" y="1116" type="line"/>
      <point x="1276" y="1116"/>
      <point x="1086" y="910"/>
      <point x="1086" y="550" type="curve" smooth="yes"/>
      <point x="1086" y="190"/>
      <point x="1274" y="-16"/>
      <point x="1568" y="-16" type="curve" smooth="yes"/>
      <point x="1865" y="-16"/>
      <point x="1982" y="185"/>
    </contour>
    <contour>
      <point x="1982" y="636" type="curve"/>
      <point x="2026" y="612" type="line"/>
      <point x="2026" y="908"/>
      <point x="1864" y="1116"/>
      <point x="1570" y="1116" type="curve"/>
      <point x="1570" y="1072" type="line"/>
      <point x="1842" y="1072"/>
      <point x="1970" y="878"/>
    </contour>
    <contour>
      <point x="1114" y="636" type="line"/>
      <point x="1114" y="592" type="line"/>
      <point x="2026" y="592" type="line"/>
      <point x="2026" y="612" type="line"/>
      <point x="1982" y="636" type="line"/>
    </contour>
    <contour>
      <point x="632" y="-16" type="curve" smooth="yes"/>
      <point x="928" y="-16"/>
      <point x="1126" y="190"/>
      <point x="1126" y="550" type="curve" smooth="yes"/>
      <point x="1126" y="910"/>
      <point x="928" y="1116"/>
      <point x="632" y="1116" type="curve" smooth="yes"/>
      <point x="336" y="1116"/>
      <point x="134" y="910"/>
      <point x="134" y="550" type="curve" smooth="yes"/>
      <point x="134" y="190"/>
      <point x="336" y="-16"/>
    </contour>
    <contour>
      <point x="632" y="28" type="curve" smooth="yes"/>
      <point x="362" y="28"/>
      <point x="182" y="224"/>
      <point x="182" y="550" type="curve" smooth="yes"/>
      <point x="182" y="876"/>
      <point x="362" y="1072"/>
      <point x="632" y="1072" type="curve" smooth="yes"/>
      <point x="902" y="1072"/>
      <point x="1082" y="876"/>
      <point x="1082" y="550" type="curve" smooth="yes"/>
      <point x="1082" y="224"/>
      <point x="902" y="28"/>
    </contour>
  </outline>
</glyph>
<glyph name="tbar" format="2">
  <advance width="1192"/>
  <unicode hex="0167"/>
  <outline>
    <contour>
      <point x="410" y="1400" type="line"/>
      <point x="410" y="1264" type="line" smooth="yes"/>
      <point x="410" y="1142"/>
      <point x="368" y="1100"/>
      <point x="250" y="1100" type="curve" smooth="yes"/>
      <point x="84" y="1100" type="line"/>
      <point x="84" y="1056" type="line"/>
      <point x="404" y="1056" type="line"/>
      <point x="404" y="342" type="line" smooth="yes"/>
      <point x="404" y="103"/>
      <point x="509" y="-20"/>
      <point x="706" y="-20" type="curve" smooth="yes"/>
      <point x="903" y="-20"/>
      <point x="1008" y="106"/>
      <point x="1008" y="342" type="curve" smooth="yes"/>
      <point x="1008" y="400" type="line"/>
      <point x="964" y="400" type="line"/>
      <point x="964" y="342" type="line" smooth="yes"/>
      <point x="964" y="135"/>
      <point x="880" y="24"/>
      <point x="708" y="24" type="curve" smooth="yes"/>
      <point x="536" y="24"/>
      <point x="452" y="135"/>
      <point x="452" y="342" type="curve" smooth="yes"/>
      <point x="452" y="1400" type="line"/>
    </contour>
    <contour>
      <point x="452" y="1100" type="line"/>
      <point x="452" y="1056" type="line"/>
      <point x="1068" y="1056" type="line"/>
      <point x="1068" y="1100" type="line"/>
    </contour>
    <contour>
      <point x="84" y="696" type="line"/>
      <point x="84" y="656" type="line"/>
      <point x="1068" y="656" type="line"/>
      <point x="1068" y="696" type="line"/>
    </contour>
  </outline>
</glyph>
<glyph name="florin" format="2">
  <advance width="932"/>
  <unicode hex="0192"/>
  <outline>
    <contour>
      <point x="22" y="860" type="line"/>
      <point x="22" y="816" type="line"/>
      <point x="910" y="816" type="line"/>
      <point x="910" y="860" type="line"/>
    </contour>
    <contour>
      <point x="432" y="1162" type="line"/>
      <point x="432" y="-140" type="line"/>
      <point x="480" y="-136" type="line"/>
      <point x="480" y="1166" type="line"/>
    </contour>
    <contour>
      <point x="782" y="1576" type="line"/>
      <point x="557" y="1576"/>
      <point x="432" y="1435"/>
      <point x="432" y="1162" type="curve"/>
      <point x="480" y="1166" type="line"/>
      <point x="480" y="1412"/>
      <point x="587" y="1532"/>
      <point x="782" y="1532" type="curve"/>
    </contour>
    <contour>
      <point x="782" y="1576" type="curve"/>
      <point x="782" y="1532" type="line"/>
      <point x="906" y="1532"/>
      <point x="989" y="1476"/>
      <point x="984" y="1374" type="curve"/>
      <point x="1003" y="1389" type="line"/>
      <point x="946" y="1395"/>
      <point x="904" y="1374"/>
      <point x="904" y="1328" type="curve" smooth="yes"/>
      <point x="904" y="1296"/>
      <point x="928" y="1275"/>
      <point x="960" y="1275" type="curve" smooth="yes"/>
      <point x="1004" y="1275"/>
      <point x="1034" y="1312"/>
      <point x="1034" y="1369" type="curve" smooth="yes"/>
      <point x="1034" y="1505"/>
      <point x="924" y="1576"/>
    </contour>
    <contour>
      <point x="246" y="-420" type="line"/>
      <point x="400" y="-420"/>
      <point x="480" y="-323"/>
      <point x="480" y="-136" type="curve"/>
      <point x="432" y="-140" type="line"/>
      <point x="432" y="-298"/>
      <point x="365" y="-376"/>
      <point x="246" y="-376" type="curve"/>
    </contour>
    <contour>
      <point x="246" y="-420" type="curve"/>
      <point x="246" y="-376" type="line"/>
      <point x="139" y="-376"/>
      <point x="75" y="-319"/>
      <point x="77" y="-226" type="curve"/>
      <point x="58" y="-241" type="line"/>
      <point x="113" y="-246"/>
      <point x="158" y="-228"/>
      <point x="158" y="-181" type="curve" smooth="yes"/>
      <point x="158" y="-149"/>
      <point x="136" y="-129"/>
      <point x="104" y="-129" type="curve" smooth="yes"/>
      <point x="61" y="-129"/>
      <point x="28" y="-164"/>
      <point x="28" y="-221" type="curve" smooth="yes"/>
      <point x="28" y="-354"/>
      <point x="119" y="-420"/>
    </contour>
  </outline>
</glyph>
<glyph name="jdotless" format="2">
  <advance width="626"/>
  <unicode hex="0237"/>
  <anchor x="313" y="-440" name="bottom"/>
  <anchor x="352" y="1100" name="top"/>
  <outline>
    <contour>
      <point x="336" y="1100" type="line"/>
      <point x="336" y="-140" type="line"/>
      <point x="384" y="-136" type="line"/>
      <point x="384" y="1100" type="line"/>
    </contour>
    <contour>
      <point x="150" y="-420" type="line"/>
      <point x="304" y="-420"/>
      <point x="384" y="-323"/>
      <point x="384" y="-136" type="curve"/>
      <point x="336" y="-140" type="line"/>
      <point x="336" y="-298"/>
      <point x="269" y="-376"/>
      <point x="150" y="-376" type="curve"/>
    </contour>
    <contour>
      <point x="150" y="-420" type="curve"/>
      <point x="150" y="-376" type="line"/>
      <point x="43" y="-376"/>
      <point x="-21" y="-319"/>
      <point x="-19" y="-226" type="curve"/>
      <point x="-38" y="-241" type="line"/>
      <point x="17" y="-246"/>
      <point x="62" y="-228"/>
      <point x="62" y="-181" type="curve" smooth="yes"/>
      <point x="62" y="-149"/>
      <point x="40" y="-129"/>
      <point x="8" y="-129" type="curve" smooth="yes"/>
      <point x="-35" y="-129"/>
      <point x="-68" y="-164"/>
      <point x="-68" y="-221" type="curve" smooth="yes"/>
      <point x="-68" y="-354"/>
      <point x="23" y="-420"/>
    </contour>
  </outline>
</glyph>
<glyph name="gravecomb" format="2">
  <unicode hex="0300"/>
  <anchor x="327" y="1100" name="_top"/>
  <outline>
    <contour>
      <point x="384" y="1250" type="line"/>
      <point x="140" y="1560" type="line"/>
      <point x="80" y="1560" type="line"/>
      <point x="333" y="1250" type="line"/>
    </contour>
  </outline>
</glyph>
<glyph name="acutecomb" format="2">
  <unicode hex="0301"/>
  <anchor x="137" y="1100" name="_top"/>
  <outline>
    <contour>
      <point x="80" y="1250" type="line"/>
      <point x="131" y="1250" type="line"/>
      <point x="384" y="1560" type="line"/>
      <point x="324" y="1560" type="line"/>
    </contour>
  </outline>
</glyph>
<glyph name="circumflexcomb" format="2">
  <unicode hex="0302"/>
  <anchor x="346" y="1100" name="_top"/>
  <anchor x="642" y="1330" name="side"/>
  <anchor x="346" y="1540" name="top"/>
  <outline>
    <contour>
      <point x="612" y="1250" type="line"/>
      <point x="366" y="1560" type="line"/>
      <point x="326" y="1560" type="line"/>
      <point x="80" y="1250" type="line"/>
      <point x="130" y="1250" type="line"/>
      <point x="357" y="1533" type="line"/>
      <point x="332" y="1533" type="line"/>
      <point x="561" y="1250" type="line"/>
    </contour>
  </outline>
</glyph>
<glyph name="tildecomb" format="2">
  <unicode hex="0303"/>
  <anchor x="338" y="1100" name="_top"/>
  <anchor x="338" y="1424" name="top"/>
  <outline>
    <contour>
      <point x="80" y="1250" type="line"/>
      <point x="120" y="1250" type="line"/>
      <point x="120" y="1321" type="line" smooth="yes"/>
      <point x="120" y="1412"/>
      <point x="143" y="1452"/>
      <point x="200" y="1452" type="curve" smooth="yes"/>
      <point x="253" y="1452"/>
      <point x="280" y="1407"/>
      <point x="310" y="1367" type="curve" smooth="yes"/>
      <point x="331" y="1339" type="line"/>
      <point x="366" y="1363" type="line"/>
      <point x="345" y="1391" type="line" smooth="yes"/>
      <point x="311" y="1437"/>
      <point x="275" y="1492"/>
      <point x="200" y="1492" type="curve" smooth="yes"/>
      <point x="115" y="1492"/>
      <point x="80" y="1430"/>
      <point x="80" y="1325" type="curve" smooth="yes"/>
    </contour>
    <contour>
      <point x="596" y="1480" type="line"/>
      <point x="556" y="1480" type="line"/>
      <point x="556" y="1409" type="line" smooth="yes"/>
      <point x="556" y="1318"/>
      <point x="533" y="1278"/>
      <point x="476" y="1278" type="curve" smooth="yes"/>
      <point x="423" y="1278"/>
      <point x="396" y="1323"/>
      <point x="366" y="1363" type="curve" smooth="yes"/>
      <point x="345" y="1391" type="line"/>
      <point x="310" y="1367" type="line"/>
      <point x="331" y="1339" type="line" smooth="yes"/>
      <point x="365" y="1293"/>
      <point x="401" y="1238"/>
      <point x="476" y="1238" type="curve" smooth="yes"/>
      <point x="561" y="1238"/>
      <point x="596" y="1300"/>
      <point x="596" y="1405" type="curve" smooth="yes"/>
    </contour>
  </outline>
</glyph>
<glyph name="macroncomb" format="2">
  <unicode hex="0304"/>
  <anchor x="370" y="1100" name="_top"/>
  <outline>
    <contour>
      <point x="80" y="1342" type="line"/>
      <point x="80" y="1300" type="line"/>
      <point x="660" y="1300" type="line"/>
      <point x="660" y="1342" type="line"/>
    </contour>
  </outline>
</glyph>
<glyph name="brevecomb" format="2">
  <unicode hex="0306"/>
  <anchor x="340" y="1100" name="_top"/>
  <anchor x="340" y="1500" name="side"/>
  <anchor x="340" y="1540" name="top"/>
  <outline>
    <contour>
      <point x="80" y="1560" type="line"/>
      <point x="80" y="1374"/>
      <point x="158" y="1240"/>
      <point x="340" y="1240" type="curve" smooth="yes"/>
      <point x="522" y="1240"/>
      <point x="610" y="1374"/>
      <point x="610" y="1560" type="curve"/>
      <point x="570" y="1560" type="line"/>
      <point x="570" y="1406"/>
      <point x="494" y="1278"/>
      <point x="340" y="1278" type="curve" smooth="yes"/>
      <point x="186" y="1278"/>
      <point x="120" y="1406"/>
      <point x="120" y="1560" type="curve"/>
    </contour>
  </outline>
</glyph>
<glyph name="dieresiscomb" format="2">
  <unicode hex="0308"/>
  <anchor x="348" y="1100" name="_top"/>
  <anchor x="348" y="1434" name="top"/>
  <outline>
    <contour>
      <point x="139" y="1302" type="curve" smooth="yes"/>
      <point x="175" y="1302"/>
      <point x="198" y="1328"/>
      <point x="198" y="1364" type="curve" smooth="yes"/>
      <point x="198" y="1400"/>
      <point x="175" y="1426"/>
      <point x="139" y="1426" type="curve" smooth="yes"/>
      <point x="103" y="1426"/>
      <point x="80" y="1400"/>
      <point x="80" y="1364" type="curve" smooth="yes"/>
      <point x="80" y="1328"/>
      <point x="103" y="1302"/>
    </contour>
    <contour>
      <point x="557" y="1302" type="curve" smooth="yes"/>
      <point x="593" y="1302"/>
      <point x="616" y="1328"/>
      <point x="616" y="1364" type="curve" smooth="yes"/>
      <point x="616" y="1400"/>
      <point x="593" y="1426"/>
      <point x="557" y="1426" type="curve" smooth="yes"/>
      <point x="521" y="1426"/>
      <point x="498" y="1400"/>
      <point x="498" y="1364" type="curve" smooth="yes"/>
      <point x="498" y="1328"/>
      <point x="521" y="1302"/>
    </contour>
  </outline>
</glyph>
<glyph name="ringcomb" format="2">
  <unicode hex="030A"/>
  <anchor x="259" y="1100" name="_top"/>
  <anchor x="259" y="1552" name="top"/>
  <outline>
    <contour>
      <point x="259" y="1240" type="curve" smooth="yes"/>
      <point x="360" y="1240"/>
      <point x="438" y="1303"/>
      <point x="438" y="1413" type="curve" smooth="yes"/>
      <point x="438" y="1523"/>
      <point x="360" y="1586"/>
      <point x="259" y="1586" type="curve" smooth="yes"/>
      <point x="158" y="1586"/>
      <point x="80" y="1523"/>
      <point x="80" y="1413" type="curve" smooth="yes"/>
      <point x="80" y="1303"/>
      <point x="158" y="1240"/>
    </contour>
    <contour>
      <point x="259" y="1276" type="curve" smooth="yes"/>
      <point x="180" y="1276"/>
      <point x="124" y="1327"/>
      <point x="124" y="1413" type="curve" smooth="yes"/>
      <point x="124" y="1499"/>
      <point x="180" y="1550"/>
      <point x="259" y="1550" type="curve" smooth="yes"/>
      <point x="338" y="1550"/>
      <point x="394" y="1499"/>
      <point x="394" y="1413" type="curve" smooth="yes"/>
      <point x="394" y="1327"/>
      <point x="338" y="1276"/>
    </contour>
  </outline>
</glyph>
<glyph name="hungarumlautcomb" format="2">
  <unicode hex="030B"/>
  <anchor x="252" y="1100" name="_top"/>
  <outline>
    <contour>
      <point x="80" y="1250" type="line"/>
      <point x="130" y="1250" type="line"/>
      <point x="376" y="1560" type="line"/>
      <point x="317" y="1560" type="line"/>
    </contour>
    <contour>
      <point x="359" y="1250" type="line"/>
      <point x="410" y="1250" type="line"/>
      <point x="669" y="1560" type="line"/>
      <point x="609" y="1560" type="line"/>
    </contour>
  </outline>
</glyph>
<glyph name="breveinvertedcomb" format="2">
  <unicode hex="0311"/>
  <anchor x="340" y="1100" name="_top"/>
  <outline>
    <contour>
      <point x="80" y="1250" type="curve"/>
      <point x="120" y="1250" type="line"/>
      <point x="120" y="1404"/>
      <point x="186" y="1532"/>
      <point x="340" y="1532" type="curve" smooth="yes"/>
      <point x="494" y="1532"/>
      <point x="570" y="1404"/>
      <point x="570" y="1250" type="curve"/>
      <point x="610" y="1250" type="line"/>
      <point x="610" y="1436"/>
      <point x="522" y="1570"/>
      <point x="340" y="1570" type="curve" smooth="yes"/>
      <point x="158" y="1570"/>
      <point x="80" y="1436"/>
    </contour>
  </outline>
</glyph>
<glyph name="commaturnedabovecomb" format="2">
  <unicode hex="0312"/>
  <anchor x="140" y="1100" name="_top"/>
  <outline>
    <contour>
      <point x="190" y="1560" type="curve"/>
      <point x="147" y="1560" type="line"/>
      <point x="97" y="1496"/>
      <point x="80" y="1438"/>
      <point x="80" y="1383" type="curve" smooth="yes"/>
      <point x="80" y="1330"/>
      <point x="106" y="1302"/>
      <point x="142" y="1302" type="curve" smooth="yes"/>
      <point x="174" y="1302"/>
      <point x="200" y="1323"/>
      <point x="200" y="1361" type="curve" smooth="yes"/>
      <point x="200" y="1401"/>
      <point x="165" y="1422"/>
      <point x="123" y="1414" type="curve"/>
      <point x="128" y="1461"/>
      <point x="147" y="1505"/>
    </contour>
  </outline>
</glyph>
<glyph name="horncomb" format="2">
  <unicode hex="031B"/>
  <anchor x="90" y="1100" name="_topright"/>
  <outline>
    <contour>
      <point x="80" y="1100" type="curve"/>
      <point x="80" y="1064" type="line"/>
      <point x="235" y="1064"/>
      <point x="314" y="1165"/>
      <point x="314" y="1302" type="curve" smooth="yes"/>
      <point x="314" y="1392"/>
      <point x="287" y="1437"/>
      <point x="235" y="1437" type="curve" smooth="yes"/>
      <point x="207" y="1437"/>
      <point x="190" y="1422"/>
      <point x="190" y="1400" type="curve" smooth="yes"/>
      <point x="190" y="1372"/>
      <point x="213" y="1347"/>
      <point x="268" y="1360" type="curve"/>
      <point x="301" y="1197"/>
      <point x="210" y="1100"/>
    </contour>
  </outline>
</glyph>
<glyph name="dotbelowcomb" format="2">
  <unicode hex="0323"/>
  <anchor x="139" y="0" name="_bottom"/>
  <outline>
    <contour>
      <point x="139" y="-326" type="curve" smooth="yes"/>
      <point x="175" y="-326"/>
      <point x="198" y="-300"/>
      <point x="198" y="-264" type="curve" smooth="yes"/>
      <point x="198" y="-228"/>
      <point x="175" y="-202"/>
      <point x="139" y="-202" type="curve" smooth="yes"/>
      <point x="103" y="-202"/>
      <point x="80" y="-228"/>
      <point x="80" y="-264" type="curve" smooth="yes"/>
      <point x="80" y="-300"/>
      <point x="103" y="-326"/>
    </contour>
  </outline>
</glyph>
<glyph name="dieresisbelowcomb" format="2">
  <unicode hex="0324"/>
  <anchor x="348" y="0" name="_bottom"/>
  <outline>
    <contour>
      <point x="139" y="-326" type="curve" smooth="yes"/>
      <point x="175" y="-326"/>
      <point x="198" y="-300"/>
      <point x="198" y="-264" type="curve" smooth="yes"/>
      <point x="198" y="-228"/>
      <point x="175" y="-202"/>
      <point x="139" y="-202" type="curve" smooth="yes"/>
      <point x="103" y="-202"/>
      <point x="80" y="-228"/>
      <point x="80" y="-264" type="curve" smooth="yes"/>
      <point x="80" y="-300"/>
      <point x="103" y="-326"/>
    </contour>
    <contour>
      <point x="557" y="-326" type="curve" smooth="yes"/>
      <point x="593" y="-326"/>
      <point x="616" y="-300"/>
      <point x="616" y="-264" type="curve" smooth="yes"/>
      <point x="616" y="-228"/>
      <point x="593" y="-202"/>
      <point x="557" y="-202" type="curve" smooth="yes"/>
      <point x="521" y="-202"/>
      <point x="498" y="-228"/>
      <point x="498" y="-264" type="curve" smooth="yes"/>
      <point x="498" y="-300"/>
      <point x="521" y="-326"/>
    </contour>
  </outline>
</glyph>
<glyph name="commaaccentcomb" format="2">
  <unicode hex="0326"/>
  <anchor x="140" y="0" name="_bottom"/>
  <outline>
    <contour>
      <point x="90" y="-460" type="curve"/>
      <point x="133" y="-460" type="line"/>
      <point x="183" y="-396"/>
      <point x="200" y="-338"/>
      <point x="200" y="-283" type="curve" smooth="yes"/>
      <point x="200" y="-230"/>
      <point x="174" y="-202"/>
      <point x="138" y="-202" type="curve" smooth="yes"/>
      <point x="106" y="-202"/>
      <point x="80" y="-223"/>
      <point x="80" y="-261" type="curve" smooth="yes"/>
      <point x="80" y="-301"/>
      <point x="115" y="-322"/>
      <point x="157" y="-314" type="curve"/>
      <point x="152" y="-361"/>
      <point x="133" y="-405"/>
    </contour>
  </outline>
</glyph>
<glyph name="cedillacomb" format="2">
  <unicode hex="0327"/>
  <anchor x="252" y="0" name="_bottom"/>
  <outline>
    <contour>
      <point x="229" y="10" type="line"/>
      <point x="198" y="-186" type="line"/>
      <point x="279" y="-186" type="line" smooth="yes"/>
      <point x="341" y="-186"/>
      <point x="386" y="-213"/>
      <point x="386" y="-271" type="curve" smooth="yes"/>
      <point x="386" y="-335"/>
      <point x="347" y="-375"/>
      <point x="249" y="-375" type="curve" smooth="yes"/>
      <point x="194" y="-375"/>
      <point x="140" y="-357"/>
      <point x="98" y="-333" type="curve"/>
      <point x="80" y="-371" type="line"/>
      <point x="125" y="-397"/>
      <point x="184" y="-415"/>
      <point x="249" y="-415" type="curve" smooth="yes"/>
      <point x="363" y="-415"/>
      <point x="434" y="-364"/>
      <point x="434" y="-270" type="curve" smooth="yes"/>
      <point x="434" y="-174"/>
      <point x="352" y="-144"/>
      <point x="283" y="-144" type="curve" smooth="yes"/>
      <point x="251" y="-144" type="line"/>
      <point x="275" y="10" type="line"/>
    </contour>
  </outline>
</glyph>
<glyph name="ogonekcomb" format="2">
  <unicode hex="0328"/>
  <anchor x="352" y="0" name="_ogonek"/>
  <outline>
    <contour>
      <point x="213" y="26" type="line"/>
      <point x="144" y="-54"/>
      <point x="80" y="-141"/>
      <point x="80" y="-248" type="curve" smooth="yes"/>
      <point x="80" y="-341"/>
      <point x="146" y="-397"/>
      <point x="230" y="-397" type="curve" smooth="yes"/>
      <point x="306" y="-397"/>
      <point x="352" y="-366"/>
      <point x="381" y="-340" type="curve"/>
      <point x="358" y="-311" type="line"/>
      <point x="315" y="-342"/>
      <point x="286" y="-357"/>
      <point x="234" y="-357" type="curve" smooth="yes"/>
      <point x="169" y="-357"/>
      <point x="126" y="-314"/>
      <point x="126" y="-244" type="curve" smooth="yes"/>
      <point x="126" y="-156"/>
      <point x="170" y="-84"/>
      <point x="242" y="0" type="curve"/>
    </contour>
  </outline>
</glyph>
<glyph name="brevebelowcomb" format="2">
  <unicode hex="032E"/>
  <anchor x="340" y="0" name="_bottom"/>
  <outline>
    <contour>
      <point x="80" y="-150" type="line"/>
      <point x="80" y="-336"/>
      <point x="158" y="-470"/>
      <point x="340" y="-470" type="curve" smooth="yes"/>
      <point x="522" y="-470"/>
      <point x="610" y="-336"/>
      <point x="610" y="-150" type="curve"/>
      <point x="570" y="-150" type="line"/>
      <point x="570" y="-304"/>
      <point x="494" y="-432"/>
      <point x="340" y="-432" type="curve" smooth="yes"/>
      <point x="186" y="-432"/>
      <point x="120" y="-304"/>
      <point x="120" y="-150" type="curve"/>
    </contour>
  </outline>
</glyph>
<glyph name="strokeshortcomb" format="2">
  <unicode hex="0335"/>
  <anchor x="405" y="750" name="_center"/>
  <anchor x="318" y="750" name="_stroke"/>
  <outline>
    <contour>
      <point x="80" y="770" type="line"/>
      <point x="80" y="730" type="line"/>
      <point x="730" y="730" type="line"/>
      <point x="730" y="770" type="line"/>
    </contour>
  </outline>
</glyph>
<glyph name="strokelongcomb" format="2">
  <unicode hex="0336"/>
  <anchor x="878" y="1500" name="_top"/>
  <outline>
    <contour>
      <point x="80" y="1132" type="line"/>
      <point x="80" y="1092" type="line"/>
      <point x="1676" y="1092" type="line"/>
      <point x="1676" y="1132" type="line"/>
    </contour>
  </outline>
</glyph>
<glyph name="slashshortcomb" format="2">
  <unicode hex="0337"/>
  <anchor x="442" y="1100" name="_center"/>
  <outline>
    <contour>
      <point x="838" y="723" type="line"/>
      <point x="838" y="766" type="line"/>
      <point x="80" y="495" type="line"/>
      <point x="80" y="452" type="line"/>
    </contour>
  </outline>
</glyph>
<glyph name="slashlongcomb" format="2">
  <unicode hex="0338"/>
  <anchor x="690" y="1100" name="_top"/>
  <outline>
    <contour>
      <point x="1236" y="1100" type="line"/>
      <point x="80" y="0" type="line"/>
      <point x="144" y="0" type="line"/>
      <point x="1300" y="1100" type="line"/>
    </contour>
  </outline>
</glyph>
<glyph name="endash" format="2">
  <advance width="1450"/>
  <unicode hex="2013"/>
  <outline>
    <contour>
      <point x="160" y="602" type="line"/>
      <point x="160" y="560" type="line"/>
      <point x="1290" y="560" type="line"/>
      <point x="1290" y="602" type="line"/>
    </contour>
  </outline>
</glyph>
<glyph name="emdash" format="2">
  <advance width="2015"/>
  <unicode hex="2014"/>
  <outline>
    <contour>
      <point x="160" y="602" type="line"/>
      <point x="160" y="560" type="line"/>
      <point x="1855" y="560" type="line"/>
      <point x="1855" y="602" type="line"/>
    </contour>
  </outline>
</glyph>
<glyph name="quoteleft" format="2">
  <advance width="373"/>
  <unicode hex="2018"/>
  <outline>
    <contour>
      <point x="247" y="1456" type="curve"/>
      <point x="204" y="1456" type="line"/>
      <point x="147" y="1375"/>
      <point x="126" y="1300"/>
      <point x="126" y="1229" type="curve" smooth="yes"/>
      <point x="126" y="1172"/>
      <point x="153" y="1148"/>
      <point x="189" y="1148" type="curve" smooth="yes"/>
      <point x="221" y="1148"/>
      <point x="247" y="1166"/>
      <point x="247" y="1205" type="curve" smooth="yes"/>
      <point x="247" y="1243"/>
      <point x="217" y="1264"/>
      <point x="171" y="1264" type="curve"/>
      <point x="177" y="1332"/>
      <point x="198" y="1382"/>
    </contour>
  </outline>
</glyph>
<glyph name="quoteright" format="2">
  <advance width="373"/>
  <unicode hex="2019"/>
  <outline>
    <contour>
      <point x="126" y="1208" type="curve"/>
      <point x="169" y="1208" type="line"/>
      <point x="226" y="1289"/>
      <point x="247" y="1364"/>
      <point x="247" y="1435" type="curve" smooth="yes"/>
      <point x="247" y="1492"/>
      <point x="220" y="1516"/>
      <point x="184" y="1516" type="curve" smooth="yes"/>
      <point x="152" y="1516"/>
      <point x="126" y="1498"/>
      <point x="126" y="1459" type="curve" smooth="yes"/>
      <point x="126" y="1421"/>
      <point x="156" y="1400"/>
      <point x="202" y="1400" type="curve"/>
      <point x="196" y="1332"/>
      <point x="175" y="1282"/>
    </contour>
  </outline>
</glyph>
<glyph name="bullet" format="2">
  <advance width="662"/>
  <unicode hex="2022"/>
  <outline>
    <contour>
      <point x="331" y="446" type="curve" smooth="yes"/>
      <point x="408" y="446"/>
      <point x="456" y="499"/>
      <point x="456" y="572" type="curve" smooth="yes"/>
      <point x="456" y="645"/>
      <point x="408" y="698"/>
      <point x="331" y="698" type="curve" smooth="yes"/>
      <point x="254" y="698"/>
      <point x="206" y="645"/>
      <point x="206" y="572" type="curve" smooth="yes"/>
      <point x="206" y="499"/>
      <point x="254" y="446"/>
    </contour>
  </outline>
</glyph>
<glyph name="ellipsis" format="2">
  <advance width="1110"/>
  <unicode hex="2026"/>
  <outline>
    <contour>
      <point x="185" y="-16" type="curve" smooth="yes"/>
      <point x="221" y="-16"/>
      <point x="244" y="10"/>
      <point x="244" y="46" type="curve" smooth="yes"/>
      <point x="244" y="82"/>
      <point x="221" y="108"/>
      <point x="185" y="108" type="curve" smooth="yes"/>
      <point x="149" y="108"/>
      <point x="126" y="82"/>
      <point x="126" y="46" type="curve" smooth="yes"/>
      <point x="126" y="10"/>
      <point x="149" y="-16"/>
    </contour>
    <contour>
      <point x="555" y="-16" type="curve" smooth="yes"/>
      <point x="591" y="-16"/>
      <point x="614" y="10"/>
      <point x="614" y="46" type="curve" smooth="yes"/>
      <point x="614" y="82"/>
      <point x="591" y="108"/>
      <point x="555" y="108" type="curve" smooth="yes"/>
      <point x="519" y="108"/>
      <point x="496" y="82"/>
      <point x="496" y="46" type="curve" smooth="yes"/>
      <point x="496" y="10"/>
      <point x="519" y="-16"/>
    </contour>
    <contour>
      <point x="925" y="-16" type="curve" smooth="yes"/>
      <point x="961" y="-16"/>
      <point x="984" y="10"/>
      <point x="984" y="46" type="curve" smooth="yes"/>
      <point x="984" y="82"/>
      <point x="961" y="108"/>
      <point x="925" y="108" type="curve" smooth="yes"/>
      <point x="889" y="108"/>
      <point x="866" y="82"/>
      <point x="866" y="46" type="curve" smooth="yes"/>
      <point x="866" y="10"/>
      <point x="889" y="-16"/>
    </contour>
  </outline>
</glyph>
<glyph name="perthousand" format="2">
  <advance width="2385"/>
  <unicode hex="2030"/>
  <outline>
    <contour>
      <point x="1401" y="1500" type="line"/>
      <point x="304" y="0" type="line"/>
      <point x="358" y="0" type="line"/>
      <point x="1455" y="1500" type="line"/>
    </contour>
    <contour>
      <point x="444" y="866" type="curve" smooth="yes"/>
      <point x="642" y="866"/>
      <point x="780" y="990"/>
      <point x="780" y="1192" type="curve" smooth="yes"/>
      <point x="780" y="1394"/>
      <point x="642" y="1518"/>
      <point x="444" y="1518" type="curve" smooth="yes"/>
      <point x="251" y="1518"/>
      <point x="118" y="1394"/>
      <point x="118" y="1192" type="curve" smooth="yes"/>
      <point x="118" y="990"/>
      <point x="251" y="866"/>
    </contour>
    <contour>
      <point x="444" y="904" type="curve" smooth="yes"/>
      <point x="277" y="904"/>
      <point x="164" y="1017"/>
      <point x="164" y="1192" type="curve" smooth="yes"/>
      <point x="164" y="1367"/>
      <point x="277" y="1480"/>
      <point x="444" y="1480" type="curve" smooth="yes"/>
      <point x="616" y="1480"/>
      <point x="734" y="1367"/>
      <point x="734" y="1192" type="curve" smooth="yes"/>
      <point x="734" y="1017"/>
      <point x="616" y="904"/>
    </contour>
    <contour>
      <point x="1315" y="-18" type="curve" smooth="yes"/>
      <point x="1513" y="-18"/>
      <point x="1647" y="106"/>
      <point x="1647" y="308" type="curve" smooth="yes"/>
      <point x="1647" y="510"/>
      <point x="1513" y="634"/>
      <point x="1315" y="634" type="curve" smooth="yes"/>
      <point x="1122" y="634"/>
      <point x="989" y="510"/>
      <point x="989" y="308" type="curve" smooth="yes"/>
      <point x="989" y="106"/>
      <point x="1122" y="-18"/>
    </contour>
    <contour>
      <point x="1315" y="20" type="curve" smooth="yes"/>
      <point x="1148" y="20"/>
      <point x="1035" y="133"/>
      <point x="1035" y="308" type="curve" smooth="yes"/>
      <point x="1035" y="483"/>
      <point x="1148" y="596"/>
      <point x="1315" y="596" type="curve" smooth="yes"/>
      <point x="1487" y="596"/>
      <point x="1605" y="483"/>
      <point x="1605" y="308" type="curve" smooth="yes"/>
      <point x="1605" y="133"/>
      <point x="1487" y="20"/>
    </contour>
    <contour>
      <point x="1931" y="-18" type="curve" smooth="yes"/>
      <point x="2129" y="-18"/>
      <point x="2267" y="106"/>
      <point x="2267" y="308" type="curve" smooth="yes"/>
      <point x="2267" y="510"/>
      <point x="2129" y="634"/>
      <point x="1931" y="634" type="curve" smooth="yes"/>
      <point x="1738" y="634"/>
      <point x="1609" y="510"/>
      <point x="1609" y="308" type="curve" smooth="yes"/>
      <point x="1609" y="106"/>
      <point x="1738" y="-18"/>
    </contour>
    <contour>
      <point x="1931" y="20" type="curve" smooth="yes"/>
      <point x="1764" y="20"/>
      <point x="1651" y="133"/>
      <point x="1651" y="308" type="curve" smooth="yes"/>
      <point x="1651" y="483"/>
      <point x="1764" y="596"/>
      <point x="1931" y="596" type="curve" smooth="yes"/>
      <point x="2103" y="596"/>
      <point x="2221" y="483"/>
      <point x="2221" y="308" type="curve" smooth="yes"/>
      <point x="2221" y="133"/>
      <point x="2103" y="20"/>
    </contour>
  </outline>
</glyph>
<glyph name="second" format="2">
  <advance width="714"/>
  <unicode hex="2033"/>
  <outline>
    <contour>
      <point x="144" y="990" type="line"/>
      <point x="184" y="990" type="line"/>
      <point x="246" y="1500" type="line"/>
      <point x="199" y="1500" type="line"/>
    </contour>
    <contour>
      <point x="464" y="990" type="line"/>
      <point x="504" y="990" type="line"/>
      <point x="566" y="1500" type="line"/>
      <point x="519" y="1500" type="line"/>
    </contour>
  </outline>
</glyph>
<glyph name="guilsinglright" format="2">
  <advance width="664"/>
  <unicode hex="203A"/>
  <outline>
    <contour>
      <point x="144" y="970" type="line"/>
      <point x="201" y="970" type="line"/>
      <point x="532" y="580" type="line"/>
      <point x="201" y="190" type="line"/>
      <point x="144" y="190" type="line"/>
      <point x="469" y="580" type="line"/>
    </contour>
  </outline>
</glyph>
<glyph name="fraction" format="2">
  <advance width="1315"/>
  <unicode hex="2044"/>
  <outline>
    <contour>
      <point x="1181" y="1500" type="line"/>
      <point x="84" y="0" type="line"/>
      <point x="134" y="0" type="line"/>
      <point x="1231" y="1500" type="line"/>
    </contour>
  </outline>
</glyph>
<glyph name="colonsign" format="2">
  <advance width="1724"/>
  <unicode hex="20A1"/>
  <outline>
    <contour>
      <point x="913" y="1720" type="line"/>
      <point x="533" y="-220" type="line"/>
      <point x="580" y="-220" type="line"/>
      <point x="960" y="1720" type="line"/>
    </contour>
    <contour>
      <point x="1174" y="1720" type="line"/>
      <point x="794" y="-220" type="line"/>
      <point x="841" y="-220" type="line"/>
      <point x="1221" y="1720" type="line"/>
    </contour>
    <component base="C"/>
  </outline>
</glyph>
<glyph name="franc" format="2">
  <advance width="1450"/>
  <unicode hex="20A3"/>
  <outline>
    <contour>
      <point x="1338" y="1456" type="line"/>
      <point x="1338" y="1500" type="line"/>
      <point x="358" y="1500" type="line"/>
      <point x="358" y="1456" type="line"/>
    </contour>
    <contour>
      <point x="918" y="850" type="line"/>
      <point x="918" y="894" type="line"/>
      <point x="358" y="894" type="line"/>
      <point x="358" y="850" type="line"/>
    </contour>
    <contour>
      <point x="1168" y="1456" type="line"/>
      <point x="1268" y="1456"/>
      <point x="1294" y="1430"/>
      <point x="1294" y="1326" type="curve" smooth="yes"/>
      <point x="1294" y="1000" type="line"/>
      <point x="1338" y="1000" type="line"/>
      <point x="1338" y="1456" type="line"/>
    </contour>
    <contour>
      <point x="758" y="894" type="curve"/>
      <point x="918" y="894" type="line"/>
      <point x="918" y="1146" type="line"/>
      <point x="876" y="1146" type="line"/>
      <point x="876" y="1016" type="line" smooth="yes"/>
      <point x="876" y="918"/>
      <point x="852" y="894"/>
    </contour>
    <contour>
      <point x="310" y="1500" type="line"/>
      <point x="310" y="0" type="line"/>
      <point x="358" y="0" type="line"/>
      <point x="358" y="1500" type="line"/>
    </contour>
    <contour>
      <point x="758" y="850" type="line"/>
      <point x="852" y="850"/>
      <point x="876" y="826"/>
      <point x="876" y="728" type="curve" smooth="yes"/>
      <point x="876" y="598" type="line"/>
      <point x="918" y="598" type="line"/>
      <point x="918" y="850" type="line"/>
    </contour>
    <contour>
      <point x="72" y="416" type="line"/>
      <point x="72" y="372" type="line"/>
      <point x="918" y="372" type="line"/>
      <point x="918" y="416" type="line"/>
    </contour>
  </outline>
</glyph>
<glyph name="naira" format="2">
  <advance width="1799"/>
  <unicode hex="20A6"/>
  <outline>
    <contour>
      <point x="72" y="614" type="line"/>
      <point x="72" y="572" type="line"/>
      <point x="1017" y="572" type="line"/>
      <point x="1017" y="614" type="line"/>
    </contour>
    <contour>
      <point x="72" y="950" type="line"/>
      <point x="72" y="908" type="line"/>
      <point x="758" y="908" type="line"/>
      <point x="758" y="950" type="line"/>
    </contour>
    <contour>
      <point x="758" y="950" type="line"/>
      <point x="758" y="908" type="line"/>
      <point x="1719" y="908" type="line"/>
      <point x="1719" y="950" type="line"/>
    </contour>
    <contour>
      <point x="1017" y="614" type="line"/>
      <point x="1017" y="572" type="line"/>
      <point x="1719" y="572" type="line"/>
      <point x="1719" y="614" type="line"/>
    </contour>
    <component base="N"/>
  </outline>
</glyph>
<glyph name="peseta" format="2">
  <advance width="1677"/>
  <unicode hex="20A7"/>
  <outline>
    <contour>
      <point x="358" y="1500" type="line"/>
      <point x="358" y="1456" type="line"/>
      <point x="868" y="1456" type="line" smooth="yes"/>
      <point x="1146" y="1456"/>
      <point x="1322" y="1330"/>
      <point x="1322" y="1081" type="curve" smooth="yes"/>
      <point x="1322" y="832"/>
      <point x="1146" y="706"/>
      <point x="868" y="706" type="curve" smooth="yes"/>
      <point x="358" y="706" type="line"/>
      <point x="358" y="662" type="line"/>
      <point x="880" y="662" type="line" smooth="yes"/>
      <point x="1174" y="662"/>
      <point x="1370" y="803"/>
      <point x="1370" y="1081" type="curve" smooth="yes"/>
      <point x="1370" y="1359"/>
      <point x="1174" y="1500"/>
      <point x="880" y="1500" type="curve" smooth="yes"/>
    </contour>
    <contour>
      <point x="310" y="1500" type="line"/>
      <point x="310" y="0" type="line"/>
      <point x="358" y="0" type="line"/>
      <point x="358" y="1500" type="line"/>
    </contour>
    <contour>
      <point x="72" y="1103" type="line"/>
      <point x="72" y="1059" type="line"/>
      <point x="1587" y="1059" type="line"/>
      <point x="1587" y="1103" type="line"/>
    </contour>
  </outline>
</glyph>
<glyph name="won" format="2">
  <advance width="2298"/>
  <unicode hex="20A9"/>
  <outline>
    <contour>
      <point x="1240" y="908" type="line"/>
      <point x="2226" y="908" type="line"/>
      <point x="2226" y="950" type="line"/>
      <point x="1240" y="950" type="line"/>
    </contour>
    <contour>
      <point x="72" y="614" type="line"/>
      <point x="72" y="572" type="line"/>
      <point x="1358" y="572" type="line"/>
      <point x="1358" y="614" type="line"/>
    </contour>
    <contour>
      <point x="1358" y="614" type="line"/>
      <point x="1358" y="572" type="line"/>
      <point x="2226" y="572" type="line"/>
      <point x="2226" y="614" type="line"/>
    </contour>
    <contour>
      <point x="1240" y="950" type="line"/>
      <point x="72" y="950" type="line"/>
      <point x="72" y="908" type="line"/>
      <point x="1240" y="908" type="line"/>
    </contour>
    <component base="W" xOffset="44"/>
  </outline>
</glyph>
<glyph name="euro" format="2">
  <advance width="1956"/>
  <unicode hex="20AC"/>
  <outline>
    <contour>
      <point x="134" y="915" type="line"/>
      <point x="124" y="871" type="line"/>
      <point x="1246" y="871" type="line"/>
      <point x="1256" y="915" type="line"/>
    </contour>
    <contour>
      <point x="82" y="667" type="line"/>
      <point x="72" y="623" type="line"/>
      <point x="1194" y="623" type="line"/>
      <point x="1204" y="667" type="line"/>
    </contour>
    <component base="C" xOffset="232"/>
  </outline>
</glyph>
<glyph name="guarani" format="2">
  <advance width="1802"/>
  <unicode hex="20B2"/>
  <outline>
    <contour>
      <point x="874" y="1720" type="line"/>
      <point x="874" y="-220" type="line"/>
      <point x="922" y="-220" type="line"/>
      <point x="922" y="1720" type="line"/>
    </contour>
    <contour>
      <point x="1482" y="1020" type="curve"/>
      <point x="1513" y="1020" type="line"/>
      <point x="1505" y="1333"/>
      <point x="1277" y="1524"/>
      <point x="896" y="1524" type="curve" smooth="yes"/>
      <point x="466" y="1524"/>
      <point x="138" y="1240"/>
      <point x="138" y="750" type="curve" smooth="yes"/>
      <point x="138" y="260"/>
      <point x="467" y="-24"/>
      <point x="902" y="-24" type="curve" smooth="yes"/>
      <point x="1347" y="-24"/>
      <point x="1560" y="276"/>
      <point x="1558" y="678" type="curve"/>
      <point x="1524" y="678" type="line"/>
      <point x="1524" y="326"/>
      <point x="1319" y="20"/>
      <point x="902" y="20" type="curve" smooth="yes"/>
      <point x="493" y="20"/>
      <point x="186" y="306"/>
      <point x="186" y="750" type="curve" smooth="yes"/>
      <point x="186" y="1194"/>
      <point x="494" y="1480"/>
      <point x="896" y="1480" type="curve" smooth="yes"/>
      <point x="1283" y="1480"/>
      <point x="1459" y="1277"/>
    </contour>
    <contour>
      <point x="1526" y="1500" type="line"/>
      <point x="1482" y="1500" type="line"/>
      <point x="1482" y="1104" type="line"/>
      <point x="1513" y="1020" type="line"/>
      <point x="1526" y="1020" type="line"/>
    </contour>
    <contour>
      <point x="898" y="722" type="line"/>
      <point x="898" y="678" type="line"/>
      <point x="1798" y="678" type="line"/>
      <point x="1798" y="722" type="line"/>
    </contour>
    <contour>
      <point x="1568" y="678" type="line"/>
      <point x="1558" y="678" type="line"/>
      <point x="1524" y="493" type="line"/>
      <point x="1524" y="0" type="line"/>
      <point x="1568" y="0" type="line"/>
    </contour>
  </outline>
</glyph>
<glyph name="rupeeIndian" format="2">
  <advance width="1531"/>
  <unicode hex="20B9"/>
  <outline>
    <contour>
      <point x="112" y="1500" type="line"/>
      <point x="112" y="1456" type="line"/>
      <point x="702" y="1456" type="line" smooth="yes"/>
      <point x="980" y="1456"/>
      <point x="1156" y="1330"/>
      <point x="1156" y="1081" type="curve" smooth="yes"/>
      <point x="1156" y="832"/>
      <point x="980" y="706"/>
      <point x="702" y="706" type="curve" smooth="yes"/>
      <point x="112" y="706" type="line"/>
      <point x="112" y="662" type="line"/>
      <point x="714" y="662" type="line" smooth="yes"/>
      <point x="1008" y="662"/>
      <point x="1204" y="803"/>
      <point x="1204" y="1081" type="curve" smooth="yes"/>
      <point x="1204" y="1359"/>
      <point x="1008" y="1500"/>
      <point x="714" y="1500" type="curve" smooth="yes"/>
    </contour>
    <contour>
      <point x="112" y="1103" type="line"/>
      <point x="112" y="1059" type="line"/>
      <point x="1441" y="1059" type="line"/>
      <point x="1441" y="1103" type="line"/>
    </contour>
    <contour>
      <point x="112" y="684" type="line"/>
      <point x="112" y="662" type="line"/>
      <point x="518" y="662" type="line" smooth="yes"/>
      <point x="722" y="662"/>
      <point x="860" y="535"/>
      <point x="860" y="310" type="curve" smooth="yes"/>
      <point x="860" y="218" type="line" smooth="yes"/>
      <point x="860" y="72"/>
      <point x="928" y="-22"/>
      <point x="1076" y="-22" type="curve" smooth="yes"/>
      <point x="1224" y="-22"/>
      <point x="1292" y="72"/>
      <point x="1292" y="218" type="curve" smooth="yes"/>
      <point x="1292" y="484" type="line"/>
      <point x="1248" y="484" type="line"/>
      <point x="1248" y="218" type="line" smooth="yes"/>
      <point x="1248" y="107"/>
      <point x="1198" y="20"/>
      <point x="1078" y="20" type="curve" smooth="yes"/>
      <point x="956" y="20"/>
      <point x="908" y="107"/>
      <point x="908" y="218" type="curve" smooth="yes"/>
      <point x="908" y="302" type="line" smooth="yes"/>
      <point x="908" y="556"/>
      <point x="796" y="684"/>
      <point x="536" y="684" type="curve" smooth="yes"/>
    </contour>
  </outline>
</glyph>
<glyph name="ruble" format="2">
  <advance width="1490"/>
  <unicode hex="20BD"/>
  <outline>
    <contour>
      <point x="358" y="1500" type="line"/>
      <point x="358" y="1456" type="line"/>
      <point x="898" y="1456" type="line" smooth="yes"/>
      <point x="1176" y="1456"/>
      <point x="1352" y="1330"/>
      <point x="1352" y="1081" type="curve" smooth="yes"/>
      <point x="1352" y="832"/>
      <point x="1176" y="706"/>
      <point x="898" y="706" type="curve" smooth="yes"/>
      <point x="358" y="706" type="line"/>
      <point x="358" y="662" type="line"/>
      <point x="910" y="662" type="line" smooth="yes"/>
      <point x="1204" y="662"/>
      <point x="1400" y="803"/>
      <point x="1400" y="1081" type="curve" smooth="yes"/>
      <point x="1400" y="1359"/>
      <point x="1204" y="1500"/>
      <point x="910" y="1500" type="curve" smooth="yes"/>
    </contour>
    <contour>
      <point x="310" y="1500" type="line"/>
      <point x="310" y="0" type="line"/>
      <point x="358" y="0" type="line"/>
      <point x="358" y="1500" type="line"/>
    </contour>
    <contour>
      <point x="72" y="446" type="line"/>
      <point x="72" y="402" type="line"/>
      <point x="938" y="402" type="line"/>
      <point x="938" y="446" type="line"/>
    </contour>
  </outline>
</glyph>
<glyph name="numero" format="2">
  <advance width="2971"/>
  <unicode hex="2116"/>
  <outline>
    <contour>
      <point x="354" y="0" type="line"/>
      <point x="354" y="1426" type="line"/>
      <point x="358" y="1500" type="line"/>
      <point x="310" y="1500" type="line"/>
      <point x="310" y="0" type="line"/>
    </contour>
    <contour>
      <point x="1442" y="74" type="line"/>
      <point x="358" y="1500" type="line"/>
      <point x="354" y="1426" type="line"/>
      <point x="1438" y="0" type="line"/>
    </contour>
    <contour>
      <point x="1486" y="0" type="line"/>
      <point x="1486" y="1500" type="line"/>
      <point x="1442" y="1500" type="line"/>
      <point x="1442" y="74" type="line"/>
      <point x="1432" y="74" type="line"/>
      <point x="1438" y="0" type="line"/>
    </contour>
    <contour>
      <point x="2343" y="420" type="curve" smooth="yes"/>
      <point x="2633" y="420"/>
      <point x="2837" y="619"/>
      <point x="2837" y="966" type="curve" smooth="yes"/>
      <point x="2837" y="1313"/>
      <point x="2633" y="1512"/>
      <point x="2343" y="1512" type="curve" smooth="yes"/>
      <point x="2053" y="1512"/>
      <point x="1849" y="1313"/>
      <point x="1849" y="966" type="curve" smooth="yes"/>
      <point x="1849" y="619"/>
      <point x="2053" y="420"/>
    </contour>
    <contour>
      <point x="2343" y="464" type="curve" smooth="yes"/>
      <point x="2079" y="464"/>
      <point x="1897" y="652"/>
      <point x="1897" y="966" type="curve" smooth="yes"/>
      <point x="1897" y="1280"/>
      <point x="2079" y="1468"/>
      <point x="2343" y="1468" type="curve" smooth="yes"/>
      <point x="2607" y="1468"/>
      <point x="2789" y="1280"/>
      <point x="2789" y="966" type="curve" smooth="yes"/>
      <point x="2789" y="652"/>
      <point x="2607" y="464"/>
    </contour>
    <contour>
      <point x="1873" y="44" type="line"/>
      <point x="1873" y="0" type="line"/>
      <point x="2813" y="0" type="line"/>
      <point x="2813" y="44" type="line"/>
    </contour>
  </outline>
</glyph>
<glyph name="fi" format="2">
  <advance width="1442"/>
  <unicode hex="FB01"/>
  <outline>
    <contour>
      <point x="92" y="1100" type="line"/>
      <point x="92" y="1056" type="line"/>
      <point x="1168" y="1056" type="line"/>
      <point x="1168" y="1100" type="line"/>
    </contour>
    <contour>
      <point x="392" y="1162" type="line"/>
      <point x="392" y="0" type="line"/>
      <point x="440" y="0" type="line"/>
      <point x="440" y="1166" type="line"/>
    </contour>
    <contour>
      <point x="1120" y="1100" type="line"/>
      <point x="1120" y="0" type="line"/>
      <point x="1168" y="0" type="line"/>
      <point x="1168" y="1100" type="line"/>
    </contour>
    <contour>
      <point x="848" y="1596" type="line"/>
      <point x="555" y="1596"/>
      <point x="392" y="1448"/>
      <point x="392" y="1162" type="curve"/>
      <point x="440" y="1166" type="line"/>
      <point x="440" y="1425"/>
      <point x="585" y="1552"/>
      <point x="848" y="1552" type="curve"/>
    </contour>
    <contour>
      <point x="848" y="1596" type="curve"/>
      <point x="848" y="1552" type="line"/>
      <point x="1011" y="1552"/>
      <point x="1133" y="1490"/>
      <point x="1126" y="1376" type="curve"/>
      <point x="1145" y="1391" type="line"/>
      <point x="1088" y="1397"/>
      <point x="1046" y="1376"/>
      <point x="1046" y="1330" type="curve" smooth="yes"/>
      <point x="1046" y="1298"/>
      <point x="1070" y="1277"/>
      <point x="1102" y="1277" type="curve" smooth="yes"/>
      <point x="1146" y="1277"/>
      <point x="1176" y="1314"/>
      <point x="1176" y="1371" type="curve" smooth="yes"/>
      <point x="1176" y="1519"/>
      <point x="1033" y="1596"/>
    </contour>
  </outline>
</glyph>
<glyph name="fl" format="2">
  <advance width="1442"/>
  <unicode hex="FB02"/>
  <outline>
    <contour>
      <point x="92" y="1100" type="line"/>
      <point x="92" y="1056" type="line"/>
      <point x="820" y="1056" type="line"/>
      <point x="820" y="1100" type="line"/>
    </contour>
    <contour>
      <point x="392" y="1192" type="line"/>
      <point x="392" y="0" type="line"/>
      <point x="440" y="0" type="line"/>
      <point x="440" y="1196" type="line"/>
    </contour>
    <contour>
      <point x="712" y="1576" type="line"/>
      <point x="506" y="1576"/>
      <point x="392" y="1445"/>
      <point x="392" y="1192" type="curve"/>
      <point x="440" y="1196" type="line"/>
      <point x="440" y="1422"/>
      <point x="536" y="1532"/>
      <point x="712" y="1532" type="curve"/>
    </contour>
    <contour>
      <point x="712" y="1576" type="curve"/>
      <point x="712" y="1532" type="line"/>
      <point x="818" y="1532"/>
      <point x="888" y="1487"/>
      <point x="884" y="1404" type="curve"/>
      <point x="903" y="1419" type="line"/>
      <point x="846" y="1425"/>
      <point x="804" y="1404"/>
      <point x="804" y="1358" type="curve" smooth="yes"/>
      <point x="804" y="1326"/>
      <point x="828" y="1305"/>
      <point x="860" y="1305" type="curve" smooth="yes"/>
      <point x="904" y="1305"/>
      <point x="934" y="1342"/>
      <point x="934" y="1399" type="curve" smooth="yes"/>
      <point x="934" y="1515"/>
      <point x="837" y="1576"/>
    </contour>
    <contour>
      <point x="1120" y="1560" type="line"/>
      <point x="1120" y="0" type="line"/>
      <point x="1168" y="0" type="line"/>
      <point x="1168" y="1560" type="line"/>
    </contour>
  </outline>
</glyph>
<glyph name="_U" format="2">
  <advance width="1803"/>
  <anchor x="912" y="1500" name="top"/>
  <anchor x="1513" y="1500" name="topright"/>
  <outline>
    <contour>
      <point x="289" y="614" type="line" smooth="yes"/>
      <point x="289" y="207"/>
      <point x="495" y="-24"/>
      <point x="901" y="-24" type="curve" smooth="yes"/>
      <point x="1307" y="-24"/>
      <point x="1513" y="207"/>
      <point x="1513" y="614" type="curve" smooth="yes"/>
      <point x="1513" y="1500" type="line"/>
      <point x="1469" y="1500" type="line"/>
      <point x="1469" y="614" type="line" smooth="yes"/>
      <point x="1469" y="250"/>
      <point x="1289" y="20"/>
      <point x="903" y="20" type="curve" smooth="yes"/>
      <point x="517" y="20"/>
      <point x="337" y="250"/>
      <point x="337" y="614" type="curve" smooth="yes"/>
      <point x="337" y="1500" type="line"/>
      <point x="289" y="1500" type="line"/>
    </contour>
  </outline>
</glyph>
<glyph name="acutecomb.alt" format="2">
  <anchor x="132" y="1100" name="_side"/>
  <outline>
    <contour>
      <point x="80" y="1250" type="line"/>
      <point x="123" y="1250" type="line"/>
      <point x="279" y="1540" type="line"/>
      <point x="229" y="1540" type="line"/>
    </contour>
  </outline>
</glyph>
<glyph name="caroncomb.alt" format="2">
  <anchor x="592" y="1500" name="_topright"/>
  <outline>
    <contour>
      <point x="816" y="1110" type="line"/>
      <point x="856" y="1110" type="line"/>
      <point x="893" y="1500" type="line"/>
      <point x="842" y="1500" type="line"/>
    </contour>
  </outline>
</glyph>
<glyph name="eight.dnom" format="2">
  <advance width="740"/>
  <outline>
    <contour>
      <point x="109" y="548" type="curve" smooth="yes"/>
      <point x="109" y="429"/>
      <point x="229" y="378"/>
      <point x="342" y="360" type="curve" smooth="yes"/>
      <point x="387" y="353" type="line" smooth="yes"/>
      <point x="501" y="335"/>
      <point x="612" y="291"/>
      <point x="612" y="187" type="curve" smooth="yes"/>
      <point x="612" y="86"/>
      <point x="514" y="24"/>
      <point x="370" y="24" type="curve" smooth="yes"/>
      <point x="224" y="24"/>
      <point x="124" y="87"/>
      <point x="124" y="189" type="curve" smooth="yes"/>
      <point x="124" y="297"/>
      <point x="241" y="353"/>
      <point x="353" y="363" type="curve"/>
      <point x="344" y="386" type="line"/>
      <point x="210" y="377"/>
      <point x="82" y="318"/>
      <point x="82" y="187" type="curve" smooth="yes"/>
      <point x="82" y="60"/>
      <point x="198" y="-10"/>
      <point x="368" y="-10" type="curve" smooth="yes"/>
      <point x="541" y="-10"/>
      <point x="658" y="61"/>
      <point x="658" y="192" type="curve" smooth="yes"/>
      <point x="658" y="321"/>
      <point x="529" y="372"/>
      <point x="396" y="393" type="curve" smooth="yes"/>
      <point x="351" y="400" type="line" smooth="yes"/>
      <point x="242" y="417"/>
      <point x="155" y="460"/>
      <point x="155" y="552" type="curve" smooth="yes"/>
      <point x="155" y="643"/>
      <point x="251" y="696"/>
      <point x="368" y="696" type="curve" smooth="yes"/>
      <point x="487" y="696"/>
      <point x="585" y="642"/>
      <point x="585" y="550" type="curve" smooth="yes"/>
      <point x="585" y="461"/>
      <point x="505" y="409"/>
      <point x="386" y="392" type="curve"/>
      <point x="394" y="369" type="line"/>
      <point x="516" y="382"/>
      <point x="627" y="437"/>
      <point x="627" y="553" type="curve" smooth="yes"/>
      <point x="627" y="667"/>
      <point x="510" y="730"/>
      <point x="370" y="730" type="curve" smooth="yes"/>
      <point x="230" y="730"/>
      <point x="109" y="667"/>
    </contour>
  </outline>
</glyph>
<glyph name="f_f" format="2">
  <advance width="1670"/>
  <outline>
    <contour>
      <point x="92" y="1100" type="line"/>
      <point x="92" y="1056" type="line"/>
      <point x="1548" y="1056" type="line"/>
      <point x="1548" y="1100" type="line"/>
    </contour>
    <contour>
      <point x="392" y="1174" type="line"/>
      <point x="392" y="0" type="line"/>
      <point x="440" y="0" type="line"/>
      <point x="440" y="1178" type="line"/>
    </contour>
    <contour>
      <point x="722" y="1568" type="line"/>
      <point x="510" y="1568"/>
      <point x="392" y="1434"/>
      <point x="392" y="1174" type="curve"/>
      <point x="440" y="1178" type="line"/>
      <point x="440" y="1411"/>
      <point x="540" y="1524"/>
      <point x="722" y="1524" type="curve"/>
    </contour>
    <contour>
      <point x="722" y="1568" type="curve"/>
      <point x="722" y="1524" type="line"/>
      <point x="834" y="1524"/>
      <point x="909" y="1475"/>
      <point x="904" y="1386" type="curve"/>
      <point x="923" y="1401" type="line"/>
      <point x="866" y="1407"/>
      <point x="824" y="1386"/>
      <point x="824" y="1340" type="curve" smooth="yes"/>
      <point x="824" y="1308"/>
      <point x="848" y="1287"/>
      <point x="880" y="1287" type="curve" smooth="yes"/>
      <point x="924" y="1287"/>
      <point x="954" y="1324"/>
      <point x="954" y="1381" type="curve" smooth="yes"/>
      <point x="954" y="1504"/>
      <point x="853" y="1568"/>
    </contour>
    <contour>
      <point x="1120" y="1162" type="line"/>
      <point x="1120" y="0" type="line"/>
      <point x="1168" y="0" type="line"/>
      <point x="1168" y="1166" type="line"/>
    </contour>
    <contour>
      <point x="1470" y="1576" type="line"/>
      <point x="1245" y="1576"/>
      <point x="1120" y="1435"/>
      <point x="1120" y="1162" type="curve"/>
      <point x="1168" y="1166" type="line"/>
      <point x="1168" y="1412"/>
      <point x="1275" y="1532"/>
      <point x="1470" y="1532" type="curve"/>
    </contour>
    <contour>
      <point x="1470" y="1576" type="curve"/>
      <point x="1470" y="1532" type="line"/>
      <point x="1594" y="1532"/>
      <point x="1677" y="1476"/>
      <point x="1672" y="1374" type="curve"/>
      <point x="1691" y="1389" type="line"/>
      <point x="1634" y="1395"/>
      <point x="1592" y="1374"/>
      <point x="1592" y="1328" type="curve" smooth="yes"/>
      <point x="1592" y="1296"/>
      <point x="1616" y="1275"/>
      <point x="1648" y="1275" type="curve" smooth="yes"/>
      <point x="1692" y="1275"/>
      <point x="1722" y="1312"/>
      <point x="1722" y="1369" type="curve" smooth="yes"/>
      <point x="1722" y="1505"/>
      <point x="1612" y="1576"/>
    </contour>
  </outline>
</glyph>
<glyph name="f_f_i" format="2">
  <advance width="2170"/>
  <outline>
    <contour>
      <point x="392" y="1174" type="line"/>
      <point x="392" y="0" type="line"/>
      <point x="440" y="0" type="line"/>
      <point x="440" y="1178" type="line"/>
    </contour>
    <contour>
      <point x="722" y="1568" type="line"/>
      <point x="510" y="1568"/>
      <point x="392" y="1434"/>
      <point x="392" y="1174" type="curve"/>
      <point x="440" y="1178" type="line"/>
      <point x="440" y="1411"/>
      <point x="540" y="1524"/>
      <point x="722" y="1524" type="curve"/>
    </contour>
    <contour>
      <point x="722" y="1568" type="curve"/>
      <point x="722" y="1524" type="line"/>
      <point x="834" y="1524"/>
      <point x="909" y="1475"/>
      <point x="904" y="1386" type="curve"/>
      <point x="923" y="1401" type="line"/>
      <point x="866" y="1407"/>
      <point x="824" y="1386"/>
      <point x="824" y="1340" type="curve" smooth="yes"/>
      <point x="824" y="1308"/>
      <point x="848" y="1287"/>
      <point x="880" y="1287" type="curve" smooth="yes"/>
      <point x="924" y="1287"/>
      <point x="954" y="1324"/>
      <point x="954" y="1381" type="curve" smooth="yes"/>
      <point x="954" y="1504"/>
      <point x="853" y="1568"/>
    </contour>
    <contour>
      <point x="1120" y="1162" type="line"/>
      <point x="1120" y="0" type="line"/>
      <point x="1168" y="0" type="line"/>
      <point x="1168" y="1166" type="line"/>
    </contour>
    <contour>
      <point x="1848" y="1100" type="line"/>
      <point x="1848" y="0" type="line"/>
      <point x="1896" y="0" type="line"/>
      <point x="1896" y="1100" type="line"/>
    </contour>
    <contour>
      <point x="92" y="1100" type="line"/>
      <point x="92" y="1056" type="line"/>
      <point x="1896" y="1056" type="line"/>
      <point x="1896" y="1100" type="line"/>
    </contour>
    <contour>
      <point x="1576" y="1596" type="line"/>
      <point x="1283" y="1596"/>
      <point x="1120" y="1448"/>
      <point x="1120" y="1162" type="curve"/>
      <point x="1168" y="1166" type="line"/>
      <point x="1168" y="1425"/>
      <point x="1313" y="1552"/>
      <point x="1576" y="1552" type="curve"/>
    </contour>
    <contour>
      <point x="1576" y="1596" type="curve"/>
      <point x="1576" y="1552" type="line"/>
      <point x="1739" y="1552"/>
      <point x="1861" y="1490"/>
      <point x="1854" y="1376" type="curve"/>
      <point x="1873" y="1391" type="line"/>
      <point x="1816" y="1397"/>
      <point x="1774" y="1376"/>
      <point x="1774" y="1330" type="curve" smooth="yes"/>
      <point x="1774" y="1298"/>
      <point x="1798" y="1277"/>
      <point x="1830" y="1277" type="curve" smooth="yes"/>
      <point x="1874" y="1277"/>
      <point x="1904" y="1314"/>
      <point x="1904" y="1371" type="curve" smooth="yes"/>
      <point x="1904" y="1519"/>
      <point x="1761" y="1596"/>
    </contour>
  </outline>
</glyph>
<glyph name="f_f_l" format="2">
  <advance width="2170"/>
  <outline>
    <contour>
      <point x="392" y="1174" type="line"/>
      <point x="392" y="0" type="line"/>
      <point x="440" y="0" type="line"/>
      <point x="440" y="1178" type="line"/>
    </contour>
    <contour>
      <point x="722" y="1568" type="line"/>
      <point x="510" y="1568"/>
      <point x="392" y="1434"/>
      <point x="392" y="1174" type="curve"/>
      <point x="440" y="1178" type="line"/>
      <point x="440" y="1411"/>
      <point x="540" y="1524"/>
      <point x="722" y="1524" type="curve"/>
    </contour>
    <contour>
      <point x="722" y="1568" type="curve"/>
      <point x="722" y="1524" type="line"/>
      <point x="834" y="1524"/>
      <point x="909" y="1475"/>
      <point x="904" y="1386" type="curve"/>
      <point x="923" y="1401" type="line"/>
      <point x="866" y="1407"/>
      <point x="824" y="1386"/>
      <point x="824" y="1340" type="curve" smooth="yes"/>
      <point x="824" y="1308"/>
      <point x="848" y="1287"/>
      <point x="880" y="1287" type="curve" smooth="yes"/>
      <point x="924" y="1287"/>
      <point x="954" y="1324"/>
      <point x="954" y="1381" type="curve" smooth="yes"/>
      <point x="954" y="1504"/>
      <point x="853" y="1568"/>
    </contour>
    <contour>
      <point x="1120" y="1192" type="line"/>
      <point x="1120" y="0" type="line"/>
      <point x="1168" y="0" type="line"/>
      <point x="1168" y="1196" type="line"/>
    </contour>
    <contour>
      <point x="1440" y="1576" type="line"/>
      <point x="1234" y="1576"/>
      <point x="1120" y="1445"/>
      <point x="1120" y="1192" type="curve"/>
      <point x="1168" y="1196" type="line"/>
      <point x="1168" y="1422"/>
      <point x="1264" y="1532"/>
      <point x="1440" y="1532" type="curve"/>
    </contour>
    <contour>
      <point x="1440" y="1576" type="curve"/>
      <point x="1440" y="1532" type="line"/>
      <point x="1546" y="1532"/>
      <point x="1616" y="1487"/>
      <point x="1612" y="1404" type="curve"/>
      <point x="1631" y="1419" type="line"/>
      <point x="1574" y="1425"/>
      <point x="1532" y="1404"/>
      <point x="1532" y="1358" type="curve" smooth="yes"/>
      <point x="1532" y="1326"/>
      <point x="1556" y="1305"/>
      <point x="1588" y="1305" type="curve" smooth="yes"/>
      <point x="1632" y="1305"/>
      <point x="1662" y="1342"/>
      <point x="1662" y="1399" type="curve" smooth="yes"/>
      <point x="1662" y="1515"/>
      <point x="1565" y="1576"/>
    </contour>
    <contour>
      <point x="1848" y="1560" type="line"/>
      <point x="1848" y="0" type="line"/>
      <point x="1896" y="0" type="line"/>
      <point x="1896" y="1560" type="line"/>
    </contour>
    <contour>
      <point x="92" y="1100" type="line"/>
      <point x="92" y="1056" type="line"/>
      <point x="1548" y="1056" type="line"/>
      <point x="1548" y="1100" type="line"/>
    </contour>
  </outline>
</glyph>
<glyph name="five.dnom" format="2">
  <advance width="748"/>
  <outline>
    <contour>
      <point x="100" y="228" type="line"/>
      <point x="103" y="87"/>
      <point x="206" y="-10"/>
      <point x="375" y="-10" type="curve" smooth="yes"/>
      <point x="546" y="-10"/>
      <point x="650" y="91"/>
      <point x="650" y="241" type="curve" smooth="yes"/>
      <point x="650" y="397"/>
      <point x="537" y="478"/>
      <point x="396" y="478" type="curve" smooth="yes"/>
      <point x="262" y="478"/>
      <point x="186" y="420"/>
      <point x="137" y="357" type="curve"/>
      <point x="155" y="329" type="line"/>
      <point x="200" y="388"/>
      <point x="275" y="439"/>
      <point x="384" y="439" type="curve" smooth="yes"/>
      <point x="509" y="439"/>
      <point x="604" y="366"/>
      <point x="604" y="241" type="curve" smooth="yes"/>
      <point x="604" y="121"/>
      <point x="522" y="30"/>
      <point x="369" y="30" type="curve" smooth="yes"/>
      <point x="222" y="30"/>
      <point x="139" y="123"/>
      <point x="133" y="228" type="curve"/>
    </contour>
    <contour>
      <point x="163" y="720" type="line"/>
      <point x="127" y="329" type="line"/>
      <point x="155" y="329" type="line"/>
      <point x="165" y="347" type="line"/>
      <point x="199" y="720" type="line"/>
    </contour>
    <contour>
      <point x="613" y="720" type="line"/>
      <point x="163" y="720" type="line"/>
      <point x="183" y="680" type="line"/>
      <point x="613" y="680" type="line"/>
    </contour>
    <contour>
      <point x="510" y="680" type="line"/>
      <point x="575" y="680"/>
      <point x="579" y="658"/>
      <point x="579" y="614" type="curve" smooth="yes"/>
      <point x="579" y="563" type="line"/>
      <point x="613" y="563" type="line"/>
      <point x="613" y="680" type="line"/>
    </contour>
  </outline>
</glyph>
<glyph name="four.dnom" format="2">
  <advance width="771"/>
  <outline>
    <contour>
      <point x="717" y="220" type="line"/>
      <point x="717" y="254" type="line"/>
      <point x="94" y="254" type="line"/>
      <point x="66" y="252" type="line"/>
      <point x="66" y="220" type="line"/>
    </contour>
    <contour>
      <point x="487" y="720" type="line"/>
      <point x="485" y="692" type="line"/>
      <point x="485" y="34" type="line"/>
      <point x="329" y="34" type="line"/>
      <point x="329" y="0" type="line"/>
      <point x="644" y="0" type="line"/>
      <point x="644" y="34" type="line"/>
      <point x="529" y="34" type="line"/>
      <point x="529" y="720" type="line"/>
    </contour>
    <contour>
      <point x="487" y="672" type="line"/>
      <point x="487" y="720" type="line"/>
      <point x="66" y="252" type="line"/>
      <point x="109" y="252" type="line"/>
    </contour>
  </outline>
</glyph>
<glyph name="hookabovecomb.alt" format="2">
  <anchor x="261" y="1100" name="_side"/>
  <outline>
    <contour>
      <point x="283" y="1230" type="line"/>
      <point x="280" y="1288"/>
      <point x="294" y="1316"/>
      <point x="349" y="1351" type="curve" smooth="yes"/>
      <point x="400" y="1383"/>
      <point x="454" y="1415"/>
      <point x="454" y="1496" type="curve" smooth="yes"/>
      <point x="454" y="1583"/>
      <point x="370" y="1626"/>
      <point x="269" y="1626" type="curve"/>
      <point x="268" y="1592" type="line"/>
      <point x="350" y="1592"/>
      <point x="410" y="1553"/>
      <point x="410" y="1496" type="curve" smooth="yes"/>
      <point x="410" y="1442"/>
      <point x="373" y="1413"/>
      <point x="326" y="1384" type="curve" smooth="yes"/>
      <point x="274" y="1352"/>
      <point x="237" y="1317"/>
      <point x="243" y="1230" type="curve"/>
    </contour>
    <contour>
      <point x="269" y="1626" type="line"/>
      <point x="161" y="1626"/>
      <point x="80" y="1572"/>
      <point x="80" y="1509" type="curve" smooth="yes"/>
      <point x="80" y="1472"/>
      <point x="104" y="1450"/>
      <point x="137" y="1450" type="curve" smooth="yes"/>
      <point x="168" y="1450"/>
      <point x="186" y="1469"/>
      <point x="186" y="1496" type="curve" smooth="yes"/>
      <point x="186" y="1526"/>
      <point x="164" y="1543"/>
      <point x="122" y="1543" type="curve"/>
      <point x="121" y="1519" type="line"/>
      <point x="136" y="1560"/>
      <point x="190" y="1592"/>
      <point x="268" y="1592" type="curve"/>
    </contour>
  </outline>
</glyph>
<glyph name="idotless.ss01" format="2">
  <advance width="648"/>
  <anchor x="451" y="0" name="bottom"/>
  <anchor x="276" y="1100" name="top"/>
  <outline>
    <contour>
      <point x="648" y="420" type="line"/>
      <point x="604" y="420" type="line"/>
      <point x="604" y="198" type="line" smooth="yes"/>
      <point x="604" y="95"/>
      <point x="556" y="24"/>
      <point x="459" y="24" type="curve" smooth="yes"/>
      <point x="362" y="24"/>
      <point x="314" y="95"/>
      <point x="314" y="198" type="curve" smooth="yes"/>
      <point x="314" y="1100" type="line"/>
      <point x="266" y="1100" type="line"/>
      <point x="266" y="198" type="line" smooth="yes"/>
      <point x="266" y="62"/>
      <point x="339" y="-16"/>
      <point x="457" y="-16" type="curve" smooth="yes"/>
      <point x="575" y="-16"/>
      <point x="648" y="62"/>
      <point x="648" y="198" type="curve" smooth="yes"/>
    </contour>
  </outline>
</glyph>
<glyph name="l.ss01" format="2">
  <advance width="652"/>
  <anchor x="285" y="0" name="bottom"/>
  <anchor x="285" y="780" name="center"/>
  <anchor x="274" y="1560" name="top"/>
  <anchor x="318" y="1560" name="topright"/>
  <outline>
    <contour>
      <point x="652" y="420" type="line"/>
      <point x="608" y="420" type="line"/>
      <point x="608" y="198" type="line" smooth="yes"/>
      <point x="608" y="95"/>
      <point x="560" y="24"/>
      <point x="463" y="24" type="curve" smooth="yes"/>
      <point x="366" y="24"/>
      <point x="318" y="95"/>
      <point x="318" y="198" type="curve" smooth="yes"/>
      <point x="318" y="1560" type="line"/>
      <point x="270" y="1560" type="line"/>
      <point x="270" y="198" type="line" smooth="yes"/>
      <point x="270" y="62"/>
      <point x="343" y="-16"/>
      <point x="461" y="-16" type="curve" smooth="yes"/>
      <point x="579" y="-16"/>
      <point x="652" y="62"/>
      <point x="652" y="198" type="curve" smooth="yes"/>
    </contour>
  </outline>
</glyph>
<glyph name="nine.dnom" format="2">
  <advance width="743"/>
  <outline>
    <contour>
      <point x="362" y="730" type="curve" smooth="yes"/>
      <point x="202" y="730"/>
      <point x="88" y="644"/>
      <point x="88" y="496" type="curve" smooth="yes"/>
      <point x="88" y="347"/>
      <point x="201" y="261"/>
      <point x="356" y="261" type="curve" smooth="yes"/>
      <point x="511" y="261"/>
      <point x="598" y="347"/>
      <point x="611" y="442" type="curve"/>
      <point x="657" y="396" type="line"/>
      <point x="657" y="613"/>
      <point x="552" y="730"/>
    </contour>
    <contour>
      <point x="362" y="694" type="curve" smooth="yes"/>
      <point x="495" y="694"/>
      <point x="590" y="623"/>
      <point x="590" y="499" type="curve" smooth="yes"/>
      <point x="590" y="371"/>
      <point x="495" y="299"/>
      <point x="362" y="299" type="curve" smooth="yes"/>
      <point x="228" y="299"/>
      <point x="134" y="369"/>
      <point x="134" y="499" type="curve" smooth="yes"/>
      <point x="134" y="625"/>
      <point x="228" y="694"/>
    </contour>
    <contour>
      <point x="115" y="142" type="curve" smooth="yes"/>
      <point x="115" y="43"/>
      <point x="210" y="-10"/>
      <point x="335" y="-10" type="curve" smooth="yes"/>
      <point x="526" y="-10"/>
      <point x="657" y="122"/>
      <point x="657" y="396" type="curve"/>
      <point x="611" y="442" type="line"/>
      <point x="628" y="149"/>
      <point x="496" y="26"/>
      <point x="332" y="26" type="curve" smooth="yes"/>
      <point x="238" y="26"/>
      <point x="148" y="62"/>
      <point x="148" y="145" type="curve"/>
      <point x="140" y="131" type="line"/>
      <point x="170" y="128"/>
      <point x="199" y="142"/>
      <point x="199" y="165" type="curve" smooth="yes"/>
      <point x="199" y="184"/>
      <point x="185" y="196"/>
      <point x="163" y="196" type="curve" smooth="yes"/>
      <point x="136" y="196"/>
      <point x="115" y="177"/>
    </contour>
  </outline>
</glyph>
<glyph name="one.dnom" format="2">
  <advance width="543"/>
  <outline>
    <contour>
      <point x="305" y="720" type="line"/>
      <point x="305" y="690" type="line" smooth="yes"/>
      <point x="305" y="588"/>
      <point x="272" y="576"/>
      <point x="187" y="576" type="curve" smooth="yes"/>
      <point x="86" y="576" type="line"/>
      <point x="86" y="542" type="line"/>
      <point x="299" y="542" type="line"/>
      <point x="299" y="36" type="line"/>
      <point x="127" y="36" type="line"/>
      <point x="127" y="0" type="line"/>
      <point x="481" y="0" type="line"/>
      <point x="481" y="36" type="line"/>
      <point x="343" y="36" type="line"/>
      <point x="343" y="720" type="line"/>
    </contour>
  </outline>
</glyph>
<glyph name="seven.dnom" format="2">
  <advance width="709"/>
  <outline>
    <contour>
      <point x="68" y="720" type="line"/>
      <point x="68" y="680" type="line"/>
      <point x="603" y="680" type="line"/>
      <point x="649" y="683" type="line"/>
      <point x="649" y="720" type="line"/>
    </contour>
    <contour>
      <point x="270" y="0" type="curve"/>
      <point x="318" y="0" type="line"/>
      <point x="332" y="315"/>
      <point x="481" y="503"/>
      <point x="649" y="683" type="curve"/>
      <point x="603" y="680" type="line"/>
      <point x="454" y="527"/>
      <point x="285" y="329"/>
    </contour>
    <contour>
      <point x="173" y="680" type="curve"/>
      <point x="68" y="680" type="line"/>
      <point x="68" y="557" type="line"/>
      <point x="102" y="557" type="line"/>
      <point x="102" y="610" type="line" smooth="yes"/>
      <point x="102" y="657"/>
      <point x="106" y="680"/>
    </contour>
  </outline>
</glyph>
<glyph name="six.dnom" format="2">
  <advance width="743"/>
  <outline>
    <contour>
      <point x="381" y="-10" type="curve" smooth="yes"/>
      <point x="541" y="-10"/>
      <point x="655" y="76"/>
      <point x="655" y="224" type="curve" smooth="yes"/>
      <point x="655" y="373"/>
      <point x="542" y="459"/>
      <point x="387" y="459" type="curve" smooth="yes"/>
      <point x="232" y="459"/>
      <point x="145" y="373"/>
      <point x="132" y="278" type="curve"/>
      <point x="86" y="324" type="line"/>
      <point x="86" y="107"/>
      <point x="191" y="-10"/>
    </contour>
    <contour>
      <point x="381" y="26" type="curve" smooth="yes"/>
      <point x="248" y="26"/>
      <point x="153" y="97"/>
      <point x="153" y="221" type="curve" smooth="yes"/>
      <point x="153" y="349"/>
      <point x="248" y="421"/>
      <point x="381" y="421" type="curve" smooth="yes"/>
      <point x="515" y="421"/>
      <point x="609" y="351"/>
      <point x="609" y="221" type="curve" smooth="yes"/>
      <point x="609" y="95"/>
      <point x="515" y="26"/>
    </contour>
    <contour>
      <point x="628" y="578" type="curve" smooth="yes"/>
      <point x="628" y="677"/>
      <point x="533" y="730"/>
      <point x="408" y="730" type="curve" smooth="yes"/>
      <point x="217" y="730"/>
      <point x="86" y="598"/>
      <point x="86" y="324" type="curve"/>
      <point x="132" y="278" type="line"/>
      <point x="115" y="571"/>
      <point x="247" y="694"/>
      <point x="411" y="694" type="curve" smooth="yes"/>
      <point x="505" y="694"/>
      <point x="595" y="658"/>
      <point x="595" y="575" type="curve"/>
      <point x="603" y="589" type="line"/>
      <point x="573" y="592"/>
      <point x="544" y="578"/>
      <point x="544" y="555" type="curve" smooth="yes"/>
      <point x="544" y="536"/>
      <point x="558" y="524"/>
      <point x="580" y="524" type="curve" smooth="yes"/>
      <point x="607" y="524"/>
      <point x="628" y="543"/>
    </contour>
  </outline>
</glyph>
